<svg width="14" height="18" viewBox="0 0 14 18" fill="none" xmlns="http://www.w3.org/2000/svg">
<path d="M10.7125 0.0892639H7.53433C6.80308 0.0892639 6.18433 0.708014 6.18433 1.43926V3.37989C6.18433 3.71739 6.46558 3.99864 6.80308 3.99864C7.14058 3.99864 7.44995 3.71739 7.44995 3.37989V1.41114C7.44995 1.35489 7.47808 1.32676 7.53433 1.32676H10.7125C11.3875 1.32676 11.9218 1.86114 11.9218 2.53614V14.6018C11.9218 15.2768 11.3875 15.8111 10.7125 15.8111H7.53433C7.47808 15.8111 7.44995 15.783 7.44995 15.7268V13.7861C7.44995 13.4486 7.1687 13.1674 6.80308 13.1674C6.43745 13.1674 6.18433 13.4486 6.18433 13.7861V15.7268C6.18433 16.458 6.80308 17.0768 7.53433 17.0768H10.7125C12.0906 17.0768 13.1875 15.9518 13.1875 14.6018V2.56426C13.1875 1.18614 12.0625 0.0892639 10.7125 0.0892639Z" fill="#DEE4EE"/>
<path d="M8.43433 8.13301L5.62183 5.26426C5.3687 5.01114 4.97495 5.01114 4.72183 5.26426C4.4687 5.51739 4.4687 5.91114 4.72183 6.16426L6.46558 7.93614H1.45933C1.12183 7.93614 0.840576 8.21739 0.840576 8.55489C0.840576 8.89239 1.12183 9.17364 1.45933 9.17364H6.4937L4.72183 10.9736C4.4687 11.2268 4.4687 11.6205 4.72183 11.8736C4.83433 11.9861 5.00308 12.0424 5.17183 12.0424C5.34058 12.0424 5.50933 11.9861 5.62183 11.8455L8.43433 8.97676C8.68745 8.77989 8.68745 8.38614 8.43433 8.13301Z" fill="#DEE4EE"/>
</svg>
