<svg width="17" height="17" viewBox="0 0 17 17" fill="none" xmlns="http://www.w3.org/2000/svg">
<path d="M0.43449 6.5093H1.27824C1.44699 6.5093 1.55949 6.3968 1.58762 6.31243L1.98137 5.32805H4.90637L5.27199 6.31243C5.32824 6.48118 5.46887 6.5093 5.58137 6.5093H6.45324C6.76262 6.48118 6.87512 6.25618 6.76262 6.03118L4.42824 0.434302C4.37199 0.265552 4.31574 0.237427 4.14699 0.237427H2.88137C2.76887 0.237427 2.60012 0.293677 2.57199 0.434302L0.15324 6.08743C0.0407404 6.2843 0.20949 6.5093 0.43449 6.5093ZM3.47199 1.98118L4.31574 4.17493H2.60012L3.47199 1.98118Z" fill="#DEE4EE"/>
<path d="M9.12515 1.5031H15.8751C16.2126 1.5031 16.522 1.22185 16.522 0.856226C16.522 0.490601 16.2408 0.209351 15.8751 0.209351H9.12515C8.78765 0.209351 8.47827 0.490601 8.47827 0.856226C8.47827 1.22185 8.75952 1.5031 9.12515 1.5031Z" fill="#DEE4EE"/>
<path d="M15.8751 5.21558H9.12515C8.78765 5.21558 8.47827 5.49683 8.47827 5.86245C8.47827 6.22808 8.75952 6.50933 9.12515 6.50933H15.8751C16.2126 6.50933 16.522 6.22808 16.522 5.86245C16.522 5.49683 16.2126 5.21558 15.8751 5.21558Z" fill="#DEE4EE"/>
<path d="M15.875 10.1656H0.771875C0.434375 10.1656 0.125 10.4469 0.125 10.8125C0.125 11.1781 0.40625 11.4594 0.771875 11.4594H15.875C16.2125 11.4594 16.5219 11.1781 16.5219 10.8125C16.5219 10.4469 16.2125 10.1656 15.875 10.1656Z" fill="#DEE4EE"/>
<path d="M15.875 15.1156H0.771875C0.434375 15.1156 0.125 15.3969 0.125 15.7625C0.125 16.1281 0.40625 16.4094 0.771875 16.4094H15.875C16.2125 16.4094 16.5219 16.1281 16.5219 15.7625C16.5219 15.3969 16.2125 15.1156 15.875 15.1156Z" fill="#DEE4EE"/>
</svg>
