<svg width="18" height="10" viewBox="0 0 18 10" fill="none" xmlns="http://www.w3.org/2000/svg">
<path d="M3.38 5.904C5.072 5.904 6.176 4.728 6.176 3.108C6.176 1.44 5.084 0.323999 3.38 0.323999H0.00800008V9H1.184V5.904H3.38ZM3.176 1.38C4.28 1.38 4.94 2.004 4.94 3.096C4.94 4.164 4.292 4.848 3.128 4.848H1.184V1.38H3.176ZM10.676 3.084C10.448 3.036 10.28 3.012 10.076 3.012C9.272 3.012 8.684 3.42 8.444 4.032L8.372 3.144H7.316V9H8.444V5.892C8.444 4.764 9.104 4.116 10.172 4.116H10.676V3.084ZM11.139 6.06C11.139 7.872 12.435 9.144 14.199 9.144C15.951 9.144 17.247 7.872 17.247 6.06C17.247 4.248 15.951 2.976 14.199 2.976C12.435 2.976 11.139 4.248 11.139 6.06ZM12.279 6.06C12.279 4.836 13.059 3.984 14.199 3.984C15.327 3.984 16.119 4.836 16.119 6.06C16.119 7.284 15.327 8.136 14.199 8.136C13.059 8.136 12.279 7.284 12.279 6.06Z" fill="white"/>
</svg>
