<svg width="18" height="16" viewBox="0 0 18 16" fill="none" xmlns="http://www.w3.org/2000/svg">
<path d="M16.8749 6.3969C16.5374 6.3969 16.228 6.67815 16.228 7.04377V12.3313C16.228 13.4282 15.4124 14.3 14.3999 14.3H3.5999C2.55928 14.3 1.77178 13.4282 1.77178 12.3313V7.01565C1.77178 6.67815 1.49053 6.36877 1.1249 6.36877C0.759277 6.36877 0.478027 6.65002 0.478027 7.01565V12.3031C0.478027 14.075 1.85615 15.5375 3.57178 15.5375H14.3999C16.1155 15.5375 17.4937 14.1031 17.4937 12.3031V7.01565C17.5218 6.67815 17.2124 6.3969 16.8749 6.3969Z" fill="#DEE4EE"/>
<path d="M8.5498 10.5875C8.6623 10.7 8.83105 10.7844 8.9998 10.7844C9.16855 10.7844 9.30918 10.7281 9.4498 10.5875L12.8811 7.1844C13.1342 6.93127 13.1342 6.53752 12.8811 6.2844C12.6279 6.03127 12.2342 6.03127 11.9811 6.2844L9.64668 8.59065V1.1094C9.64668 0.771899 9.36543 0.462524 8.9998 0.462524C8.6623 0.462524 8.35293 0.743774 8.35293 1.1094V8.6469L6.01855 6.31252C5.76543 6.0594 5.37168 6.0594 5.11855 6.31252C4.86543 6.56565 4.86543 6.9594 5.11855 7.21252L8.5498 10.5875Z" fill="#DEE4EE"/>
</svg>
