<svg width="14" height="18" viewBox="0 0 14 18" fill="none" xmlns="http://www.w3.org/2000/svg">
<path d="M13.8343 2.4469C13.8343 1.37815 12.9624 0.478149 11.8655 0.478149H2.13428C1.06553 0.478149 0.165527 1.35002 0.165527 2.4469V16.5656C0.165527 16.7906 0.306152 17.0156 0.503027 17.1281C0.699902 17.2407 0.953027 17.2125 1.1499 17.1L2.55615 16.1719L4.44053 17.4094C4.66553 17.55 4.91865 17.55 5.14365 17.4094L6.9999 16.1719L8.85615 17.4094C8.96865 17.4938 9.08115 17.5219 9.19365 17.5219C9.30615 17.5219 9.44678 17.4938 9.53115 17.4094L11.3874 16.1719L12.7937 17.1281C12.9905 17.2688 13.2437 17.2688 13.4405 17.1563C13.6374 17.0438 13.778 16.8188 13.778 16.5938L13.8343 2.4469ZM12.0343 15.0469C11.6687 14.7938 11.1905 14.7938 10.8249 15.0469L9.22178 16.1156L7.61865 15.0469C7.42178 14.9344 7.2249 14.85 6.9999 14.85C6.80303 14.85 6.57803 14.9063 6.40928 15.0469L4.80615 16.1156L3.20303 15.0469C2.8374 14.7938 2.35928 14.7938 1.99365 15.0469L1.45928 15.3844V2.4469C1.45928 2.05315 1.76865 1.74377 2.1624 1.74377H11.9218C12.3155 1.74377 12.6249 2.05315 12.6249 2.4469V15.3844L12.0343 15.0469Z" fill="#DEE4EE"/>
<path d="M5.93106 3.7406H3.5123C3.1748 3.7406 2.89355 4.02185 2.89355 4.35935C2.89355 4.69685 3.1748 4.9781 3.5123 4.9781H5.93106C6.26856 4.9781 6.54981 4.69685 6.54981 4.35935C6.54981 4.02185 6.26856 3.7406 5.93106 3.7406Z" fill="#DEE4EE"/>
<path d="M10.3467 3.7406H9.67173C9.33423 3.7406 9.05298 4.02185 9.05298 4.35935C9.05298 4.69685 9.33423 4.9781 9.67173 4.9781H10.3467C10.6842 4.9781 10.9655 4.69685 10.9655 4.35935C10.9655 4.02185 10.6842 3.7406 10.3467 3.7406Z" fill="#DEE4EE"/>
<path d="M3.5123 8.69062H5.05918C5.39668 8.69062 5.67793 8.40938 5.67793 8.07188C5.67793 7.73438 5.39668 7.45312 5.05918 7.45312H3.5123C3.1748 7.45312 2.89355 7.73438 2.89355 8.07188C2.89355 8.40938 3.14668 8.69062 3.5123 8.69062Z" fill="#DEE4EE"/>
<path d="M10.3467 7.42505H9.67173C9.33423 7.42505 9.05298 7.7063 9.05298 8.0438C9.05298 8.3813 9.33423 8.66255 9.67173 8.66255H10.3467C10.6842 8.66255 10.9655 8.3813 10.9655 8.0438C10.9655 7.7063 10.6842 7.42505 10.3467 7.42505Z" fill="#DEE4EE"/>
<path d="M5.93106 11.0813H3.5123C3.1748 11.0813 2.89355 11.3625 2.89355 11.7C2.89355 12.0375 3.1748 12.3188 3.5123 12.3188H5.93106C6.26856 12.3188 6.54981 12.0375 6.54981 11.7C6.54981 11.3625 6.26856 11.0813 5.93106 11.0813Z" fill="#DEE4EE"/>
<path d="M10.3467 11.0813H9.67173C9.33423 11.0813 9.05298 11.3625 9.05298 11.7C9.05298 12.0375 9.33423 12.3188 9.67173 12.3188H10.3467C10.6842 12.3188 10.9655 12.0375 10.9655 11.7C10.9655 11.3625 10.6842 11.0813 10.3467 11.0813Z" fill="#DEE4EE"/>
</svg>
