<svg width="18" height="14" viewBox="0 0 18 14" fill="none" xmlns="http://www.w3.org/2000/svg">
<path d="M15.7499 0.699951H2.2499C1.29365 0.699951 0.478027 1.48745 0.478027 2.47183V11.5843C0.478027 12.5406 1.26553 13.3562 2.2499 13.3562H15.7499C16.7062 13.3562 17.5218 12.5687 17.5218 11.5843V2.4437C17.5218 1.48745 16.7062 0.699951 15.7499 0.699951ZM15.7499 1.96558C15.778 1.96558 15.8062 1.96558 15.8343 1.96558L8.9999 6.35308L2.16553 1.96558C2.19365 1.96558 2.22178 1.96558 2.2499 1.96558H15.7499ZM15.7499 12.0343H2.2499C1.96865 12.0343 1.74365 11.8093 1.74365 11.5281V3.20308L8.3249 7.42183C8.52178 7.56245 8.74678 7.6187 8.97178 7.6187C9.19678 7.6187 9.42178 7.56245 9.61865 7.42183L16.1999 3.20308V11.5562C16.2562 11.8375 16.0312 12.0343 15.7499 12.0343Z" fill="#DEE4EE"/>
</svg>
