<svg width="16" height="18" viewBox="0 0 16 18" fill="none" xmlns="http://www.w3.org/2000/svg">
<path d="M13.2875 0.506226H2.7125C1.75625 0.506226 0.96875 1.29373 0.96875 2.24998V15.75C0.96875 16.7062 1.75625 17.5219 2.74063 17.5219H13.3156C14.2719 17.5219 15.0875 16.7344 15.0875 15.75V2.24998C15.0313 1.29373 14.2438 0.506226 13.2875 0.506226ZM13.7656 15.75C13.7656 16.0312 13.5406 16.2562 13.2594 16.2562H2.7125C2.43125 16.2562 2.20625 16.0312 2.20625 15.75V2.24998C2.20625 1.96873 2.43125 1.74373 2.7125 1.74373H13.2875C13.5688 1.74373 13.7938 1.96873 13.7938 2.24998V15.75H13.7656Z" fill="#DEE4EE"/>
<path d="M11.797 2.6156H8.73135C8.2251 2.6156 7.80322 3.03748 7.80322 3.54373V7.25623C7.80322 7.76248 8.2251 8.18435 8.73135 8.18435H11.797C12.3032 8.18435 12.7251 7.76248 12.7251 7.25623V3.5156C12.697 3.03748 12.3032 2.6156 11.797 2.6156ZM11.4313 6.8906H9.06885V3.88123H11.4313V6.8906Z" fill="#DEE4EE"/>
<path d="M3.97822 4.35938H6.03135C6.36885 4.35938 6.67822 4.07812 6.67822 3.7125C6.67822 3.34687 6.39697 3.09375 6.03135 3.09375H3.9501C3.6126 3.09375 3.30322 3.375 3.30322 3.74063C3.30322 4.10625 3.6126 4.35938 3.97822 4.35938Z" fill="#DEE4EE"/>
<path d="M3.97822 7.9312H6.03135C6.36885 7.9312 6.67822 7.64995 6.67822 7.28433C6.67822 6.9187 6.39697 6.63745 6.03135 6.63745H3.9501C3.6126 6.63745 3.30322 6.9187 3.30322 7.28433C3.30322 7.64995 3.6126 7.9312 3.97822 7.9312Z" fill="#DEE4EE"/>
<path d="M12.0782 10.2374H3.97817C3.64067 10.2374 3.3313 10.5187 3.3313 10.8843C3.3313 11.2499 3.61255 11.5312 3.97817 11.5312H12.0782C12.4157 11.5312 12.725 11.2499 12.725 10.8843C12.725 10.5187 12.4157 10.2374 12.0782 10.2374Z" fill="#DEE4EE"/>
<path d="M12.0782 13.8093H3.97817C3.64067 13.8093 3.3313 14.0906 3.3313 14.4562C3.3313 14.8218 3.61255 15.1031 3.97817 15.1031H12.0782C12.4157 15.1031 12.725 14.8218 12.725 14.4562C12.725 14.0906 12.4157 13.8093 12.0782 13.8093Z" fill="#DEE4EE"/>
</svg>
