<svg width="90" height="16" viewBox="0 0 90 16" fill="none" xmlns="http://www.w3.org/2000/svg">
<path d="M8.94531 0.447266V8.18164C8.9401 9.25456 8.60156 10.1322 7.92969 10.8145C7.26302 11.4967 6.35677 11.8796 5.21094 11.9629L4.8125 11.9785C3.56771 11.9785 2.57552 11.6426 1.83594 10.9707C1.09635 10.2988 0.721354 9.37435 0.710938 8.19727V0.447266H2.19531V8.15039C2.19531 8.97331 2.42188 9.61393 2.875 10.0723C3.32812 10.5254 3.97396 10.752 4.8125 10.752C5.66146 10.752 6.3099 10.5254 6.75781 10.0723C7.21094 9.61914 7.4375 8.98112 7.4375 8.1582V0.447266H8.94531ZM12.9219 11.8223H11.4219V0.447266H12.9219V11.8223ZM19.6406 11.8223V0.447266H22.8516C23.8411 0.447266 24.7161 0.666016 25.4766 1.10352C26.237 1.54102 26.8229 2.16341 27.2344 2.9707C27.651 3.77799 27.862 4.70508 27.8672 5.75195V6.47852C27.8672 7.55143 27.6589 8.49154 27.2422 9.29883C26.8307 10.1061 26.2396 10.7259 25.4688 11.1582C24.7031 11.5905 23.8099 11.8118 22.7891 11.8223H19.6406ZM21.1406 1.68164V10.5957H22.7188C23.875 10.5957 24.7734 10.2363 25.4141 9.51758C26.0599 8.79883 26.3828 7.77539 26.3828 6.44727V5.7832C26.3828 4.49154 26.0781 3.48893 25.4688 2.77539C24.8646 2.05664 24.0052 1.69206 22.8906 1.68164H21.1406ZM33.4219 11.9785C32.276 11.9785 31.3438 11.6035 30.625 10.8535C29.9062 10.0983 29.5469 9.09049 29.5469 7.83008V7.56445C29.5469 6.72591 29.7057 5.97852 30.0234 5.32227C30.3464 4.66081 30.7943 4.14518 31.3672 3.77539C31.9453 3.40039 32.5703 3.21289 33.2422 3.21289C34.3411 3.21289 35.1953 3.57487 35.8047 4.29883C36.4141 5.02279 36.7188 6.05924 36.7188 7.4082V8.00977H30.9922C31.013 8.8431 31.2552 9.51758 31.7188 10.0332C32.1875 10.5436 32.7812 10.7988 33.5 10.7988C34.0104 10.7988 34.4427 10.6947 34.7969 10.4863C35.151 10.278 35.4609 10.002 35.7266 9.6582L36.6094 10.3457C35.901 11.4342 34.8385 11.9785 33.4219 11.9785ZM33.2422 4.40039C32.6589 4.40039 32.1693 4.61393 31.7734 5.04102C31.3776 5.46289 31.1328 6.05664 31.0391 6.82227H35.2734V6.71289C35.2318 5.97852 35.0339 5.41081 34.6797 5.00977C34.3255 4.60352 33.8464 4.40039 33.2422 4.40039ZM43.3203 9.58008C43.3203 9.18945 43.1719 8.88737 42.875 8.67383C42.5833 8.45508 42.0703 8.26758 41.3359 8.11133C40.6068 7.95508 40.026 7.76758 39.5938 7.54883C39.1667 7.33008 38.849 7.06966 38.6406 6.76758C38.4375 6.46549 38.3359 6.10612 38.3359 5.68945C38.3359 4.99674 38.6276 4.41081 39.2109 3.93164C39.7995 3.45247 40.5495 3.21289 41.4609 3.21289C42.4193 3.21289 43.1953 3.46029 43.7891 3.95508C44.388 4.44987 44.6875 5.08268 44.6875 5.85352H43.2344C43.2344 5.45768 43.0651 5.11654 42.7266 4.83008C42.3932 4.54362 41.9714 4.40039 41.4609 4.40039C40.9349 4.40039 40.5234 4.51497 40.2266 4.74414C39.9297 4.97331 39.7812 5.27279 39.7812 5.64258C39.7812 5.99154 39.9193 6.25456 40.1953 6.43164C40.4714 6.60872 40.9688 6.77799 41.6875 6.93945C42.4115 7.10091 42.9974 7.29362 43.4453 7.51758C43.8932 7.74154 44.224 8.01237 44.4375 8.33008C44.6562 8.64258 44.7656 9.02539 44.7656 9.47852C44.7656 10.2337 44.4635 10.8405 43.8594 11.2988C43.2552 11.752 42.4714 11.9785 41.5078 11.9785C40.8307 11.9785 40.2318 11.8587 39.7109 11.6191C39.1901 11.3796 38.7812 11.0462 38.4844 10.6191C38.1927 10.1868 38.0469 9.7207 38.0469 9.2207H39.4922C39.5182 9.70508 39.7109 10.0905 40.0703 10.377C40.4349 10.6582 40.9141 10.7988 41.5078 10.7988C42.0547 10.7988 42.4922 10.6895 42.8203 10.4707C43.1536 10.2467 43.3203 9.94987 43.3203 9.58008ZM48.2188 11.8223H46.7734V3.36914H48.2188V11.8223ZM46.6562 1.12695C46.6562 0.892578 46.7266 0.694661 46.8672 0.533203C47.013 0.371745 47.2266 0.291016 47.5078 0.291016C47.7891 0.291016 48.0026 0.371745 48.1484 0.533203C48.2943 0.694661 48.3672 0.892578 48.3672 1.12695C48.3672 1.36133 48.2943 1.55664 48.1484 1.71289C48.0026 1.86914 47.7891 1.94727 47.5078 1.94727C47.2266 1.94727 47.013 1.86914 46.8672 1.71289C46.7266 1.55664 46.6562 1.36133 46.6562 1.12695ZM50.1953 7.52539C50.1953 6.20768 50.5 5.16081 51.1094 4.38477C51.7188 3.60352 52.526 3.21289 53.5312 3.21289C54.5625 3.21289 55.3672 3.57747 55.9453 4.30664L56.0156 3.36914H57.3359V11.6191C57.3359 12.7129 57.0104 13.5749 56.3594 14.2051C55.7135 14.8353 54.8438 15.1504 53.75 15.1504C53.1406 15.1504 52.5443 15.0202 51.9609 14.7598C51.3776 14.4993 50.9323 14.1426 50.625 13.6895L51.375 12.8223C51.9948 13.5879 52.7526 13.9707 53.6484 13.9707C54.3516 13.9707 54.8984 13.7728 55.2891 13.377C55.6849 12.9811 55.8828 12.4238 55.8828 11.7051V10.9785C55.3047 11.6452 54.5156 11.9785 53.5156 11.9785C52.526 11.9785 51.724 11.5801 51.1094 10.7832C50.5 9.98633 50.1953 8.90039 50.1953 7.52539ZM51.6484 7.68945C51.6484 8.64258 51.8438 9.39258 52.2344 9.93945C52.625 10.4811 53.1719 10.752 53.875 10.752C54.7865 10.752 55.4557 10.3379 55.8828 9.50977V5.65039C55.4401 4.8431 54.776 4.43945 53.8906 4.43945C53.1875 4.43945 52.638 4.71289 52.2422 5.25977C51.8464 5.80664 51.6484 6.61654 51.6484 7.68945ZM60.8906 3.36914L60.9375 4.43164C61.5833 3.61914 62.4271 3.21289 63.4688 3.21289C65.2552 3.21289 66.1562 4.2207 66.1719 6.23633V11.8223H64.7266V6.22852C64.7214 5.61914 64.5807 5.16862 64.3047 4.87695C64.0339 4.58529 63.6094 4.43945 63.0312 4.43945C62.5625 4.43945 62.151 4.56445 61.7969 4.81445C61.4427 5.06445 61.1667 5.39258 60.9688 5.79883V11.8223H59.5234V3.36914H60.8906ZM75.4375 6.5332L74.0469 7.97852V11.8223H72.5469V0.447266H74.0469V6.07227L79.1016 0.447266H80.9141L76.4375 5.4707L81.2656 11.8223H79.4688L75.4375 6.5332ZM83.9219 11.8223H82.4766V3.36914H83.9219V11.8223ZM82.3594 1.12695C82.3594 0.892578 82.4297 0.694661 82.5703 0.533203C82.7161 0.371745 82.9297 0.291016 83.2109 0.291016C83.4922 0.291016 83.7057 0.371745 83.8516 0.533203C83.9974 0.694661 84.0703 0.892578 84.0703 1.12695C84.0703 1.36133 83.9974 1.55664 83.8516 1.71289C83.7057 1.86914 83.4922 1.94727 83.2109 1.94727C82.9297 1.94727 82.7161 1.86914 82.5703 1.71289C82.4297 1.55664 82.3594 1.36133 82.3594 1.12695ZM88.2031 1.32227V3.36914H89.7812V4.48633H88.2031V9.72852C88.2031 10.0671 88.2734 10.3223 88.4141 10.4941C88.5547 10.6608 88.7943 10.7441 89.1328 10.7441C89.2995 10.7441 89.5286 10.7129 89.8203 10.6504V11.8223C89.4401 11.9264 89.0703 11.9785 88.7109 11.9785C88.0651 11.9785 87.5781 11.7832 87.25 11.3926C86.9219 11.002 86.7578 10.4473 86.7578 9.72852V4.48633H85.2188V3.36914H86.7578V1.32227H88.2031Z" fill="#37447E"/>
</svg>
