<svg width="84" height="47" viewBox="0 0 84 47" fill="none" xmlns="http://www.w3.org/2000/svg">
<path d="M18.3682 32.5449C18.3682 31.1615 17.9287 30.0221 17.0498 29.127C16.1709 28.2155 14.7061 27.4017 12.6553 26.6855C10.6045 25.9531 9.00944 25.2777 7.87012 24.6592C4.0778 22.6247 2.18164 19.6136 2.18164 15.626C2.18164 12.9242 3.00358 10.7025 4.64746 8.96094C6.29134 7.2194 8.52116 6.18587 11.3369 5.86035V0.538086H15.2432V5.90918C18.0752 6.31608 20.2643 7.52051 21.8105 9.52246C23.3568 11.5081 24.1299 14.096 24.1299 17.2861H18.2217C18.2217 15.2354 17.7578 13.624 16.8301 12.4521C15.9186 11.264 14.6735 10.6699 13.0947 10.6699C11.5322 10.6699 10.3115 11.0931 9.43262 11.9395C8.55371 12.7858 8.11426 13.9984 8.11426 15.5771C8.11426 16.9932 8.54557 18.1325 9.4082 18.9951C10.2871 19.8415 11.7682 20.6471 13.8516 21.4121C15.9349 22.1771 17.5706 22.8851 18.7588 23.5361C19.9469 24.1872 20.9479 24.9359 21.7617 25.7822C22.5755 26.6123 23.2021 27.5726 23.6416 28.6631C24.0811 29.7536 24.3008 31.0312 24.3008 32.4961C24.3008 35.2467 23.4544 37.4766 21.7617 39.1855C20.0853 40.8945 17.7415 41.9036 14.7305 42.2129V46.9736H10.8486V42.2373C7.62598 41.8792 5.14388 40.7236 3.40234 38.7705C1.67708 36.8174 0.814453 34.2295 0.814453 31.0068H6.74707C6.74707 33.0576 7.25977 34.6445 8.28516 35.7676C9.32682 36.8906 10.7917 37.4521 12.6797 37.4521C14.5352 37.4521 15.943 37.0046 16.9033 36.1094C17.8799 35.2142 18.3682 34.026 18.3682 32.5449ZM50.5205 29.1514H54.9395V33.9121H50.5205V41.8223H44.5879V33.9121H29.2314L29.0605 30.2988L44.3926 6.27539H50.5205V29.1514ZM35.2861 29.1514H44.5879V14.3076L44.1484 15.0889L35.2861 29.1514ZM83.0391 26.8564C83.0391 31.9671 82.0788 35.8245 80.1582 38.4287C78.2539 41.0166 75.3486 42.3105 71.4424 42.3105C67.6012 42.3105 64.7041 41.0492 62.751 38.5264C60.8141 35.9873 59.8213 32.2357 59.7725 27.2715V21.1191C59.7725 16.0085 60.7246 12.1755 62.6289 9.62012C64.5495 7.06478 67.471 5.78711 71.3936 5.78711C75.2835 5.78711 78.1807 7.03223 80.085 9.52246C82.0055 12.0127 82.9902 15.7399 83.0391 20.7041V26.8564ZM77.1064 20.2158C77.1064 16.8792 76.6507 14.4378 75.7393 12.8916C74.8278 11.3291 73.3792 10.5479 71.3936 10.5479C69.4567 10.5479 68.0326 11.2884 67.1211 12.7695C66.2096 14.2344 65.7295 16.5293 65.6807 19.6543V27.7109C65.6807 31.0312 66.1445 33.5052 67.0723 35.1328C68 36.7604 69.4567 37.5742 71.4424 37.5742C73.3467 37.5742 74.7546 36.8255 75.666 35.3281C76.5775 33.8145 77.0576 31.4544 77.1064 28.248V20.2158Z" fill="#222F65"/>
</svg>
