<svg width="34" height="34" viewBox="0 0 34 34" fill="none" xmlns="http://www.w3.org/2000/svg">
<rect width="34" height="34" rx="17" fill="#3C50E0"/>
<path fill-rule="evenodd" clip-rule="evenodd" d="M14.7646 11.4264C14.8728 11.2641 15.055 11.1666 15.25 11.1666H18.75C18.945 11.1666 19.1272 11.2641 19.2354 11.4264L20.2289 12.9166H22.25C22.7141 12.9166 23.1592 13.101 23.4874 13.4292C23.8156 13.7574 24 14.2025 24 14.6666V21.0833C24 21.5474 23.8156 21.9925 23.4874 22.3207C23.1592 22.6489 22.7141 22.8333 22.25 22.8333H11.75C11.2859 22.8333 10.8408 22.6489 10.5126 22.3207C10.1844 21.9925 10 21.5474 10 21.0833V14.6666C10 14.2025 10.1844 13.7574 10.5126 13.4292C10.8408 13.101 11.2859 12.9166 11.75 12.9166H13.7711L14.7646 11.4264ZM15.5622 12.3333L14.5687 13.8235C14.4605 13.9858 14.2784 14.0833 14.0833 14.0833H11.75C11.5953 14.0833 11.4469 14.1448 11.3375 14.2541C11.2281 14.3635 11.1667 14.5119 11.1667 14.6666V21.0833C11.1667 21.238 11.2281 21.3864 11.3375 21.4958C11.4469 21.6052 11.5953 21.6666 11.75 21.6666H22.25C22.4047 21.6666 22.5531 21.6052 22.6625 21.4958C22.7719 21.3864 22.8333 21.238 22.8333 21.0833V14.6666C22.8333 14.5119 22.7719 14.3635 22.6625 14.2541C22.5531 14.1448 22.4047 14.0833 22.25 14.0833H19.9167C19.7216 14.0833 19.5395 13.9858 19.4313 13.8235L18.4378 12.3333H15.5622Z" fill="white"/>
<path fill-rule="evenodd" clip-rule="evenodd" d="M17 15.8333C16.0335 15.8333 15.25 16.6168 15.25 17.5833C15.25 18.5498 16.0335 19.3333 17 19.3333C17.9665 19.3333 18.75 18.5498 18.75 17.5833C18.75 16.6168 17.9665 15.8333 17 15.8333ZM14.0834 17.5833C14.0834 15.9725 15.3892 14.6666 17 14.6666C18.6109 14.6666 19.9167 15.9725 19.9167 17.5833C19.9167 19.1941 18.6109 20.5 17 20.5C15.3892 20.5 14.0834 19.1941 14.0834 17.5833Z" fill="white"/>
</svg>
