<svg width="76" height="32" viewBox="0 0 76 32" fill="none" xmlns="http://www.w3.org/2000/svg">
<rect width="76" height="32" rx="3" fill="#3C50E0"/>
<path fill-rule="evenodd" clip-rule="evenodd" d="M19.7646 10.4264C19.8728 10.2641 20.055 10.1666 20.25 10.1666H23.75C23.945 10.1666 24.1272 10.2641 24.2354 10.4264L25.2289 11.9166H27.25C27.7141 11.9166 28.1592 12.101 28.4874 12.4292C28.8156 12.7574 29 13.2025 29 13.6666V20.0833C29 20.5474 28.8156 20.9925 28.4874 21.3207C28.1592 21.6489 27.7141 21.8333 27.25 21.8333H16.75C16.2859 21.8333 15.8408 21.6489 15.5126 21.3207C15.1844 20.9925 15 20.5474 15 20.0833V13.6666C15 13.2025 15.1844 12.7574 15.5126 12.4292C15.8408 12.101 16.2859 11.9166 16.75 11.9166H18.7711L19.7646 10.4264ZM20.5622 11.3333L19.5687 12.8235C19.4605 12.9858 19.2784 13.0833 19.0833 13.0833H16.75C16.5953 13.0833 16.4469 13.1448 16.3375 13.2541C16.2281 13.3635 16.1667 13.5119 16.1667 13.6666V20.0833C16.1667 20.238 16.2281 20.3864 16.3375 20.4958C16.4469 20.6052 16.5953 20.6666 16.75 20.6666H27.25C27.4047 20.6666 27.5531 20.6052 27.6625 20.4958C27.7719 20.3864 27.8333 20.238 27.8333 20.0833V13.6666C27.8333 13.5119 27.7719 13.3635 27.6625 13.2541C27.5531 13.1448 27.4047 13.0833 27.25 13.0833H24.9167C24.7216 13.0833 24.5395 12.9858 24.4313 12.8235L23.4378 11.3333H20.5622Z" fill="white"/>
<path fill-rule="evenodd" clip-rule="evenodd" d="M21.9999 14.8333C21.0334 14.8333 20.2499 15.6168 20.2499 16.5833C20.2499 17.5498 21.0334 18.3333 21.9999 18.3333C22.9664 18.3333 23.7499 17.5498 23.7499 16.5833C23.7499 15.6168 22.9664 14.8333 21.9999 14.8333ZM19.0833 16.5833C19.0833 14.9725 20.3891 13.6666 21.9999 13.6666C23.6107 13.6666 24.9166 14.9725 24.9166 16.5833C24.9166 18.1941 23.6107 19.5 21.9999 19.5C20.3891 19.5 19.0833 18.1941 19.0833 16.5833Z" fill="white"/>
<path d="M43.35 21V19.726H38.548V16.52H42.874V15.302H38.548V12.138H43.35V10.878H37.176V21H43.35ZM47.8581 21.168C48.9501 21.168 49.8741 20.692 50.3221 19.754L50.4341 21H51.6101V10.696H50.3081V15.26C49.8461 14.42 48.9641 13.958 47.9141 13.958C45.8841 13.958 44.6661 15.498 44.6661 17.598C44.6661 19.684 45.8701 21.168 47.8581 21.168ZM48.1241 19.978C46.7801 19.978 45.9961 18.97 45.9961 17.556C45.9961 16.156 46.7801 15.148 48.1241 15.148C49.4681 15.148 50.2941 16.156 50.2941 17.556C50.2941 18.984 49.4681 19.978 48.1241 19.978ZM54.1526 12.53C54.6286 12.53 55.0206 12.138 55.0206 11.662C55.0206 11.172 54.6286 10.794 54.1526 10.794C53.6766 10.794 53.2846 11.172 53.2846 11.662C53.2846 12.138 53.6766 12.53 54.1526 12.53ZM53.5086 21H54.8246V14.154H53.5086V21ZM58.6672 21V15.26H60.0112V14.154H58.6672V12.012H57.3512V14.154H56.0072V15.26H57.3512V21H58.6672Z" fill="white"/>
</svg>
