<svg width="65" height="12" viewBox="0 0 65 12" fill="none" xmlns="http://www.w3.org/2000/svg">
<path d="M0.04175 5.916C0.04175 7.92 1.31375 9.144 3.36575 9.144C5.40575 9.144 6.67775 7.908 6.67775 5.916V0.323999H5.48975V5.844C5.48975 7.224 4.73375 8.004 3.36575 8.004C1.98575 8.004 1.21775 7.236 1.21775 5.844V0.323999H0.04175V5.916ZM9.041 9L10.481 6.852L11.945 9H13.253L11.249 6.096L13.289 3.132H12.005L10.553 5.316L9.065 3.132H7.757L9.797 6.096L7.745 9H9.041ZM20.5713 9C23.1393 9 24.8673 7.248 24.8673 4.668C24.8673 2.076 23.1153 0.323999 20.5233 0.323999H17.7033V9H20.5713ZM20.4393 1.404C22.4193 1.404 23.6433 2.652 23.6433 4.668C23.6433 6.66 22.4193 7.908 20.4873 7.908H18.8793V1.404H20.4393ZM28.7035 9.144C30.1555 9.144 31.1395 8.436 31.4275 7.176H30.3715C30.1795 7.848 29.6035 8.208 28.7275 8.208C27.6115 8.208 26.9635 7.524 26.8795 6.288L31.4155 6.276V5.856C31.4155 4.116 30.3235 2.964 28.6555 2.964C26.9515 2.964 25.7875 4.236 25.7875 6.072C25.7875 7.896 26.9755 9.144 28.7035 9.144ZM28.6555 3.912C29.6515 3.912 30.2875 4.56 30.2875 5.532H26.9035C27.0475 4.5 27.6715 3.912 28.6555 3.912ZM32.1954 7.296C32.1954 8.412 33.0714 9.144 34.4514 9.144C35.8434 9.144 36.8034 8.436 36.8034 7.32C36.8034 6.444 36.3114 5.988 35.3154 5.748L34.2834 5.496C33.7074 5.352 33.4194 5.088 33.4194 4.692C33.4194 4.152 33.8154 3.84 34.5234 3.84C35.2074 3.84 35.6034 4.212 35.6274 4.8H36.7074C36.6834 3.684 35.8434 2.964 34.5594 2.964C33.2634 2.964 32.3514 3.648 32.3514 4.728C32.3514 5.592 32.8434 6.108 33.8874 6.36L34.9194 6.6C35.5314 6.756 35.7234 6.996 35.7234 7.392C35.7234 7.932 35.2674 8.256 34.4754 8.256C33.7314 8.256 33.2754 7.896 33.2754 7.296H32.1954ZM38.6063 1.74C39.0143 1.74 39.3503 1.404 39.3503 0.995999C39.3503 0.576 39.0143 0.252 38.6063 0.252C38.1983 0.252 37.8623 0.576 37.8623 0.995999C37.8623 1.404 38.1983 1.74 38.6063 1.74ZM38.0543 9H39.1823V3.132H38.0543V9ZM40.4479 5.916C40.4479 7.56 41.5039 8.844 43.1719 8.844C44.0959 8.844 44.8639 8.436 45.2479 7.752V8.928C45.2479 10.044 44.5279 10.764 43.4239 10.764C42.4399 10.764 41.7919 10.26 41.6479 9.396H40.5199C40.7359 10.884 41.8279 11.784 43.4239 11.784C45.2239 11.784 46.3639 10.608 46.3639 8.76V3.132H45.3559L45.2719 4.128C44.8999 3.396 44.1679 2.964 43.2199 2.964C41.5159 2.964 40.4479 4.26 40.4479 5.916ZM41.5759 5.892C41.5759 4.812 42.2479 3.948 43.3759 3.948C44.5279 3.948 45.1999 4.764 45.1999 5.892C45.1999 7.044 44.5039 7.86 43.3639 7.86C42.2599 7.86 41.5759 6.996 41.5759 5.892ZM49.1198 9V5.892C49.1198 4.752 49.7318 3.996 50.7878 3.996C51.6518 3.996 52.2038 4.476 52.2038 5.664V9H53.3318V5.412C53.3318 3.912 52.6238 2.964 51.0758 2.964C50.2478 2.964 49.5038 3.36 49.1318 4.032L49.0118 3.132H47.9918V9H49.1198ZM57.4261 9.144C58.8781 9.144 59.8621 8.436 60.1501 7.176H59.0941C58.9021 7.848 58.3261 8.208 57.4501 8.208C56.3341 8.208 55.6861 7.524 55.6021 6.288L60.1381 6.276V5.856C60.1381 4.116 59.0461 2.964 57.3781 2.964C55.6741 2.964 54.5101 4.236 54.5101 6.072C54.5101 7.896 55.6981 9.144 57.4261 9.144ZM57.3781 3.912C58.3741 3.912 59.0101 4.56 59.0101 5.532H55.6261C55.7701 4.5 56.3941 3.912 57.3781 3.912ZM64.758 3.084C64.53 3.036 64.362 3.012 64.158 3.012C63.354 3.012 62.766 3.42 62.526 4.032L62.454 3.144H61.398V9H62.526V5.892C62.526 4.764 63.186 4.116 64.254 4.116H64.758V3.084Z" fill="#637381"/>
</svg>
