<svg width="30" height="30" viewBox="0 0 30 30" fill="none" xmlns="http://www.w3.org/2000/svg">
<rect width="30" height="30" rx="4" fill="#3056D3"/>
<g clip-path="url(#clip0_22_306)">
<path d="M21.3656 14.4094H15.5687V8.59062C15.5687 8.24063 15.3281 8 14.9781 8C14.6281 8 14.3875 8.24063 14.3875 8.59062V14.4313H8.59062C8.24063 14.4094 8 14.65 8 15C8 15.35 8.24063 15.5906 8.59062 15.5906H14.4094V21.4313C14.4094 21.7812 14.65 22.0219 15 22.0219C15.35 22.0219 15.5906 21.7812 15.5906 21.4313V15.5687H21.4094C21.7594 15.5687 22 15.3281 22 14.9781C21.9563 14.65 21.7156 14.4094 21.3656 14.4094Z" fill="white"/>
</g>
<defs>
<clipPath id="clip0_22_306">
<rect width="14" height="14" fill="white" transform="translate(8 8)"/>
</clipPath>
</defs>
</svg>
