<?xml version="1.0" standalone="no"?>
<!DOCTYPE svg PUBLIC "-//W3C//DTD SVG 1.1//EN" "http://www.w3.org/Graphics/SVG/1.1/DTD/svg11.dtd" >
<svg xmlns="http://www.w3.org/2000/svg" xmlns:xlink="http://www.w3.org/1999/xlink" version="1.1">
<metadata>
Created by FontForge 20201107 at Tue Mar 12 13:50:21 2019
 By 
Copyright (c) 2018 by Christoph York. All rights reserved. Modification of this file requires prior written permission from Brink Type.
</metadata>
<defs>
<font id="BRFirmaCW-Medium" horiz-adv-x="710" >
  <font-face 
    font-family="Test Firma Medium"
    font-weight="500"
    font-stretch="normal"
    units-per-em="1000"
    panose-1="0 0 6 0 0 0 0 0 0 0"
    ascent="800"
    descent="-200"
    x-height="507"
    cap-height="700"
    bbox="-492 -253 1238 1010"
    underline-thickness="50"
    underline-position="-170"
    unicode-range="U+0020-2B51"
  />
<missing-glyph horiz-adv-x="775" 
d="M100 0v700h576v-700h-576zM415 293q0 20 5.5 30t22.5 24l29 24q34 28 46.5 52.5t12.5 50.5q0 52 -37 84t-97 32q-54 0 -94 -25.5t-60 -67.5l58 -39q36 60 95 60q26 0 41.5 -12t15.5 -35q0 -27 -30 -51l-32 -26q-16 -13 -26 -23.5t-16 -21.5t-8 -23.5t-2 -29.5v-31h76v28z
M377 105q23 0 37 14.5t14 37.5t-14 37.5t-37 14.5t-37 -14.5t-14 -37.5t14 -37.5t37 -14.5z" />
    <glyph glyph-name=".notdef" horiz-adv-x="775" 
d="M100 0v700h576v-700h-576zM415 293q0 20 5.5 30t22.5 24l29 24q34 28 46.5 52.5t12.5 50.5q0 52 -37 84t-97 32q-54 0 -94 -25.5t-60 -67.5l58 -39q36 60 95 60q26 0 41.5 -12t15.5 -35q0 -27 -30 -51l-32 -26q-16 -13 -26 -23.5t-16 -21.5t-8 -23.5t-2 -29.5v-31h76v28z
M377 105q23 0 37 14.5t14 37.5t-14 37.5t-37 14.5t-37 -14.5t-14 -37.5t14 -37.5t37 -14.5z" />
    <glyph glyph-name=".null" horiz-adv-x="0" 
 />
    <glyph glyph-name="nonmarkingreturn" horiz-adv-x="229" 
 />
    <glyph glyph-name="space" unicode=" " horiz-adv-x="229" 
 />
    <glyph glyph-name="exclam" unicode="!" horiz-adv-x="294" 
d="M108 220l-12 480h102l-12 -480h-78zM147 -9q-30 0 -48 18.5t-18 48.5q0 29 18 46.5t48 17.5t48 -17.5t18 -46.5q0 -30 -18 -48.5t-48 -18.5z" />
    <glyph glyph-name="quotedbl" unicode="&#x22;" horiz-adv-x="381" 
d="M70 441l-17 273h102l-17 -273h-68zM243 441l-17 273h102l-17 -273h-68z" />
    <glyph glyph-name="numbersign" unicode="#" horiz-adv-x="705" 
d="M615 200h-123l-36 -185h-83l36 185h-173l-36 -185h-83l36 185h-105v72h120l30 156h-108v72h123l36 185h83l-36 -185h173l36 185h83l-36 -185h105v-72h-120l-30 -156h108v-72zM424 272l30 156h-173l-30 -156h173z" />
    <glyph glyph-name="dollar" unicode="$" horiz-adv-x="602" 
d="M555 206q0 -80 -56 -132t-162 -58v-66h-60v66q-85 7 -143.5 45.5t-85.5 101.5l71 46q23 -46 63.5 -73t94.5 -35v219l-30 7q-181 42 -181 174q0 76 55.5 126.5t155.5 56.5v66h60v-66q75 -7 127 -38.5t75 -78.5l-69 -48q-42 68 -133 80v-207l43 -10q92 -22 133.5 -66
t41.5 -110zM277 600q-56 -5 -86 -30t-30 -67q0 -36 25 -58.5t88 -37.5l3 -1v194zM337 100q59 5 90 32.5t31 72.5q0 37 -24.5 60.5t-84.5 37.5l-12 3v-206z" />
    <glyph glyph-name="percent" unicode="%" horiz-adv-x="857" 
d="M212 356q-38 0 -70.5 13.5t-56.5 37.5t-38 57t-14 71t14 71t38 57t56.5 37.5t70.5 13.5t70.5 -13.5t56.5 -37.5t38 -57t14 -71t-14 -71t-38 -57t-56.5 -37.5t-70.5 -13.5zM129 0l507 700h92l-507 -700h-92zM212 427q46 0 73.5 29.5t27.5 78.5t-27.5 78.5t-73.5 29.5
t-73.5 -29.5t-27.5 -78.5t27.5 -78.5t73.5 -29.5zM645 -14q-38 0 -70.5 13.5t-56.5 37.5t-38 57t-14 71t14 71t38 57t56.5 37.5t70.5 13.5t70.5 -13.5t56.5 -37.5t38 -57t14 -71t-14 -71t-38 -57t-56.5 -37.5t-70.5 -13.5zM645 57q46 0 73.5 29.5t27.5 78.5t-27.5 78.5
t-73.5 29.5t-73.5 -29.5t-27.5 -78.5t27.5 -78.5t73.5 -29.5z" />
    <glyph glyph-name="ampersand" unicode="&#x26;" horiz-adv-x="675" 
d="M484 68q-42 -42 -92.5 -62t-107.5 -20q-50 0 -91.5 14.5t-71.5 40.5t-47 61.5t-17 76.5q0 56 33.5 104.5t110.5 93.5l6 3q-47 53 -67 92t-20 79q0 34 13.5 64t38 52t59 34.5t75.5 12.5q40 0 74 -11.5t58.5 -32.5t38.5 -50.5t14 -65.5q0 -49 -29 -94t-92 -82l-32 -18
l136 -155q26 53 37 132h88q-18 -121 -65 -202l119 -135h-109zM306 631q-42 0 -68 -23t-26 -57q0 -23 13 -50t43 -61l17 -20l43 25q38 22 55.5 46.5t17.5 53.5q0 41 -27.5 63.5t-67.5 22.5zM284 72q39 0 75 15t65 45l-163 187l-7 -4q-56 -32 -77.5 -64.5t-21.5 -67.5
q0 -51 35 -81t94 -30z" />
    <glyph glyph-name="quotesingle" unicode="'" horiz-adv-x="208" 
d="M70 441l-17 273h102l-17 -273h-68z" />
    <glyph glyph-name="parenleft" unicode="(" horiz-adv-x="327" 
d="M68 312q0 120 40.5 234.5t116.5 204.5l73 -51q-28 -34 -52 -78.5t-42 -95t-28 -105.5t-10 -109t10 -109t28 -105.5t42 -95t52 -78.5l-73 -51q-76 90 -116.5 204.5t-40.5 234.5z" />
    <glyph glyph-name="parenright" unicode=")" horiz-adv-x="327" 
d="M259 312q0 -120 -41 -234.5t-116 -204.5l-73 51q28 34 52 78.5t42 95t28 105.5t10 109t-10 109t-28 105.5t-42 95t-52 78.5l73 51q75 -90 116 -204.5t41 -234.5z" />
    <glyph glyph-name="asterisk" unicode="*" horiz-adv-x="444" 
d="M222 468l-83 -123l-60 44l90 116l-141 41l23 71l138 -49l-4 146h74l-5 -147l139 50l22 -71l-140 -41l90 -116l-60 -44z" />
    <glyph glyph-name="plus" unicode="+" 
d="M311 87v188h-177v84h177v188h88v-188h177v-84h-177v-188h-88z" />
    <glyph glyph-name="comma" unicode="," horiz-adv-x="245" 
d="M42 -150l49 274h97l-72 -274h-74z" />
    <glyph glyph-name="hyphen" unicode="-" horiz-adv-x="395" 
d="M52 248v85h291v-85h-291z" />
    <glyph glyph-name="period" unicode="." horiz-adv-x="255" 
d="M128 -9q-31 0 -48.5 18.5t-17.5 48.5q0 29 17.5 46.5t48.5 17.5q30 0 47.5 -17.5t17.5 -46.5q0 -30 -17.5 -48.5t-47.5 -18.5z" />
    <glyph glyph-name="slash" unicode="/" horiz-adv-x="479" 
d="M9 -94l370 834h91l-370 -834h-91z" />
    <glyph glyph-name="zero" unicode="0" horiz-adv-x="702" 
d="M351 -14q-65 0 -117.5 24.5t-89 71t-56.5 114t-20 154.5t20 154.5t56.5 114t89 71t117.5 24.5t117.5 -24.5t89 -71t56.5 -114t20 -154.5t-20 -154.5t-56.5 -114t-89 -71t-117.5 -24.5zM351 75q88 0 135 67t47 208t-47 208t-135 67t-135.5 -67t-47.5 -208t47.5 -208
t135.5 -67z" />
    <glyph glyph-name="one" unicode="1" horiz-adv-x="431" 
d="M230 597l-182 -93v94l198 102h80v-700h-96v597z" />
    <glyph glyph-name="two" unicode="2" horiz-adv-x="584" 
d="M43 80l255 238q37 34 61 61t38.5 49.5t20 42.5t5.5 41q0 54 -32.5 84t-90.5 30q-56 0 -103.5 -30t-82.5 -96l-74 50q42 81 107.5 122.5t150.5 41.5q51 0 92.5 -14.5t71 -41t45 -63.5t15.5 -81q0 -54 -28.5 -108t-102.5 -122l-209 -195h353v-89h-492v80z" />
    <glyph glyph-name="three" unicode="3" horiz-adv-x="577" 
d="M295 402q109 -5 170.5 -55.5t61.5 -144.5q0 -49 -17.5 -88.5t-50.5 -68t-80.5 -44t-106.5 -15.5q-76 0 -139 26t-111 78l58 64q41 -42 89 -61t102 -19q77 0 117.5 35.5t40.5 95.5q0 62 -48 93.5t-161 31.5h-39v66l205 217h-327v87h442v-80z" />
    <glyph glyph-name="four" unicode="4" horiz-adv-x="621" 
d="M409 0v152h-371v80l341 468h121v-466h102v-82h-102v-152h-91zM409 234v367l-268 -367h268z" />
    <glyph glyph-name="five" unicode="5" horiz-adv-x="587" 
d="M310 436q51 0 94 -15t73.5 -43t48 -68.5t17.5 -91.5q0 -52 -18.5 -95t-52 -73.5t-81.5 -47t-108 -16.5q-144 0 -239 102l58 62q42 -41 86 -58.5t93 -17.5q79 0 122 38.5t43 104.5q0 63 -38.5 98.5t-107.5 35.5q-41 0 -76.5 -12.5t-65.5 -34.5l-77 44v352h422v-88h-330
v-213q59 37 137 37z" />
    <glyph glyph-name="six" unicode="6" horiz-adv-x="609" 
d="M332 473q49 0 92.5 -17.5t76.5 -49t52 -76.5t19 -99q0 -55 -19.5 -100t-54.5 -77t-83.5 -50t-105.5 -18q-55 0 -102.5 17.5t-82 49.5t-54 78.5t-19.5 104.5q0 64 25 131t79 137l149 196h116l-207 -261q52 34 119 34zM311 73q76 0 119.5 42t43.5 116t-43.5 116t-119.5 42
q-75 0 -118.5 -42t-43.5 -116t43.5 -116t118.5 -42z" />
    <glyph glyph-name="seven" unicode="7" horiz-adv-x="525" 
d="M100 0l298 612h-373v88h476v-83l-297 -617h-104z" />
    <glyph glyph-name="eight" unicode="8" horiz-adv-x="629" 
d="M441 359q66 -22 99.5 -66.5t33.5 -104.5q0 -42 -17 -79t-50 -64.5t-81.5 -43t-111.5 -15.5t-111 15.5t-81 43t-50 64.5t-17 79q0 60 33.5 104.5t99.5 66.5q-55 23 -84 64t-29 97q0 41 16 76.5t46.5 61.5t75 41t101.5 15t102 -15t75.5 -41t46.5 -61.5t16 -76.5
q0 -56 -29 -97t-84 -64zM314 629q-72 0 -107.5 -31.5t-35.5 -83.5t35.5 -83.5t107.5 -31.5t108 31.5t36 83.5t-36 83.5t-108 31.5zM314 73q81 0 121 34t40 87t-40 87.5t-121 34.5t-120.5 -34.5t-39.5 -87.5t39.5 -87t120.5 -34z" />
    <glyph glyph-name="nine" unicode="9" horiz-adv-x="609" 
d="M300 714q56 0 103 -17.5t81.5 -49.5t54 -78.5t19.5 -104.5q0 -64 -25 -131t-79 -137l-148 -196h-116l206 261q-52 -34 -118 -34q-49 0 -92.5 17.5t-76.5 49t-52 76.5t-19 99q0 55 19.5 100t54.5 77.5t83 50t105 17.5zM298 311q76 0 119.5 42t43.5 116t-43.5 116
t-119.5 42t-119.5 -42t-43.5 -116t43.5 -116t119.5 -42z" />
    <glyph glyph-name="colon" unicode=":" horiz-adv-x="260" 
d="M133 360q-31 0 -48.5 18.5t-17.5 48.5q0 29 17.5 47t48.5 18q30 0 47.5 -18t17.5 -47q0 -30 -17.5 -48.5t-47.5 -18.5zM133 -9q-31 0 -48.5 18.5t-17.5 48.5q0 29 17.5 46.5t48.5 17.5q30 0 47.5 -17.5t17.5 -46.5q0 -30 -17.5 -48.5t-47.5 -18.5z" />
    <glyph glyph-name="semicolon" unicode=";" horiz-adv-x="254" 
d="M131 360q-30 0 -47.5 18.5t-17.5 48.5q0 29 17.5 47t47.5 18q31 0 48.5 -18t17.5 -47q0 -30 -17.5 -48.5t-48.5 -18.5zM42 -150l49 274h97l-72 -274h-74z" />
    <glyph glyph-name="less" unicode="&#x3c;" 
d="M576 99l-442 174v88l442 174v-91l-332 -127l332 -127v-91z" />
    <glyph glyph-name="equal" unicode="=" 
d="M134 377v83h442v-83h-442zM134 174v83h442v-83h-442z" />
    <glyph glyph-name="greater" unicode="&#x3e;" 
d="M134 190l332 127l-332 127v91l442 -174v-88l-442 -174v91z" />
    <glyph glyph-name="question" unicode="?" horiz-adv-x="471" 
d="M167 267q0 25 3 44t11.5 35.5t23.5 33t38 35.5l48 40q30 25 40.5 45.5t10.5 40.5q0 40 -27 62t-73 22t-85.5 -24t-65.5 -70l-72 49q29 60 87.5 97t136.5 37q44 0 80 -12.5t62 -35t40 -53.5t14 -68q0 -39 -19.5 -75t-70.5 -79l-47 -40q-13 -11 -21.5 -20t-13.5 -18.5
t-6.5 -20.5t-1.5 -26v-46h-92v47zM213 -9q-30 0 -48 18.5t-18 48.5q0 29 18 46.5t48 17.5q31 0 48.5 -17.5t17.5 -46.5q0 -30 -17.5 -48.5t-48.5 -18.5z" />
    <glyph glyph-name="at" unicode="@" horiz-adv-x="962" 
d="M670 171q0 -44 16 -64.5t44 -20.5q43 0 70.5 44.5t27.5 125.5q0 76 -25.5 135.5t-70.5 101t-105.5 63t-129.5 21.5q-76 0 -141 -26t-112 -72.5t-73.5 -111.5t-26.5 -142q0 -78 26.5 -141.5t74.5 -109.5t114.5 -71t145.5 -25q57 0 108 12.5t86 32.5l35 -66
q-45 -27 -104.5 -42t-126.5 -15q-95 0 -176.5 31t-141 87t-93 134t-33.5 171q0 95 34.5 174.5t93.5 137t138.5 89.5t169.5 32q85 0 160.5 -28.5t132 -80t89.5 -123.5t33 -159q0 -56 -14 -102t-38 -78.5t-57 -50t-71 -17.5q-45 0 -79.5 25t-45.5 73q-16 -48 -53.5 -73
t-87.5 -25q-39 0 -72 15t-57 42.5t-37.5 65.5t-13.5 84t13.5 84t37.5 65.5t57 42.5t72 15q45 0 78 -21t50 -62v69h78v-246zM482 94q48 0 78.5 33.5t30.5 96.5t-30.5 96.5t-78.5 33.5t-79 -33.5t-31 -96.5t31 -96.5t79 -33.5z" />
    <glyph glyph-name="A" unicode="A" horiz-adv-x="716" 
d="M20 0l283 700h110l282 -700h-102l-72 184h-327l-72 -184h-102zM487 271l-129 333l-130 -333h259z" />
    <glyph glyph-name="B" unicode="B" horiz-adv-x="702" 
d="M499 361q69 -16 106.5 -59.5t37.5 -112.5q0 -86 -59 -137.5t-163 -51.5h-321v700h297q51 0 92 -13t69.5 -37t43.5 -57t15 -74q0 -59 -30.5 -99t-87.5 -59zM390 401q64 0 95.5 27.5t31.5 78.5t-31.5 78t-95.5 27h-192v-211h192zM414 88q64 0 95.5 29.5t31.5 83.5
t-31.5 83.5t-95.5 29.5h-216v-226h216z" />
    <glyph glyph-name="C" unicode="C" horiz-adv-x="757" 
d="M415 -14q-78 0 -143.5 28t-112 76.5t-72.5 115t-26 144.5q0 77 26 143.5t73 115.5t112 77t143 28q99 0 180.5 -45.5t126.5 -136.5l-82 -46q-36 70 -92 103t-127 33q-58 0 -105 -20.5t-81 -56.5t-52.5 -86t-18.5 -109t18.5 -109t52.5 -86t81 -56.5t105 -20.5
q71 0 127.5 33t92.5 103l81 -46q-45 -91 -126.5 -136.5t-180.5 -45.5z" />
    <glyph glyph-name="D" unicode="D" horiz-adv-x="774" 
d="M368 700q76 0 139.5 -23.5t109 -68.5t71 -110t25.5 -148q0 -82 -25.5 -147t-71 -110t-109 -69t-139.5 -24h-268v700h268zM368 91q113 0 177.5 66.5t64.5 192.5t-64.5 192.5t-177.5 66.5h-170v-518h170z" />
    <glyph glyph-name="E" unicode="E" horiz-adv-x="664" 
d="M100 700h483v-90h-385v-212h364v-89h-364v-219h395v-90h-493v700z" />
    <glyph glyph-name="F" unicode="F" horiz-adv-x="636" 
d="M561 302h-363v-302h-98v700h481v-90h-383v-217h363v-91z" />
    <glyph glyph-name="G" unicode="G" horiz-adv-x="779" 
d="M712 99q-41 -54 -114 -83.5t-165 -29.5q-86 0 -155 27t-117 75t-74 114.5t-26 145.5q0 81 26.5 148.5t74 115.5t113.5 75t145 27q93 0 164 -36t113 -101l-75 -54q-32 49 -83.5 74t-117.5 25q-58 0 -105.5 -19.5t-81 -55.5t-52 -87t-18.5 -113q0 -63 19 -113.5t54 -85
t85 -53t111 -18.5q62 0 110 16.5t75 42.5v154h-180v88h274v-279z" />
    <glyph glyph-name="H" unicode="H" horiz-adv-x="780" 
d="M582 313h-384v-313h-98v700h98v-295h384v295h99v-700h-99v313z" />
    <glyph glyph-name="I" unicode="I" horiz-adv-x="302" 
d="M102 0v700h98v-700h-98z" />
    <glyph glyph-name="J" unicode="J" horiz-adv-x="587" 
d="M246 -14q-69 0 -126.5 25t-96.5 73l61 67q62 -73 158 -73q73 0 115 45t42 134v443h98v-450q0 -61 -17.5 -110t-50 -83t-79 -52.5t-104.5 -18.5z" />
    <glyph glyph-name="K" unicode="K" horiz-adv-x="695" 
d="M100 0v700h98v-303h107l245 303h117l-286 -350l296 -350h-119l-257 306h-103v-306h-98z" />
    <glyph glyph-name="L" unicode="L" horiz-adv-x="595" 
d="M100 700h98v-609h366v-91h-464v700z" />
    <glyph glyph-name="M" unicode="M" horiz-adv-x="937" 
d="M741 551l-233 -371h-80l-233 371v-551h-95v700h107l262 -417l261 417h107v-700h-96v551z" />
    <glyph glyph-name="N" unicode="N" horiz-adv-x="792" 
d="M196 544v-544h-96v700h91l406 -544v544h96v-700h-92z" />
    <glyph glyph-name="O" unicode="O" horiz-adv-x="841" 
d="M420 -14q-79 0 -145.5 28.5t-113.5 77.5t-73.5 115.5t-26.5 142.5t26.5 142.5t73.5 115.5t113.5 77.5t145.5 28.5q80 0 146 -28.5t113.5 -77.5t74 -115.5t26.5 -142.5t-26.5 -142.5t-74 -115.5t-113.5 -77.5t-146 -28.5zM420 78q57 0 104.5 20.5t81.5 56.5t52.5 86
t18.5 109t-18.5 109t-52.5 86t-81.5 56.5t-104.5 20.5t-104 -20.5t-81 -56.5t-52.5 -86t-18.5 -109t18.5 -109t52.5 -86t81 -56.5t104 -20.5z" />
    <glyph glyph-name="P" unicode="P" horiz-adv-x="673" 
d="M387 700q117 0 178.5 -58.5t61.5 -161.5t-61.5 -161t-178.5 -58h-189v-261h-98v700h287zM380 351q77 0 111 31t34 98q0 68 -34 99t-111 31h-182v-259h182z" />
    <glyph glyph-name="Q" unicode="Q" horiz-adv-x="841" 
d="M780 350q0 -85 -32 -156.5t-90 -122.5l88 -108l-68 -54l-92 114q-76 -37 -166 -37q-79 0 -145.5 28.5t-113.5 77.5t-73.5 115.5t-26.5 142.5t26.5 142.5t73.5 115.5t113.5 77.5t145.5 28.5q80 0 146 -28.5t113.5 -77.5t74 -115.5t26.5 -142.5zM420 78q56 0 105 20
l-111 137l68 54l115 -143q38 37 59 89t21 115q0 59 -18.5 109t-52.5 86t-81.5 56.5t-104.5 20.5t-104 -20.5t-81 -56.5t-52.5 -86t-18.5 -109t18.5 -109t52.5 -86t81 -56.5t104 -20.5z" />
    <glyph glyph-name="R" unicode="R" horiz-adv-x="695" 
d="M100 0v700h292q113 0 175.5 -57.5t62.5 -158.5q0 -94 -55.5 -148.5t-156.5 -61.5l228 -274h-118l-224 273h-106v-273h-98zM384 361q77 0 110 30t33 93q0 64 -33 95t-110 31h-186v-249h186z" />
    <glyph glyph-name="S" unicode="S" horiz-adv-x="638" 
d="M329 -14q-108 0 -181 43.5t-105 118.5l77 47q29 -59 83.5 -89.5t127.5 -30.5q76 0 118.5 31.5t42.5 84.5q0 40 -28 66t-92 42l-113 27q-195 47 -195 189q0 44 17.5 80.5t50.5 62.5t80 41t106 15q97 0 164 -35.5t94 -92.5l-75 -49q-26 43 -73.5 65.5t-110.5 22.5
q-73 0 -113 -29t-40 -80q0 -38 26.5 -62.5t95.5 -40.5l113 -28q103 -24 148.5 -71t45.5 -119q0 -46 -17.5 -84.5t-51.5 -66.5t-83 -43t-112 -15z" />
    <glyph glyph-name="T" unicode="T" horiz-adv-x="608" 
d="M583 700v-91h-230v-609h-98v609h-230v91h558z" />
    <glyph glyph-name="U" unicode="U" horiz-adv-x="754" 
d="M377 -14q-66 0 -119.5 18t-90.5 52t-57 83.5t-20 112.5v448h98v-439q0 -183 189 -183t189 183v439h98v-448q0 -63 -20 -112.5t-57 -83.5t-90.5 -52t-119.5 -18z" />
    <glyph glyph-name="V" unicode="V" horiz-adv-x="696" 
d="M20 700h103l225 -584l225 584h103l-276 -700h-104z" />
    <glyph glyph-name="W" unicode="W" horiz-adv-x="1049" 
d="M525 568l-180 -568h-102l-215 700h99l171 -564l178 564h97l178 -566l171 566h99l-216 -700h-101z" />
    <glyph glyph-name="X" unicode="X" horiz-adv-x="652" 
d="M22 0l243 359l-232 341h106l187 -276l187 276h106l-232 -342l243 -358h-109l-195 290l-195 -290h-109z" />
    <glyph glyph-name="Y" unicode="Y" horiz-adv-x="647" 
d="M274 0v288l-268 412h111l207 -325l206 325h111l-268 -412v-288h-99z" />
    <glyph glyph-name="Z" unicode="Z" horiz-adv-x="608" 
d="M45 75l390 536h-377v89h499v-75l-390 -536h396v-89h-518v75z" />
    <glyph glyph-name="bracketleft" unicode="[" horiz-adv-x="372" 
d="M337 -116h-237v856h237v-79h-146v-698h146v-79z" />
    <glyph glyph-name="backslash" unicode="\" horiz-adv-x="479" 
d="M470 -94h-91l-370 834h91z" />
    <glyph glyph-name="bracketright" unicode="]" horiz-adv-x="372" 
d="M35 -37h146v698h-146v79h237v-856h-237v79z" />
    <glyph glyph-name="asciicircum" unicode="^" horiz-adv-x="521" 
d="M33 398l185 278h85l185 -278h-106l-121 191l-122 -191h-106z" />
    <glyph glyph-name="underscore" unicode="_" horiz-adv-x="436" 
d="M0 -127v74h436v-74h-436z" />
    <glyph glyph-name="grave" unicode="`" horiz-adv-x="620" 
d="M357 591h-97l-131 150h115z" />
    <glyph glyph-name="a" unicode="a" horiz-adv-x="654" 
d="M474 90q-22 -48 -71 -76t-112 -28q-52 0 -96 19.5t-76 55t-50 84.5t-18 108q0 60 18 109t50 84.5t76 55t96 19.5q63 0 112 -28t71 -76v90h94v-507h-94v90zM314 73q37 0 67.5 13.5t52 37.5t33 57t11.5 72q0 40 -11.5 73t-33 57t-52 37.5t-67.5 13.5t-67.5 -13.5
t-52.5 -37.5t-33.5 -57t-11.5 -73q0 -39 11.5 -72t33.5 -57t52.5 -37.5t67.5 -13.5z" />
    <glyph glyph-name="b" unicode="b" horiz-adv-x="654" 
d="M364 521q52 0 95.5 -19.5t75 -55t49.5 -84.5t18 -109q0 -59 -18 -108t-49.5 -84.5t-75 -55t-95.5 -19.5q-63 0 -112.5 28t-71.5 76v-90h-94v732h94v-315q22 48 71.5 76t112.5 28zM340 73q38 0 68 13.5t52 37.5t33.5 57t11.5 72q0 40 -11.5 73t-33.5 57t-52 37.5t-68 13.5
q-37 0 -67.5 -13.5t-52 -37.5t-33 -57t-11.5 -73q0 -39 11.5 -72t33 -57t52 -37.5t67.5 -13.5z" />
    <glyph glyph-name="c" unicode="c" horiz-adv-x="560" 
d="M313 -14q-58 0 -106.5 20t-83 55.5t-53.5 84.5t-19 107q0 59 19 108t53.5 84.5t83 55.5t106.5 20q71 0 126.5 -29t87.5 -83l-73 -50q-23 36 -59 55.5t-81 19.5q-37 0 -67 -13t-52 -36.5t-34 -57t-12 -74.5q0 -82 45.5 -131t119.5 -49q93 0 140 75l73 -51
q-32 -53 -87.5 -82t-126.5 -29z" />
    <glyph glyph-name="d" unicode="d" horiz-adv-x="654" 
d="M474 90q-23 -48 -72 -76t-112 -28q-52 0 -95.5 19.5t-75.5 55t-50 84.5t-18 108q0 60 18 109t50 84.5t75.5 55t95.5 19.5q63 0 112 -28t72 -76v315h94v-732h-94v90zM314 73q37 0 67.5 13.5t52 37.5t33 57t11.5 72q0 40 -11.5 73t-33 57t-52 37.5t-67.5 13.5t-67.5 -13.5
t-52.5 -37.5t-33.5 -57t-11.5 -73q0 -39 11.5 -72t33.5 -57t52.5 -37.5t67.5 -13.5z" />
    <glyph glyph-name="e" unicode="e" horiz-adv-x="598" 
d="M548 270q0 -22 -3 -45h-398q8 -73 52.5 -113.5t116.5 -40.5q95 0 157 75l61 -54q-37 -51 -93 -78.5t-127 -27.5q-58 0 -106.5 19.5t-83.5 54.5t-54 84t-19 108t18.5 108t52.5 85t80.5 56t103.5 20q53 0 97.5 -18t76.5 -51t50 -79.5t18 -102.5zM306 435q-66 0 -106 -37
t-51 -101h304q-6 67 -45.5 102.5t-101.5 35.5z" />
    <glyph glyph-name="f" unicode="f" horiz-adv-x="386" 
d="M128 507v74q0 82 39.5 121t122.5 39q17 0 36.5 -2t42.5 -7v-79q-39 6 -65 6q-43 0 -62.5 -19t-19.5 -63v-70h145v-81h-145v-426h-94v426h-103v81h103z" />
    <glyph glyph-name="g" unicode="g" horiz-adv-x="654" 
d="M568 58q0 -133 -69 -202.5t-197 -69.5q-73 0 -133 22t-99 61l51 69q35 -31 81 -48.5t98 -17.5q84 0 129 46t45 140v44q-22 -47 -71 -74t-112 -27q-52 0 -96 19t-76 53.5t-50 82t-18 105.5q0 57 18 105t50 82.5t76 53.5t96 19q63 0 112 -27.5t71 -75.5v89h94v-449zM314 87
q37 0 67.5 13t52 36t33 55t11.5 70t-11.5 69.5t-33 54.5t-52 36t-67.5 13t-67.5 -13t-52.5 -36t-33.5 -54.5t-11.5 -69.5t11.5 -70t33.5 -55t52.5 -36t67.5 -13z" />
    <glyph glyph-name="h" unicode="h" horiz-adv-x="615" 
d="M353 521q85 0 132.5 -50.5t47.5 -144.5v-326h-94v303q0 69 -27 100t-84 31q-64 0 -106 -36t-42 -99v-299h-94v732h94v-308q22 47 67.5 72t105.5 25z" />
    <glyph glyph-name="i" unicode="i" horiz-adv-x="268" 
d="M134 607q-28 0 -45.5 18t-17.5 45t17.5 45t45.5 18q29 0 46 -18t17 -45t-17 -45t-46 -18zM87 0v507h94v-507h-94z" />
    <glyph glyph-name="j" unicode="j" horiz-adv-x="268" 
d="M134 607q-28 0 -45.5 18t-17.5 45t17.5 45t45.5 18q29 0 46 -18t17 -45t-17 -45t-46 -18zM-35 -125q25 -6 47 -6q42 0 58.5 20t16.5 58v560h94v-573q0 -71 -37.5 -110t-118.5 -39q-29 0 -60 6v84z" />
    <glyph glyph-name="k" unicode="k" horiz-adv-x="557" 
d="M86 0v732h94v-424h80l169 199h110l-205 -241l209 -266h-110l-176 225h-77v-225h-94z" />
    <glyph glyph-name="l" unicode="l" horiz-adv-x="266" 
d="M86 0v732h94v-732h-94z" />
    <glyph glyph-name="m" unicode="m" horiz-adv-x="934" 
d="M679 521q84 0 128 -50t44 -144v-327h-94v305q0 67 -24 98t-78 31q-61 0 -100 -36t-39 -99v-299h-94v305q0 67 -24.5 98t-78.5 31q-61 0 -100 -36t-39 -99v-299h-94v507h94v-83q21 46 64.5 71.5t100.5 25.5q58 0 98 -26.5t58 -77.5q20 48 67 76t111 28z" />
    <glyph glyph-name="n" unicode="n" horiz-adv-x="615" 
d="M353 521q85 0 132.5 -50.5t47.5 -144.5v-326h-94v303q0 69 -27 100t-84 31q-64 0 -106 -36t-42 -99v-299h-94v507h94v-83q22 47 67.5 72t105.5 25z" />
    <glyph glyph-name="o" unicode="o" horiz-adv-x="627" 
d="M314 -14q-60 0 -108.5 21.5t-83 58t-53 85t-18.5 102.5t18.5 103t53 85.5t83 58t108.5 21.5t108 -21.5t82.5 -58t53 -85.5t18.5 -103t-18.5 -102.5t-53 -85t-82.5 -58t-108 -21.5zM314 73q37 0 67.5 13.5t52 37.5t33 57t11.5 72q0 40 -11.5 73t-33 57t-52 37.5
t-67.5 13.5t-67.5 -13.5t-52.5 -37.5t-33.5 -57t-11.5 -73q0 -39 11.5 -72t33.5 -57t52.5 -37.5t67.5 -13.5z" />
    <glyph glyph-name="p" unicode="p" horiz-adv-x="654" 
d="M364 521q52 0 95.5 -19.5t75 -55t49.5 -84.5t18 -109q0 -59 -18 -108t-49.5 -84.5t-75 -55t-95.5 -19.5q-63 0 -112.5 28t-71.5 76v-290h-94v707h94v-90q22 48 71.5 76t112.5 28zM340 73q38 0 68 13.5t52 37.5t33.5 57t11.5 72q0 40 -11.5 73t-33.5 57t-52 37.5t-68 13.5
q-37 0 -67.5 -13.5t-52 -37.5t-33 -57t-11.5 -73q0 -39 11.5 -72t33 -57t52 -37.5t67.5 -13.5z" />
    <glyph glyph-name="q" unicode="q" horiz-adv-x="654" 
d="M474 90q-23 -48 -72 -76t-112 -28q-52 0 -95.5 19.5t-75.5 55t-50 84.5t-18 108q0 60 18 109t50 84.5t75.5 55t95.5 19.5q63 0 112 -28t72 -76v90h94v-707h-94v290zM314 73q37 0 67.5 13.5t52 37.5t33 57t11.5 72q0 40 -11.5 73t-33 57t-52 37.5t-67.5 13.5t-67.5 -13.5
t-52.5 -37.5t-33.5 -57t-11.5 -73q0 -39 11.5 -72t33.5 -57t52.5 -37.5t67.5 -13.5z" />
    <glyph glyph-name="r" unicode="r" horiz-adv-x="407" 
d="M333 515q25 0 45 -7v-85q-12 2 -24 3t-23 1q-71 0 -111 -40.5t-40 -129.5v-257h-94v507h94v-91q18 47 58 73t95 26z" />
    <glyph glyph-name="s" unicode="s" horiz-adv-x="514" 
d="M267 -14q-78 0 -137.5 29t-89.5 78l62 53q29 -38 71.5 -57.5t93.5 -19.5q52 0 80.5 19.5t28.5 51.5q0 25 -18.5 41t-65.5 27l-81 18q-79 19 -116 53.5t-37 88.5q0 67 53 110t148 43q68 0 119.5 -22.5t83.5 -62.5l-60 -57q-55 58 -147 58q-52 0 -77.5 -18t-25.5 -48
q0 -23 17.5 -38t67.5 -26l89 -20q78 -17 111 -52.5t33 -87.5q0 -73 -53 -117t-150 -44z" />
    <glyph glyph-name="t" unicode="t" horiz-adv-x="413" 
d="M283 -8q-158 0 -158 143v291h-100v81h100v150h94v-150h155v-81h-155v-282q0 -38 18.5 -53.5t60.5 -15.5q35 0 78 9v-79q-25 -8 -49 -10.5t-44 -2.5z" />
    <glyph glyph-name="u" unicode="u" horiz-adv-x="595" 
d="M297 -14q-50 0 -91 14.5t-70 41.5t-44.5 64.5t-15.5 83.5v317h94v-310q0 -62 33.5 -93t93.5 -31q61 0 94 31t33 93v310h94v-317q0 -46 -15.5 -83.5t-44.5 -64.5t-69.5 -41.5t-91.5 -14.5z" />
    <glyph glyph-name="v" unicode="v" horiz-adv-x="542" 
d="M17 507h100l154 -404l153 404h101l-204 -507h-101z" />
    <glyph glyph-name="w" unicode="w" horiz-adv-x="837" 
d="M418 397l-130 -397h-103l-164 507h95l123 -395l130 395h99l129 -394l124 394h95l-164 -507h-104z" />
    <glyph glyph-name="x" unicode="x" horiz-adv-x="523" 
d="M19 0l181 260l-171 247h105l128 -188l128 188h105l-171 -247l181 -260h-106l-137 198l-137 -198h-106z" />
    <glyph glyph-name="y" unicode="y" horiz-adv-x="607" 
d="M521 50q0 -130 -66 -197t-185 -67q-65 0 -120.5 19.5t-91.5 55.5l51 67q32 -28 73 -42t84 -14q77 0 119 43.5t42 134.5v48q-22 -47 -68.5 -72t-106.5 -25q-83 0 -130.5 49.5t-47.5 145.5v311h94v-288q0 -70 27.5 -100.5t82.5 -30.5q66 0 107.5 36.5t41.5 98.5v284h94
v-457z" />
    <glyph glyph-name="z" unicode="z" horiz-adv-x="504" 
d="M48 69l287 356h-279v82h396v-70l-287 -355h291v-82h-408v69z" />
    <glyph glyph-name="braceleft" unicode="{" horiz-adv-x="364" 
d="M205 420q0 -85 -75 -108q75 -22 75 -108v-184q0 -30 14.5 -43.5t43.5 -13.5h67v-79h-79q-72 0 -104.5 30.5t-32.5 99.5v200q0 58 -64 58h-12v80h12q64 0 64 58v200q0 69 32.5 99.5t104.5 30.5h79v-79h-67q-29 0 -43.5 -13.5t-14.5 -43.5v-184z" />
    <glyph glyph-name="bar" unicode="|" horiz-adv-x="325" 
d="M120 -100v865h85v-865h-85z" />
    <glyph glyph-name="braceright" unicode="}" horiz-adv-x="364" 
d="M315 272q-64 0 -64 -58v-200q0 -69 -33 -99.5t-105 -30.5h-79v79h67q29 0 43.5 13.5t14.5 43.5v184q0 86 75 108q-75 23 -75 108v184q0 30 -14.5 43.5t-43.5 13.5h-67v79h79q72 0 105 -30.5t33 -99.5v-200q0 -58 64 -58h11v-80h-11z" />
    <glyph glyph-name="asciitilde" unicode="~" 
d="M134 255v84q29 21 59 30.5t59 9.5q26 0 52.5 -6.5t52.5 -15t51.5 -15t50.5 -6.5q32 0 63.5 12t53.5 30v-84q-29 -20 -56.5 -30t-59.5 -10q-27 0 -53 6.5t-52 15t-52 15t-53 6.5q-29 0 -56 -9.5t-60 -32.5z" />
    <glyph glyph-name="uni00A0" unicode="&#xa0;" horiz-adv-x="229" 
 />
    <glyph glyph-name="exclamdown" unicode="&#xa1;" horiz-adv-x="294" 
d="M147 508q30 0 48 -18.5t18 -47.5t-18 -47t-48 -18t-48 18t-18 47t18 47.5t48 18.5zM108 280h78l12 -480h-102z" />
    <glyph glyph-name="cent" unicode="&#xa2;" horiz-adv-x="562" 
d="M334 170q77 9 118 76l72 -52q-29 -49 -78 -77t-112 -33v-134h-60v135q-51 6 -92.5 27.5t-71 56.5t-45.5 81t-16 100t16 100t45.5 81t71 56.5t92.5 27.5v135h60v-134q63 -5 112 -33t78 -77l-72 -52q-41 67 -118 76v-360zM144 350q0 -72 35 -119t95 -58v354
q-60 -11 -95 -58t-35 -119z" />
    <glyph glyph-name="sterling" unicode="&#xa3;" horiz-adv-x="545" 
d="M32 0v88h72v219h-76v76h76v122q0 97 53 153t153 56q68 0 121.5 -29t86.5 -88l-74 -49q-23 40 -57 58.5t-76 18.5q-56 0 -83.5 -32t-27.5 -93v-117h240v-76h-240v-219h318v-88h-486z" />
    <glyph glyph-name="currency" unicode="&#xa4;" horiz-adv-x="669" 
d="M597 350q0 -44 -12 -84t-35 -73l76 -77l-58 -57l-74 74q-32 -23 -72 -36.5t-87 -13.5q-48 0 -87.5 13.5t-71.5 37.5l-75 -75l-58 57l76 77q-23 33 -35 73t-12 84t12 84t35 73l-76 77l58 57l75 -75q32 24 71.5 37.5t87.5 13.5q47 0 87 -13.5t72 -36.5l74 74l58 -57
l-76 -77q23 -33 35 -73t12 -84zM335 169q39 0 70.5 13t54 37t35 57.5t12.5 73.5t-12.5 73.5t-35 57.5t-54 37t-70.5 13t-71 -13t-54.5 -37t-35 -57.5t-12.5 -73.5t12.5 -73.5t35 -57.5t54.5 -37t71 -13z" />
    <glyph glyph-name="yen" unicode="&#xa5;" horiz-adv-x="590" 
d="M343 283v-85h178v-67h-178v-131h-96v131h-178v67h178v85h-178v66h146l-205 351h105l180 -319l180 319h105l-205 -351h146v-66h-178z" />
    <glyph glyph-name="brokenbar" unicode="&#xa6;" horiz-adv-x="325" 
d="M120 406v359h85v-359h-85zM120 -100v351h85v-351h-85z" />
    <glyph glyph-name="section" unicode="&#xa7;" horiz-adv-x="547" 
d="M399 169q50 -21 71.5 -53.5t21.5 -77.5q0 -76 -54.5 -122t-156.5 -46q-78 0 -137.5 28t-90.5 79l62 53q29 -40 72.5 -58t94.5 -18q55 0 85.5 20.5t30.5 58.5q0 28 -19 47t-70 30l-81 19q-160 36 -160 154q0 48 25.5 83.5t71.5 49.5q-49 23 -71 56.5t-22 77.5
q0 73 54.5 118.5t152.5 45.5q67 0 119 -22.5t84 -62.5l-58 -59q-54 60 -150 60q-107 0 -107 -80q0 -30 18.5 -47.5t69.5 -28.5l88 -20q78 -18 114.5 -54.5t36.5 -93.5q0 -49 -25 -85.5t-70 -51.5zM160 293q0 -33 20 -53t75 -33l35 -8v1q22 -5 42.5 -0.5t36 17t25 32
t9.5 44.5q0 33 -21 53t-73 32l-43 9q-20 3 -39 -1.5t-34 -16.5t-24 -31t-9 -45z" />
    <glyph glyph-name="dieresis" unicode="&#xa8;" horiz-adv-x="620" 
d="M201 607q-28 0 -45.5 18t-17.5 45t17.5 45t45.5 18t45.5 -18t17.5 -45t-17.5 -45t-45.5 -18zM419 607q-28 0 -45.5 18t-17.5 45t17.5 45t45.5 18t45.5 -18t17.5 -45t-17.5 -45t-45.5 -18z" />
    <glyph glyph-name="copyright" unicode="&#xa9;" horiz-adv-x="852" 
d="M426 -14q-76 0 -143 28.5t-116 78t-77.5 115.5t-28.5 142t28.5 142t77.5 115.5t116 78t143 28.5q77 0 143.5 -28.5t115.5 -78t77.5 -115.5t28.5 -142t-28.5 -142t-77.5 -115.5t-115.5 -78t-143.5 -28.5zM426 55q62 0 115 23.5t91.5 63.5t60.5 93.5t22 114.5t-22 114.5
t-60.5 93.5t-91.5 63.5t-115 23.5t-115 -23.5t-92 -63.5t-61 -93.5t-22 -114.5t22 -114.5t61 -93.5t92 -63.5t115 -23.5zM433 150q-45 0 -81.5 14.5t-62.5 41t-40 63.5t-14 81t14 81t40 63.5t62.5 41.5t81.5 15q56 0 98.5 -22.5t66.5 -64.5l-65 -46q-34 54 -99 54
q-50 0 -80.5 -32.5t-30.5 -89.5q0 -56 30.5 -89t80.5 -33q65 0 99 54l65 -45q-24 -42 -66.5 -64.5t-98.5 -22.5z" />
    <glyph glyph-name="ordfeminine" unicode="&#xaa;" horiz-adv-x="538" 
d="M393 371q-18 -38 -58 -59.5t-91 -21.5q-43 0 -79.5 16t-62.5 46t-41 71.5t-15 92.5t15 92.5t41 71t62.5 45.5t79.5 16q51 0 90.5 -21.5t58.5 -59.5v70h92v-429h-92v70zM269 370q62 0 96.5 40t34.5 106q0 65 -34.5 105t-96.5 40q-61 0 -96 -39.5t-35 -105.5t34.5 -106
t96.5 -40z" />
    <glyph glyph-name="guillemotleft" unicode="&#xab;" horiz-adv-x="556" 
d="M37 254l151 215h104l-150 -215l150 -215h-104zM259 254l151 215h104l-150 -215l150 -215h-104z" />
    <glyph glyph-name="logicalnot" unicode="&#xac;" 
d="M489 275h-355v84h442v-188h-87v104z" />
    <glyph glyph-name="registered" unicode="&#xae;" horiz-adv-x="560" 
d="M281 715q46 0 85.5 -17t69 -46.5t46.5 -69.5t17 -86q0 -45 -17 -85t-46.5 -69.5t-69 -46.5t-85.5 -17t-86 17t-70 46.5t-47 69.5t-17 85q0 46 17 86t47 69.5t70 46.5t86 17zM281 322q36 0 67.5 13.5t54 37.5t35.5 55.5t13 67.5t-13 68t-35.5 56t-54 37.5t-67.5 13.5
q-37 0 -68.5 -13.5t-54.5 -37.5t-36 -56t-13 -68t13 -67.5t36 -55.5t54.5 -37.5t68.5 -13.5zM381 538q0 -60 -55 -72l61 -82h-68l-53 79h-16v-79h-60v231h105q86 0 86 -77zM291 512q28 0 28 25t-28 25h-41v-50h41z" />
    <glyph glyph-name="macron" unicode="&#xaf;" horiz-adv-x="620" 
d="M156 612v75h308v-75h-308z" />
    <glyph glyph-name="degree" unicode="&#xb0;" horiz-adv-x="378" 
d="M189 417q-33 0 -60.5 11.5t-48 31t-31.5 47t-11 58.5q0 32 11 59t31.5 47t48 31.5t60.5 11.5t60.5 -11.5t48 -31.5t31.5 -47t11 -59q0 -31 -11 -58.5t-31.5 -47t-48 -31t-60.5 -11.5zM189 488q35 0 55.5 21.5t20.5 55.5t-20.5 56t-55.5 22t-55.5 -22t-20.5 -56
t20.5 -55.5t55.5 -21.5z" />
    <glyph glyph-name="plusminus" unicode="&#xb1;" 
d="M399 161h-88v176h-177v83h177v176h88v-176h177v-83h-177v-176zM134 0v83h442v-83h-442z" />
    <glyph glyph-name="uni00B2" unicode="&#xb2;" horiz-adv-x="330" 
d="M29 413l136 128q32 30 44.5 48.5t12.5 35.5q0 20 -14 31.5t-37 11.5q-25 0 -46.5 -15.5t-37.5 -47.5l-62 37q18 45 56.5 71.5t89.5 26.5q58 0 94 -32t36 -80q0 -56 -63 -113l-94 -88h161v-72h-276v58z" />
    <glyph glyph-name="uni00B3" unicode="&#xb3;" horiz-adv-x="328" 
d="M193 573q54 -6 82 -32.5t28 -72.5q0 -54 -38 -87t-106 -33q-90 0 -142 57l44 53q21 -21 45 -30.5t49 -9.5q34 0 51.5 14.5t17.5 38.5q0 25 -20.5 38t-71.5 13h-25v50l86 91h-154v70h247v-63z" />
    <glyph glyph-name="acute" unicode="&#xb4;" horiz-adv-x="620" 
d="M267 591l113 150h115l-131 -150h-97z" />
    <glyph glyph-name="uni00B5" unicode="&#xb5;" horiz-adv-x="619" 
d="M441 83q-20 -46 -62 -71.5t-93 -25.5q-32 0 -59 11.5t-47 37.5v-255h-94v727h94v-303q0 -69 27.5 -100t84.5 -31q63 0 105 38.5t42 116.5v279h94v-507h-92v83z" />
    <glyph glyph-name="paragraph" unicode="&#xb6;" horiz-adv-x="652" 
d="M232 398q-85 0 -132 42.5t-47 108.5t48.5 108.5t141.5 42.5h93v-830h-90v528h-14zM442 -130v830h90v-830h-90z" />
    <glyph glyph-name="periodcentered" unicode="&#xb7;" horiz-adv-x="255" 
d="M128 295q-31 0 -48.5 18.5t-17.5 48.5q0 29 17.5 46.5t48.5 17.5q30 0 47.5 -17.5t17.5 -46.5q0 -30 -17.5 -48.5t-47.5 -18.5z" />
    <glyph glyph-name="cedilla" unicode="&#xb8;" horiz-adv-x="620" 
d="M198 -192l79 212h81l-61 -212h-99z" />
    <glyph glyph-name="uni00B9" unicode="&#xb9;" horiz-adv-x="243" 
d="M116 651l-90 -45v75l101 52h66v-378h-77v296z" />
    <glyph glyph-name="ordmasculine" unicode="&#xba;" horiz-adv-x="543" 
d="M271 285q-51 0 -93 18t-71 49t-45 72.5t-16 88.5t16 88.5t45 72t71 48.5t93 18q52 0 93.5 -18t71 -48.5t45 -72t15.5 -88.5t-15.5 -88.5t-45 -72.5t-71 -49t-93.5 -18zM271 366q61 0 97 41t36 106q0 64 -36 105t-97 41t-97 -41t-36 -105q0 -65 36 -106t97 -41z" />
    <glyph glyph-name="guillemotright" unicode="&#xbb;" horiz-adv-x="556" 
d="M192 254l-150 215h104l151 -215l-151 -215h-104zM414 254l-150 215h104l151 -215l-151 -215h-104z" />
    <glyph glyph-name="onequarter" unicode="&#xbc;" horiz-adv-x="684" 
d="M135 707h66v-378h-77v296l-90 -45v75zM529 700h91l-490 -700h-91zM531 -7v75h-192v65l176 238h89v-238h46v-65h-46v-75h-73zM531 133v155l-115 -155h115z" />
    <glyph glyph-name="onehalf" unicode="&#xbd;" horiz-adv-x="718" 
d="M135 707h66v-378h-77v296l-90 -45v75zM529 700h91l-490 -700h-91zM403 51l136 128q32 30 44.5 48.5t12.5 35.5q0 20 -14 31.5t-37 11.5q-25 0 -47 -15.5t-37 -47.5l-62 37q18 45 56.5 71.5t89.5 26.5q58 0 94 -32t36 -80q0 -56 -63 -113l-94 -88h161v-72h-276v58z" />
    <glyph glyph-name="threequarters" unicode="&#xbe;" horiz-adv-x="756" 
d="M314 442q0 -54 -38 -87t-105 -33q-90 0 -142 57l44 53q21 -21 44.5 -30.5t49.5 -9.5q34 0 51 14.5t17 38.5q0 25 -20 38t-71 13h-25v50l86 91h-155v70h248v-63l-93 -97q53 -6 81 -32.5t28 -72.5zM601 700h91l-490 -700h-91zM603 -7v75h-192v65l175 238h90v-238h46v-65
h-46v-75h-73zM603 133v155l-115 -155h115z" />
    <glyph glyph-name="questiondown" unicode="&#xbf;" horiz-adv-x="471" 
d="M258 508q31 0 48.5 -18.5t17.5 -47.5t-17.5 -47t-48.5 -18q-30 0 -47.5 18t-17.5 47t17.5 47.5t47.5 18.5zM305 233q0 -25 -3.5 -44t-12 -35.5t-23.5 -32.5t-38 -36l-48 -40q-30 -26 -40.5 -46.5t-10.5 -40.5q0 -39 27 -61.5t73 -22.5t85.5 24t65.5 71l73 -50
q-29 -60 -88 -96.5t-136 -36.5q-44 0 -80.5 12.5t-62 35t-39.5 53.5t-14 68q0 39 19 75t70 79l48 40q13 11 21.5 19.5t13 18t6 20.5t1.5 27v46h93v-47z" />
    <glyph glyph-name="Agrave" unicode="&#xc0;" horiz-adv-x="716" 
d="M436 784h-97l-131 150h115zM20 0l283 700h110l282 -700h-102l-72 184h-327l-72 -184h-102zM487 271l-129 333l-130 -333h259z" />
    <glyph glyph-name="Aacute" unicode="&#xc1;" horiz-adv-x="716" 
d="M511 934l-131 -150h-97l113 150h115zM20 0l283 700h110l282 -700h-102l-72 184h-327l-72 -184h-102zM487 271l-129 333l-130 -333h259z" />
    <glyph glyph-name="Acircumflex" unicode="&#xc2;" horiz-adv-x="716" 
d="M402 934l138 -150h-95l-87 95l-87 -95h-95l138 150h88zM20 0l283 700h110l282 -700h-102l-72 184h-327l-72 -184h-102zM487 271l-129 333l-130 -333h259z" />
    <glyph glyph-name="Atilde" unicode="&#xc3;" horiz-adv-x="716" 
d="M293 857q-14 0 -23.5 -15t-9.5 -46h-67q0 63 24.5 97t67.5 34q24 0 43 -9.5t46 -31.5q21 -17 30 -21.5t19 -4.5q14 0 23.5 14.5t9.5 46.5h67q0 -63 -24.5 -97t-67.5 -34q-20 0 -39.5 8t-49.5 33q-20 15 -29.5 20.5t-19.5 5.5zM20 0l283 700h110l282 -700h-102l-72 184
h-327l-72 -184h-102zM487 271l-129 333l-130 -333h259z" />
    <glyph glyph-name="Adieresis" unicode="&#xc4;" horiz-adv-x="716" 
d="M249 800q-28 0 -45.5 18t-17.5 45t17.5 45t45.5 18t45.5 -18t17.5 -45t-17.5 -45t-45.5 -18zM467 800q-28 0 -45.5 18t-17.5 45t17.5 45t45.5 18t45.5 -18t17.5 -45t-17.5 -45t-45.5 -18zM20 0l283 700h110l282 -700h-102l-72 184h-327l-72 -184h-102zM487 271l-129 333
l-130 -333h259z" />
    <glyph glyph-name="Aring" unicode="&#xc5;" horiz-adv-x="716" 
d="M358 771q-27 0 -50 9.5t-40 25.5t-26.5 37.5t-9.5 46.5t9.5 47t26.5 38t40 25.5t50 9.5t50 -9.5t40 -25.5t26.5 -38t9.5 -47t-9.5 -46.5t-26.5 -37.5t-40 -25.5t-50 -9.5zM358 948q-27 0 -42.5 -16t-15.5 -42q0 -25 15.5 -41t42.5 -16t42.5 16t15.5 41q0 26 -15.5 42
t-42.5 16zM20 0l283 700h110l282 -700h-102l-72 184h-327l-72 -184h-102zM487 271l-129 333l-130 -333h259z" />
    <glyph glyph-name="AE" unicode="&#xc6;" horiz-adv-x="1101" 
d="M537 172h-293l-117 -172h-113l480 700h527v-90h-386v-211h367v-91h-367v-218h396v-90h-494v172zM537 260v342l-233 -342h233z" />
    <glyph glyph-name="Ccedilla" unicode="&#xc7;" horiz-adv-x="757" 
d="M421 78q71 0 127.5 33t92.5 103l81 -46q-42 -85 -115 -130t-164 -51l-51 -179h-99l68 182q-67 9 -122.5 40t-95 78.5t-61 109t-21.5 132.5q0 77 26 143.5t73 115.5t112 77t143 28q99 0 180.5 -45.5t126.5 -136.5l-82 -46q-36 70 -92 103t-127 33q-58 0 -105 -20.5
t-81 -56.5t-52.5 -86t-18.5 -109t18.5 -109t52.5 -86t81 -56.5t105 -20.5z" />
    <glyph glyph-name="Egrave" unicode="&#xc8;" horiz-adv-x="664" 
d="M414 784h-97l-131 150h115zM100 700h483v-90h-385v-212h364v-89h-364v-219h395v-90h-493v700z" />
    <glyph glyph-name="Eacute" unicode="&#xc9;" horiz-adv-x="664" 
d="M489 934l-131 -150h-97l113 150h115zM100 700h483v-90h-385v-212h364v-89h-364v-219h395v-90h-493v700z" />
    <glyph glyph-name="Ecircumflex" unicode="&#xca;" horiz-adv-x="664" 
d="M380 934l138 -150h-95l-87 95l-87 -95h-95l138 150h88zM100 700h483v-90h-385v-212h364v-89h-364v-219h395v-90h-493v700z" />
    <glyph glyph-name="Edieresis" unicode="&#xcb;" horiz-adv-x="664" 
d="M227 800q-28 0 -45.5 18t-17.5 45t17.5 45t45.5 18t45.5 -18t17.5 -45t-17.5 -45t-45.5 -18zM445 800q-28 0 -45.5 18t-17.5 45t17.5 45t45.5 18t45.5 -18t17.5 -45t-17.5 -45t-45.5 -18zM100 700h483v-90h-385v-212h364v-89h-364v-219h395v-90h-493v700z" />
    <glyph glyph-name="Igrave" unicode="&#xcc;" horiz-adv-x="302" 
d="M229 784h-97l-131 150h115zM102 0v700h98v-700h-98z" />
    <glyph glyph-name="Iacute" unicode="&#xcd;" horiz-adv-x="302" 
d="M76 784l113 150h115l-131 -150h-97zM102 0v700h98v-700h-98z" />
    <glyph glyph-name="Icircumflex" unicode="&#xce;" horiz-adv-x="302" 
d="M64 784h-95l138 150h88l138 -150h-95l-87 95zM102 0v700h98v-700h-98z" />
    <glyph glyph-name="Idieresis" unicode="&#xcf;" horiz-adv-x="302" 
d="M42 800q-28 0 -45.5 18t-17.5 45t17.5 45t45.5 18t45.5 -18t17.5 -45t-17.5 -45t-45.5 -18zM260 800q-28 0 -45.5 18t-17.5 45t17.5 45t45.5 18t45.5 -18t17.5 -45t-17.5 -45t-45.5 -18zM102 0v700h98v-700h-98z" />
    <glyph glyph-name="Eth" unicode="&#xd0;" horiz-adv-x="793" 
d="M388 700q76 0 139 -23.5t108.5 -68.5t71 -110t25.5 -148q0 -82 -25.5 -147t-71 -110t-108.5 -69t-139 -24h-269v310h-93v80h93v310h269zM388 91q113 0 177 66.5t64 192.5t-64 192.5t-177 66.5h-171v-219h191v-80h-191v-219h171z" />
    <glyph glyph-name="Ntilde" unicode="&#xd1;" horiz-adv-x="792" 
d="M331 857q-14 0 -23.5 -15t-9.5 -46h-67q0 63 24.5 97t67.5 34q24 0 43 -9.5t46 -31.5q21 -17 30 -21.5t19 -4.5q14 0 23.5 14.5t9.5 46.5h67q0 -63 -24.5 -97t-67.5 -34q-20 0 -39.5 8t-49.5 33q-20 15 -29.5 20.5t-19.5 5.5zM196 544v-544h-96v700h91l406 -544v544h96
v-700h-92z" />
    <glyph glyph-name="Ograve" unicode="&#xd2;" horiz-adv-x="841" 
d="M498 784h-97l-131 150h115zM420 -14q-79 0 -145.5 28.5t-113.5 77.5t-73.5 115.5t-26.5 142.5t26.5 142.5t73.5 115.5t113.5 77.5t145.5 28.5q80 0 146 -28.5t113.5 -77.5t74 -115.5t26.5 -142.5t-26.5 -142.5t-74 -115.5t-113.5 -77.5t-146 -28.5zM420 78
q57 0 104.5 20.5t81.5 56.5t52.5 86t18.5 109t-18.5 109t-52.5 86t-81.5 56.5t-104.5 20.5t-104 -20.5t-81 -56.5t-52.5 -86t-18.5 -109t18.5 -109t52.5 -86t81 -56.5t104 -20.5z" />
    <glyph glyph-name="Oacute" unicode="&#xd3;" horiz-adv-x="841" 
d="M346 784l113 150h115l-131 -150h-97zM420 -14q-79 0 -145.5 28.5t-113.5 77.5t-73.5 115.5t-26.5 142.5t26.5 142.5t73.5 115.5t113.5 77.5t145.5 28.5q80 0 146 -28.5t113.5 -77.5t74 -115.5t26.5 -142.5t-26.5 -142.5t-74 -115.5t-113.5 -77.5t-146 -28.5zM420 78
q57 0 104.5 20.5t81.5 56.5t52.5 86t18.5 109t-18.5 109t-52.5 86t-81.5 56.5t-104.5 20.5t-104 -20.5t-81 -56.5t-52.5 -86t-18.5 -109t18.5 -109t52.5 -86t81 -56.5t104 -20.5z" />
    <glyph glyph-name="Ocircumflex" unicode="&#xd4;" horiz-adv-x="841" 
d="M464 934l138 -150h-95l-87 95l-87 -95h-95l138 150h88zM420 714q80 0 146 -28.5t113.5 -77.5t74 -115.5t26.5 -142.5t-26.5 -142.5t-74 -115.5t-113.5 -77.5t-146 -28.5q-79 0 -145.5 28.5t-113.5 77.5t-73.5 115.5t-26.5 142.5t26.5 142.5t73.5 115.5t113.5 77.5
t145.5 28.5zM420 78q57 0 104.5 20.5t81.5 56.5t52.5 86t18.5 109t-18.5 109t-52.5 86t-81.5 56.5t-104.5 20.5t-104 -20.5t-81 -56.5t-52.5 -86t-18.5 -109t18.5 -109t52.5 -86t81 -56.5t104 -20.5z" />
    <glyph glyph-name="Otilde" unicode="&#xd5;" horiz-adv-x="841" 
d="M493 790q-20 0 -39.5 8t-49.5 33q-20 15 -29.5 20.5t-19.5 5.5q-14 0 -23.5 -15t-9.5 -46h-67q0 63 24.5 97t67.5 34q24 0 43 -9.5t46 -31.5q21 -17 30 -21.5t19 -4.5q14 0 23.5 14.5t9.5 46.5h67q0 -63 -24.5 -97t-67.5 -34zM420 -14q-79 0 -145.5 28.5t-113.5 77.5
t-73.5 115.5t-26.5 142.5t26.5 142.5t73.5 115.5t113.5 77.5t145.5 28.5q80 0 146 -28.5t113.5 -77.5t74 -115.5t26.5 -142.5t-26.5 -142.5t-74 -115.5t-113.5 -77.5t-146 -28.5zM420 78q57 0 104.5 20.5t81.5 56.5t52.5 86t18.5 109t-18.5 109t-52.5 86t-81.5 56.5
t-104.5 20.5t-104 -20.5t-81 -56.5t-52.5 -86t-18.5 -109t18.5 -109t52.5 -86t81 -56.5t104 -20.5z" />
    <glyph glyph-name="Odieresis" unicode="&#xd6;" horiz-adv-x="841" 
d="M311 800q-28 0 -45.5 18t-17.5 45t17.5 45t45.5 18t45.5 -18t17.5 -45t-17.5 -45t-45.5 -18zM529 800q-28 0 -45.5 18t-17.5 45t17.5 45t45.5 18t45.5 -18t17.5 -45t-17.5 -45t-45.5 -18zM420 -14q-79 0 -145.5 28.5t-113.5 77.5t-73.5 115.5t-26.5 142.5t26.5 142.5
t73.5 115.5t113.5 77.5t145.5 28.5q80 0 146 -28.5t113.5 -77.5t74 -115.5t26.5 -142.5t-26.5 -142.5t-74 -115.5t-113.5 -77.5t-146 -28.5zM420 78q57 0 104.5 20.5t81.5 56.5t52.5 86t18.5 109t-18.5 109t-52.5 86t-81.5 56.5t-104.5 20.5t-104 -20.5t-81 -56.5t-52.5 -86
t-18.5 -109t18.5 -109t52.5 -86t81 -56.5t104 -20.5z" />
    <glyph glyph-name="multiply" unicode="&#xd7;" 
d="M355 261l-150 -150l-56 56l150 150l-150 150l56 56l150 -150l150 150l56 -56l-150 -150l150 -150l-56 -56z" />
    <glyph glyph-name="Oslash" unicode="&#xd8;" horiz-adv-x="841" 
d="M705 579q36 -47 55.5 -105t19.5 -124q0 -76 -26.5 -142.5t-74 -115.5t-113.5 -77.5t-146 -28.5q-68 0 -126 20.5t-103 57.5l-71 -71l-56 56l72 72q-36 47 -55.5 105t-19.5 124q0 76 26.5 142.5t73.5 115.5t113.5 77.5t145.5 28.5q69 0 127 -20.5t103 -58.5l72 72l55 -56z
M420 622q-57 0 -104 -20.5t-81 -56.5t-52.5 -86t-18.5 -109q0 -46 11.5 -86t32.5 -73l375 376q-32 26 -73.5 40.5t-89.5 14.5zM420 78q57 0 104.5 20.5t81.5 56.5t52.5 86t18.5 109q0 91 -43 159l-376 -376q32 -26 73 -40.5t89 -14.5z" />
    <glyph glyph-name="Ugrave" unicode="&#xd9;" horiz-adv-x="754" 
d="M455 784h-97l-131 150h115zM377 -14q-66 0 -119.5 18t-90.5 52t-57 83.5t-20 112.5v448h98v-439q0 -183 189 -183t189 183v439h98v-448q0 -63 -20 -112.5t-57 -83.5t-90.5 -52t-119.5 -18z" />
    <glyph glyph-name="Uacute" unicode="&#xda;" horiz-adv-x="754" 
d="M302 784l113 150h115l-131 -150h-97zM377 -14q-66 0 -119.5 18t-90.5 52t-57 83.5t-20 112.5v448h98v-439q0 -183 189 -183t189 183v439h98v-448q0 -63 -20 -112.5t-57 -83.5t-90.5 -52t-119.5 -18z" />
    <glyph glyph-name="Ucircumflex" unicode="&#xdb;" horiz-adv-x="754" 
d="M421 934l138 -150h-95l-87 95l-87 -95h-95l138 150h88zM664 252q0 -63 -20 -112.5t-57 -83.5t-90.5 -52t-119.5 -18t-119.5 18t-90.5 52t-57 83.5t-20 112.5v448h98v-439q0 -183 189 -183t189 183v439h98v-448z" />
    <glyph glyph-name="Udieresis" unicode="&#xdc;" horiz-adv-x="754" 
d="M268 800q-28 0 -45.5 18t-17.5 45t17.5 45t45.5 18t45.5 -18t17.5 -45t-17.5 -45t-45.5 -18zM486 800q-28 0 -45.5 18t-17.5 45t17.5 45t45.5 18t45.5 -18t17.5 -45t-17.5 -45t-45.5 -18zM377 -14q-66 0 -119.5 18t-90.5 52t-57 83.5t-20 112.5v448h98v-439
q0 -183 189 -183t189 183v439h98v-448q0 -63 -20 -112.5t-57 -83.5t-90.5 -52t-119.5 -18z" />
    <glyph glyph-name="Yacute" unicode="&#xdd;" horiz-adv-x="647" 
d="M477 934l-131 -150h-97l113 150h115zM274 0v288l-268 412h111l207 -325l206 325h111l-268 -412v-288h-99z" />
    <glyph glyph-name="Thorn" unicode="&#xde;" horiz-adv-x="673" 
d="M387 577q117 0 178.5 -58.5t61.5 -161.5t-61.5 -161t-178.5 -58h-189v-138h-98v700h98v-123h189zM380 227q77 0 111 31t34 99q0 67 -34 98t-111 31h-182v-259h182z" />
    <glyph glyph-name="germandbls" unicode="&#xdf;" horiz-adv-x="619" 
d="M399 373q88 -10 133 -56.5t45 -121.5q0 -44 -15.5 -81t-45.5 -64t-73 -42.5t-99 -15.5q-17 0 -35.5 1.5t-39.5 6.5v82q32 -7 59 -7q78 0 114.5 34t36.5 92q0 121 -151 121h-59v85h19q76 0 114 35.5t38 99.5q0 114 -126 114q-70 0 -102 -35t-32 -110v-511h-94v516
q0 105 58.5 164.5t167.5 59.5q53 0 94.5 -14t70 -39.5t43.5 -61.5t15 -79q0 -66 -34.5 -111.5t-101.5 -61.5z" />
    <glyph glyph-name="agrave" unicode="&#xe0;" horiz-adv-x="654" 
d="M415 591h-97l-131 150h115zM474 90q-22 -48 -71 -76t-112 -28q-52 0 -96 19.5t-76 55t-50 84.5t-18 108q0 60 18 109t50 84.5t76 55t96 19.5q63 0 112 -28t71 -76v90h94v-507h-94v90zM314 73q37 0 67.5 13.5t52 37.5t33 57t11.5 72q0 40 -11.5 73t-33 57t-52 37.5
t-67.5 13.5t-67.5 -13.5t-52.5 -37.5t-33.5 -57t-11.5 -73q0 -39 11.5 -72t33.5 -57t52.5 -37.5t67.5 -13.5z" />
    <glyph glyph-name="aacute" unicode="&#xe1;" horiz-adv-x="654" 
d="M490 741l-131 -150h-97l113 150h115zM474 90q-22 -48 -71 -76t-112 -28q-52 0 -96 19.5t-76 55t-50 84.5t-18 108q0 60 18 109t50 84.5t76 55t96 19.5q63 0 112 -28t71 -76v90h94v-507h-94v90zM314 73q37 0 67.5 13.5t52 37.5t33 57t11.5 72q0 40 -11.5 73t-33 57
t-52 37.5t-67.5 13.5t-67.5 -13.5t-52.5 -37.5t-33.5 -57t-11.5 -73q0 -39 11.5 -72t33.5 -57t52.5 -37.5t67.5 -13.5z" />
    <glyph glyph-name="acircumflex" unicode="&#xe2;" horiz-adv-x="654" 
d="M381 741l138 -150h-95l-87 95l-87 -95h-95l138 150h88zM474 90q-22 -48 -71 -76t-112 -28q-52 0 -96 19.5t-76 55t-50 84.5t-18 108q0 60 18 109t50 84.5t76 55t96 19.5q63 0 112 -28t71 -76v90h94v-507h-94v90zM314 73q37 0 67.5 13.5t52 37.5t33 57t11.5 72
q0 40 -11.5 73t-33 57t-52 37.5t-67.5 13.5t-67.5 -13.5t-52.5 -37.5t-33.5 -57t-11.5 -73q0 -39 11.5 -72t33.5 -57t52.5 -37.5t67.5 -13.5z" />
    <glyph glyph-name="atilde" unicode="&#xe3;" horiz-adv-x="654" 
d="M272 664q-14 0 -23.5 -15t-9.5 -46h-67q0 63 24.5 97t67.5 34q24 0 43 -9.5t46 -31.5q21 -17 30 -21.5t19 -4.5q14 0 23.5 14.5t9.5 46.5h67q0 -63 -24.5 -97t-67.5 -34q-20 0 -39.5 8t-49.5 33q-20 15 -29.5 20.5t-19.5 5.5zM474 90q-22 -48 -71 -76t-112 -28
q-52 0 -96 19.5t-76 55t-50 84.5t-18 108q0 60 18 109t50 84.5t76 55t96 19.5q63 0 112 -28t71 -76v90h94v-507h-94v90zM314 73q37 0 67.5 13.5t52 37.5t33 57t11.5 72q0 40 -11.5 73t-33 57t-52 37.5t-67.5 13.5t-67.5 -13.5t-52.5 -37.5t-33.5 -57t-11.5 -73
q0 -39 11.5 -72t33.5 -57t52.5 -37.5t67.5 -13.5z" />
    <glyph glyph-name="adieresis" unicode="&#xe4;" horiz-adv-x="654" 
d="M228 607q-28 0 -45.5 18t-17.5 45t17.5 45t45.5 18t45.5 -18t17.5 -45t-17.5 -45t-45.5 -18zM446 607q-28 0 -45.5 18t-17.5 45t17.5 45t45.5 18t45.5 -18t17.5 -45t-17.5 -45t-45.5 -18zM474 90q-22 -48 -71 -76t-112 -28q-52 0 -96 19.5t-76 55t-50 84.5t-18 108
q0 60 18 109t50 84.5t76 55t96 19.5q63 0 112 -28t71 -76v90h94v-507h-94v90zM314 73q37 0 67.5 13.5t52 37.5t33 57t11.5 72q0 40 -11.5 73t-33 57t-52 37.5t-67.5 13.5t-67.5 -13.5t-52.5 -37.5t-33.5 -57t-11.5 -73q0 -39 11.5 -72t33.5 -57t52.5 -37.5t67.5 -13.5z" />
    <glyph glyph-name="aring" unicode="&#xe5;" horiz-adv-x="654" 
d="M337 578q-27 0 -50 9.5t-40 25.5t-26.5 37.5t-9.5 46.5t9.5 47t26.5 38t40 25.5t50 9.5t50 -9.5t40 -25.5t26.5 -38t9.5 -47t-9.5 -46.5t-26.5 -37.5t-40 -25.5t-50 -9.5zM337 755q-27 0 -42.5 -16t-15.5 -42q0 -25 15.5 -41t42.5 -16t42.5 16t15.5 41q0 26 -15.5 42
t-42.5 16zM474 90q-22 -48 -71 -76t-112 -28q-52 0 -96 19.5t-76 55t-50 84.5t-18 108q0 60 18 109t50 84.5t76 55t96 19.5q63 0 112 -28t71 -76v90h94v-507h-94v90zM314 73q37 0 67.5 13.5t52 37.5t33 57t11.5 72q0 40 -11.5 73t-33 57t-52 37.5t-67.5 13.5t-67.5 -13.5
t-52.5 -37.5t-33.5 -57t-11.5 -73q0 -39 11.5 -72t33.5 -57t52.5 -37.5t67.5 -13.5z" />
    <glyph glyph-name="ae" unicode="&#xe6;" horiz-adv-x="947" 
d="M898 270q0 -23 -3 -44h-395q8 -74 53 -114.5t115 -40.5q45 0 84 18.5t70 56.5l61 -54q-36 -51 -92 -78.5t-126 -27.5q-75 0 -129 31t-84 88q-23 -54 -78 -86.5t-133 -32.5q-88 0 -139 42t-51 115q0 72 53 112.5t160 40.5h141v34q0 51 -30.5 78.5t-85.5 27.5
q-93 0 -149 -70l-59 58q35 45 90 71t125 26q129 0 174 -94q31 45 78.5 69.5t109.5 24.5q53 0 97 -18.5t76 -51.5t49.5 -79t17.5 -102zM658 435q-66 0 -105.5 -37.5t-50.5 -101.5h302q-6 68 -44.5 103.5t-101.5 35.5zM249 62q35 0 63.5 11t49.5 30t32.5 45t11.5 56v22h-138
q-63 0 -92 -20t-29 -60q0 -39 26.5 -61.5t75.5 -22.5z" />
    <glyph glyph-name="ccedilla" unicode="&#xe7;" horiz-adv-x="560" 
d="M314 73q93 0 140 75l73 -51q-28 -46 -73.5 -73.5t-103.5 -35.5l-52 -180h-99l68 181q-49 7 -89 30t-68 57.5t-43.5 79.5t-15.5 97q0 59 19 108t53.5 84.5t83 55.5t106.5 20q71 0 126.5 -29t87.5 -83l-73 -50q-23 36 -59 55.5t-81 19.5q-37 0 -67 -13t-52 -36.5t-34 -57
t-12 -74.5q0 -82 45.5 -131t119.5 -49z" />
    <glyph glyph-name="egrave" unicode="&#xe8;" horiz-adv-x="598" 
d="M385 591h-97l-131 150h115zM548 270q0 -22 -3 -45h-398q8 -73 52.5 -113.5t116.5 -40.5q95 0 157 75l61 -54q-37 -51 -93 -78.5t-127 -27.5q-58 0 -106.5 19.5t-83.5 54.5t-54 84t-19 108t18.5 108t52.5 85t80.5 56t103.5 20q53 0 97.5 -18t76.5 -51t50 -79.5t18 -102.5z
M306 435q-66 0 -106 -37t-51 -101h304q-6 67 -45.5 102.5t-101.5 35.5z" />
    <glyph glyph-name="eacute" unicode="&#xe9;" horiz-adv-x="598" 
d="M460 741l-131 -150h-97l113 150h115zM548 270q0 -22 -3 -45h-398q8 -73 52.5 -113.5t116.5 -40.5q95 0 157 75l61 -54q-37 -51 -93 -78.5t-127 -27.5q-58 0 -106.5 19.5t-83.5 54.5t-54 84t-19 108t18.5 108t52.5 85t80.5 56t103.5 20q53 0 97.5 -18t76.5 -51t50 -79.5
t18 -102.5zM306 435q-66 0 -106 -37t-51 -101h304q-6 67 -45.5 102.5t-101.5 35.5z" />
    <glyph glyph-name="ecircumflex" unicode="&#xea;" horiz-adv-x="598" 
d="M351 741l138 -150h-95l-87 95l-87 -95h-95l138 150h88zM548 270q0 -22 -3 -45h-398q8 -73 52.5 -113.5t116.5 -40.5q95 0 157 75l61 -54q-37 -51 -93 -78.5t-127 -27.5q-58 0 -106.5 19.5t-83.5 54.5t-54 84t-19 108t18.5 108t52.5 85t80.5 56t103.5 20q53 0 97.5 -18
t76.5 -51t50 -79.5t18 -102.5zM306 435q-66 0 -106 -37t-51 -101h304q-6 67 -45.5 102.5t-101.5 35.5z" />
    <glyph glyph-name="edieresis" unicode="&#xeb;" horiz-adv-x="598" 
d="M198 607q-28 0 -45.5 18t-17.5 45t17.5 45t45.5 18t45.5 -18t17.5 -45t-17.5 -45t-45.5 -18zM416 607q-28 0 -45.5 18t-17.5 45t17.5 45t45.5 18t45.5 -18t17.5 -45t-17.5 -45t-45.5 -18zM548 270q0 -22 -3 -45h-398q8 -73 52.5 -113.5t116.5 -40.5q95 0 157 75l61 -54
q-37 -51 -93 -78.5t-127 -27.5q-58 0 -106.5 19.5t-83.5 54.5t-54 84t-19 108t18.5 108t52.5 85t80.5 56t103.5 20q53 0 97.5 -18t76.5 -51t50 -79.5t18 -102.5zM306 435q-66 0 -106 -37t-51 -101h304q-6 67 -45.5 102.5t-101.5 35.5z" />
    <glyph glyph-name="igrave" unicode="&#xec;" horiz-adv-x="268" 
d="M118 591l-109 150h111l91 -150h-93zM87 0v507h94v-507h-94z" />
    <glyph glyph-name="iacute" unicode="&#xed;" horiz-adv-x="268" 
d="M60 591l90 150h113l-109 -150h-94zM87 0v507h94v-507h-94z" />
    <glyph glyph-name="icircumflex" unicode="&#xee;" horiz-adv-x="268" 
d="M61 591h-91l120 150h88l120 -150h-91l-73 96zM87 0v507h94v-507h-94z" />
    <glyph glyph-name="idieresis" unicode="&#xef;" horiz-adv-x="268" 
d="M42 609q-27 0 -44 17t-17 44t17 44t44 17q26 0 43 -17t17 -44t-17 -44t-43 -17zM226 609q-26 0 -43 17t-17 44t17 44t43 17q27 0 44 -17t17 -44t-17 -44t-44 -17zM87 0v507h94v-507h-94z" />
    <glyph glyph-name="eth" unicode="&#xf0;" horiz-adv-x="624" 
d="M414 644q77 -68 117.5 -161.5t40.5 -205.5q0 -69 -15.5 -116.5t-45.5 -84.5q-35 -42 -83.5 -66t-113.5 -24q-60 0 -108.5 21t-83 56t-53 81t-18.5 97t18.5 97t52 81t81 56t104.5 21q50 0 90.5 -17.5t68.5 -52.5q-33 107 -115 173l-108 -76l-34 46l91 64q-54 31 -122 51
l26 69q91 -24 163 -73l103 73l34 -46zM313 71q38 0 68 13t51.5 35.5t33 54t11.5 67.5t-11.5 67.5t-33 54t-51.5 35.5t-68 13q-37 0 -67.5 -13t-52 -35.5t-33 -54t-11.5 -67.5t11.5 -67.5t33 -54t52 -35.5t67.5 -13z" />
    <glyph glyph-name="ntilde" unicode="&#xf1;" horiz-adv-x="615" 
d="M244 664q-14 0 -23.5 -15t-9.5 -46h-67q0 63 24.5 97t67.5 34q24 0 43 -9.5t46 -31.5q21 -17 30 -21.5t19 -4.5q14 0 23.5 14.5t9.5 46.5h67q0 -63 -24.5 -97t-67.5 -34q-20 0 -39.5 8t-49.5 33q-20 15 -29.5 20.5t-19.5 5.5zM353 521q85 0 132.5 -50.5t47.5 -144.5v-326
h-94v303q0 69 -27 100t-84 31q-64 0 -106 -36t-42 -99v-299h-94v507h94v-83q22 47 67.5 72t105.5 25z" />
    <glyph glyph-name="ograve" unicode="&#xf2;" horiz-adv-x="627" 
d="M391 591h-97l-131 150h115zM314 -14q-60 0 -108.5 21.5t-83 58t-53 85t-18.5 102.5t18.5 103t53 85.5t83 58t108.5 21.5t108 -21.5t82.5 -58t53 -85.5t18.5 -103t-18.5 -102.5t-53 -85t-82.5 -58t-108 -21.5zM314 73q37 0 67.5 13.5t52 37.5t33 57t11.5 72q0 40 -11.5 73
t-33 57t-52 37.5t-67.5 13.5t-67.5 -13.5t-52.5 -37.5t-33.5 -57t-11.5 -73q0 -39 11.5 -72t33.5 -57t52.5 -37.5t67.5 -13.5z" />
    <glyph glyph-name="oacute" unicode="&#xf3;" horiz-adv-x="627" 
d="M239 591l113 150h115l-131 -150h-97zM314 -14q-60 0 -108.5 21.5t-83 58t-53 85t-18.5 102.5t18.5 103t53 85.5t83 58t108.5 21.5t108 -21.5t82.5 -58t53 -85.5t18.5 -103t-18.5 -102.5t-53 -85t-82.5 -58t-108 -21.5zM314 73q37 0 67.5 13.5t52 37.5t33 57t11.5 72
q0 40 -11.5 73t-33 57t-52 37.5t-67.5 13.5t-67.5 -13.5t-52.5 -37.5t-33.5 -57t-11.5 -73q0 -39 11.5 -72t33.5 -57t52.5 -37.5t67.5 -13.5z" />
    <glyph glyph-name="ocircumflex" unicode="&#xf4;" horiz-adv-x="627" 
d="M358 741l138 -150h-95l-87 95l-87 -95h-95l138 150h88zM314 521q60 0 108 -21.5t82.5 -58t53 -85.5t18.5 -103t-18.5 -102.5t-53 -85t-82.5 -58t-108 -21.5t-108.5 21.5t-83 58t-53 85t-18.5 102.5t18.5 103t53 85.5t83 58t108.5 21.5zM314 73q37 0 67.5 13.5t52 37.5
t33 57t11.5 72q0 40 -11.5 73t-33 57t-52 37.5t-67.5 13.5t-67.5 -13.5t-52.5 -37.5t-33.5 -57t-11.5 -73q0 -39 11.5 -72t33.5 -57t52.5 -37.5t67.5 -13.5z" />
    <glyph glyph-name="otilde" unicode="&#xf5;" horiz-adv-x="627" 
d="M387 597q-20 0 -39.5 8t-49.5 33q-20 15 -29.5 20.5t-19.5 5.5q-14 0 -23.5 -15t-9.5 -46h-67q0 63 24.5 97t67.5 34q24 0 43 -9.5t46 -31.5q21 -17 30 -21.5t19 -4.5q14 0 23.5 14.5t9.5 46.5h67q0 -63 -24.5 -97t-67.5 -34zM314 -14q-60 0 -108.5 21.5t-83 58t-53 85
t-18.5 102.5t18.5 103t53 85.5t83 58t108.5 21.5t108 -21.5t82.5 -58t53 -85.5t18.5 -103t-18.5 -102.5t-53 -85t-82.5 -58t-108 -21.5zM314 73q37 0 67.5 13.5t52 37.5t33 57t11.5 72q0 40 -11.5 73t-33 57t-52 37.5t-67.5 13.5t-67.5 -13.5t-52.5 -37.5t-33.5 -57
t-11.5 -73q0 -39 11.5 -72t33.5 -57t52.5 -37.5t67.5 -13.5z" />
    <glyph glyph-name="odieresis" unicode="&#xf6;" horiz-adv-x="627" 
d="M205 607q-28 0 -45.5 18t-17.5 45t17.5 45t45.5 18t45.5 -18t17.5 -45t-17.5 -45t-45.5 -18zM423 607q-28 0 -45.5 18t-17.5 45t17.5 45t45.5 18t45.5 -18t17.5 -45t-17.5 -45t-45.5 -18zM314 -14q-60 0 -108.5 21.5t-83 58t-53 85t-18.5 102.5t18.5 103t53 85.5t83 58
t108.5 21.5t108 -21.5t82.5 -58t53 -85.5t18.5 -103t-18.5 -102.5t-53 -85t-82.5 -58t-108 -21.5zM314 73q37 0 67.5 13.5t52 37.5t33 57t11.5 72q0 40 -11.5 73t-33 57t-52 37.5t-67.5 13.5t-67.5 -13.5t-52.5 -37.5t-33.5 -57t-11.5 -73q0 -39 11.5 -72t33.5 -57
t52.5 -37.5t67.5 -13.5z" />
    <glyph glyph-name="divide" unicode="&#xf7;" 
d="M355 434q-28 0 -45.5 17.5t-17.5 43.5q0 27 17.5 44.5t45.5 17.5t45.5 -17.5t17.5 -44.5q0 -26 -17.5 -43.5t-45.5 -17.5zM134 275v84h442v-84h-442zM355 77q-28 0 -45.5 17.5t-17.5 44.5q0 26 17.5 43.5t45.5 17.5t45.5 -17.5t17.5 -43.5q0 -27 -17.5 -44.5t-45.5 -17.5
z" />
    <glyph glyph-name="oslash" unicode="&#xf8;" horiz-adv-x="631" 
d="M528 415q24 -34 37 -75.5t13 -86.5q0 -54 -18.5 -102.5t-53 -85t-82.5 -58t-108 -21.5q-49 0 -90.5 14t-73.5 40l-63 -63l-50 50l64 64q-24 34 -37 75.5t-13 86.5q0 54 18.5 103t53 85.5t83 58t108.5 21.5q49 0 90 -14t73 -40l63 63l50 -50zM316 434q-37 0 -67.5 -13.5
t-52.5 -37.5t-33.5 -57t-11.5 -73q0 -56 23 -97l244 244q-42 34 -102 34zM316 73q37 0 67.5 13.5t52 37.5t33 57t11.5 72q0 55 -22 97l-244 -244q42 -33 102 -33z" />
    <glyph glyph-name="ugrave" unicode="&#xf9;" horiz-adv-x="595" 
d="M375 591h-97l-131 150h115zM297 -14q-50 0 -91 14.5t-70 41.5t-44.5 64.5t-15.5 83.5v317h94v-310q0 -62 33.5 -93t93.5 -31q61 0 94 31t33 93v310h94v-317q0 -46 -15.5 -83.5t-44.5 -64.5t-69.5 -41.5t-91.5 -14.5z" />
    <glyph glyph-name="uacute" unicode="&#xfa;" horiz-adv-x="595" 
d="M223 591l113 150h115l-131 -150h-97zM297 -14q-50 0 -91 14.5t-70 41.5t-44.5 64.5t-15.5 83.5v317h94v-310q0 -62 33.5 -93t93.5 -31q61 0 94 31t33 93v310h94v-317q0 -46 -15.5 -83.5t-44.5 -64.5t-69.5 -41.5t-91.5 -14.5z" />
    <glyph glyph-name="ucircumflex" unicode="&#xfb;" horiz-adv-x="595" 
d="M341 741l138 -150h-95l-87 95l-87 -95h-95l138 150h88zM518 190q0 -46 -15.5 -83.5t-44.5 -64.5t-69.5 -41.5t-91.5 -14.5q-50 0 -91 14.5t-70 41.5t-44.5 64.5t-15.5 83.5v317h94v-310q0 -62 33.5 -93t93.5 -31q61 0 94 31t33 93v310h94v-317z" />
    <glyph glyph-name="udieresis" unicode="&#xfc;" horiz-adv-x="595" 
d="M188 607q-28 0 -45.5 18t-17.5 45t17.5 45t45.5 18t45.5 -18t17.5 -45t-17.5 -45t-45.5 -18zM406 607q-28 0 -45.5 18t-17.5 45t17.5 45t45.5 18t45.5 -18t17.5 -45t-17.5 -45t-45.5 -18zM297 -14q-50 0 -91 14.5t-70 41.5t-44.5 64.5t-15.5 83.5v317h94v-310
q0 -62 33.5 -93t93.5 -31q61 0 94 31t33 93v310h94v-317q0 -46 -15.5 -83.5t-44.5 -64.5t-69.5 -41.5t-91.5 -14.5z" />
    <glyph glyph-name="yacute" unicode="&#xfd;" horiz-adv-x="607" 
d="M451 741l-131 -150h-97l113 150h115zM521 50q0 -130 -66 -197t-185 -67q-65 0 -120.5 19.5t-91.5 55.5l51 67q32 -28 73 -42t84 -14q77 0 119 43.5t42 134.5v48q-22 -47 -68.5 -72t-106.5 -25q-83 0 -130.5 49.5t-47.5 145.5v311h94v-288q0 -70 27.5 -100.5t82.5 -30.5
q66 0 107.5 36.5t41.5 98.5v284h94v-457z" />
    <glyph glyph-name="thorn" unicode="&#xfe;" horiz-adv-x="654" 
d="M364 521q52 0 95.5 -19.5t75 -55t49.5 -84.5t18 -109q0 -59 -18 -108t-49.5 -84.5t-75 -55t-95.5 -19.5q-63 0 -112.5 28t-71.5 76v-290h-94v932h94v-315q22 48 71.5 76t112.5 28zM340 73q38 0 68 13.5t52 37.5t33.5 57t11.5 72q0 40 -11.5 73t-33.5 57t-52 37.5
t-68 13.5q-37 0 -67.5 -13.5t-52 -37.5t-33 -57t-11.5 -73q0 -39 11.5 -72t33 -57t52 -37.5t67.5 -13.5z" />
    <glyph glyph-name="ydieresis" unicode="&#xff;" horiz-adv-x="607" 
d="M188 607q-28 0 -45.5 18t-17.5 45t17.5 45t45.5 18t45.5 -18t17.5 -45t-17.5 -45t-45.5 -18zM406 607q-28 0 -45.5 18t-17.5 45t17.5 45t45.5 18t45.5 -18t17.5 -45t-17.5 -45t-45.5 -18zM521 50q0 -130 -66 -197t-185 -67q-65 0 -120.5 19.5t-91.5 55.5l51 67
q32 -28 73 -42t84 -14q77 0 119 43.5t42 134.5v48q-22 -47 -68.5 -72t-106.5 -25q-83 0 -130.5 49.5t-47.5 145.5v311h94v-288q0 -70 27.5 -100.5t82.5 -30.5q66 0 107.5 36.5t41.5 98.5v284h94v-457z" />
    <glyph glyph-name="Amacron" unicode="&#x100;" horiz-adv-x="716" 
d="M512 880v-75h-308v75h308zM20 0l283 700h110l282 -700h-102l-72 184h-327l-72 -184h-102zM487 271l-129 333l-130 -333h259z" />
    <glyph glyph-name="amacron" unicode="&#x101;" horiz-adv-x="654" 
d="M491 687v-75h-308v75h308zM474 90q-22 -48 -71 -76t-112 -28q-52 0 -96 19.5t-76 55t-50 84.5t-18 108q0 60 18 109t50 84.5t76 55t96 19.5q63 0 112 -28t71 -76v90h94v-507h-94v90zM314 73q37 0 67.5 13.5t52 37.5t33 57t11.5 72q0 40 -11.5 73t-33 57t-52 37.5
t-67.5 13.5t-67.5 -13.5t-52.5 -37.5t-33.5 -57t-11.5 -73q0 -39 11.5 -72t33.5 -57t52.5 -37.5t67.5 -13.5z" />
    <glyph glyph-name="Abreve" unicode="&#x102;" horiz-adv-x="716" 
d="M358 778q-72 0 -112.5 36.5t-40.5 97.5v6h81q0 -35 18.5 -55t53.5 -20t53.5 20t18.5 55h81v-6q0 -61 -40.5 -97.5t-112.5 -36.5zM20 0l283 700h110l282 -700h-102l-72 184h-327l-72 -184h-102zM487 271l-129 333l-130 -333h259z" />
    <glyph glyph-name="abreve" unicode="&#x103;" horiz-adv-x="654" 
d="M337 585q-72 0 -112.5 36.5t-40.5 97.5v6h81q0 -35 18.5 -55t53.5 -20t53.5 20t18.5 55h81v-6q0 -61 -40.5 -97.5t-112.5 -36.5zM474 90q-22 -48 -71 -76t-112 -28q-52 0 -96 19.5t-76 55t-50 84.5t-18 108q0 60 18 109t50 84.5t76 55t96 19.5q63 0 112 -28t71 -76v90h94
v-507h-94v90zM314 73q37 0 67.5 13.5t52 37.5t33 57t11.5 72q0 40 -11.5 73t-33 57t-52 37.5t-67.5 13.5t-67.5 -13.5t-52.5 -37.5t-33.5 -57t-11.5 -73q0 -39 11.5 -72t33.5 -57t52.5 -37.5t67.5 -13.5z" />
    <glyph glyph-name="Aogonek" unicode="&#x104;" horiz-adv-x="716" 
d="M585 -103q0 -17 13 -27t45 -10h53v-74h-65q-67 0 -102 27t-35 69q0 33 23.5 63t75.5 55l-72 184h-327l-72 -184h-102l283 700h110l282 -699l1 -1q-34 -19 -55.5 -34t-34 -27.5t-17 -22.5t-4.5 -19zM487 271l-129 333l-130 -333h259z" />
    <glyph glyph-name="aogonek" unicode="&#x105;" horiz-adv-x="654" 
d="M568 0q-34 -19 -55.5 -34t-34 -27.5t-17 -22.5t-4.5 -19q0 -17 13 -27t45 -10h53v-74h-65q-67 0 -102 27t-35 69q0 35 25.5 66t82.5 56v86q-22 -48 -71 -76t-112 -28q-52 0 -96 19.5t-76 55t-50 84.5t-18 108q0 60 18 109t50 84.5t76 55t96 19.5q63 0 112 -28t71 -76v90
h94v-507zM314 73q37 0 67.5 13.5t52 37.5t33 57t11.5 72q0 40 -11.5 73t-33 57t-52 37.5t-67.5 13.5t-67.5 -13.5t-52.5 -37.5t-33.5 -57t-11.5 -73q0 -39 11.5 -72t33.5 -57t52.5 -37.5t67.5 -13.5z" />
    <glyph glyph-name="Cacute" unicode="&#x106;" horiz-adv-x="757" 
d="M339 784l113 150h115l-131 -150h-97zM415 -14q-78 0 -143.5 28t-112 76.5t-72.5 115t-26 144.5q0 77 26 143.5t73 115.5t112 77t143 28q99 0 180.5 -45.5t126.5 -136.5l-82 -46q-36 70 -92 103t-127 33q-58 0 -105 -20.5t-81 -56.5t-52.5 -86t-18.5 -109t18.5 -109
t52.5 -86t81 -56.5t105 -20.5q71 0 127.5 33t92.5 103l81 -46q-45 -91 -126.5 -136.5t-180.5 -45.5z" />
    <glyph glyph-name="cacute" unicode="&#x107;" horiz-adv-x="560" 
d="M234 591l113 150h115l-131 -150h-97zM313 -14q-58 0 -106.5 20t-83 55.5t-53.5 84.5t-19 107q0 59 19 108t53.5 84.5t83 55.5t106.5 20q71 0 126.5 -29t87.5 -83l-73 -50q-23 36 -59 55.5t-81 19.5q-37 0 -67 -13t-52 -36.5t-34 -57t-12 -74.5q0 -82 45.5 -131t119.5 -49
q93 0 140 75l73 -51q-32 -53 -87.5 -82t-126.5 -29z" />
    <glyph glyph-name="Ccircumflex" unicode="&#x108;" horiz-adv-x="757" 
d="M457 934l138 -150h-95l-87 95l-87 -95h-95l138 150h88zM421 78q71 0 127.5 33t92.5 103l81 -46q-45 -91 -126.5 -136.5t-180.5 -45.5q-78 0 -143.5 28t-112 76.5t-72.5 115t-26 144.5q0 77 26 143.5t73 115.5t112 77t143 28q99 0 180.5 -45.5t126.5 -136.5l-82 -46
q-36 70 -92 103t-127 33q-58 0 -105 -20.5t-81 -56.5t-52.5 -86t-18.5 -109t18.5 -109t52.5 -86t81 -56.5t105 -20.5z" />
    <glyph glyph-name="ccircumflex" unicode="&#x109;" horiz-adv-x="560" 
d="M353 741l138 -150h-95l-87 95l-87 -95h-95l138 150h88zM314 73q93 0 140 75l73 -51q-32 -53 -87.5 -82t-126.5 -29q-58 0 -106.5 20t-83 55.5t-53.5 84.5t-19 107q0 59 19 108t53.5 84.5t83 55.5t106.5 20q71 0 126.5 -29t87.5 -83l-73 -50q-23 36 -59 55.5t-81 19.5
q-37 0 -67 -13t-52 -36.5t-34 -57t-12 -74.5q0 -82 45.5 -131t119.5 -49z" />
    <glyph glyph-name="Cdotaccent" unicode="&#x10a;" horiz-adv-x="757" 
d="M413 800q-28 0 -45.5 18t-17.5 45t17.5 45t45.5 18t45.5 -18t17.5 -45t-17.5 -45t-45.5 -18zM415 -14q-78 0 -143.5 28t-112 76.5t-72.5 115t-26 144.5q0 77 26 143.5t73 115.5t112 77t143 28q99 0 180.5 -45.5t126.5 -136.5l-82 -46q-36 70 -92 103t-127 33
q-58 0 -105 -20.5t-81 -56.5t-52.5 -86t-18.5 -109t18.5 -109t52.5 -86t81 -56.5t105 -20.5q71 0 127.5 33t92.5 103l81 -46q-45 -91 -126.5 -136.5t-180.5 -45.5z" />
    <glyph glyph-name="cdotaccent" unicode="&#x10b;" horiz-adv-x="560" 
d="M309 607q-28 0 -45.5 18t-17.5 45t17.5 45t45.5 18t45.5 -18t17.5 -45t-17.5 -45t-45.5 -18zM313 -14q-58 0 -106.5 20t-83 55.5t-53.5 84.5t-19 107q0 59 19 108t53.5 84.5t83 55.5t106.5 20q71 0 126.5 -29t87.5 -83l-73 -50q-23 36 -59 55.5t-81 19.5q-37 0 -67 -13
t-52 -36.5t-34 -57t-12 -74.5q0 -82 45.5 -131t119.5 -49q93 0 140 75l73 -51q-32 -53 -87.5 -82t-126.5 -29z" />
    <glyph glyph-name="Ccaron" unicode="&#x10c;" horiz-adv-x="757" 
d="M413 840l87 94h95l-138 -150h-88l-138 150h95zM421 78q71 0 127.5 33t92.5 103l81 -46q-45 -91 -126.5 -136.5t-180.5 -45.5q-78 0 -143.5 28t-112 76.5t-72.5 115t-26 144.5q0 77 26 143.5t73 115.5t112 77t143 28q99 0 180.5 -45.5t126.5 -136.5l-82 -46
q-36 70 -92 103t-127 33q-58 0 -105 -20.5t-81 -56.5t-52.5 -86t-18.5 -109t18.5 -109t52.5 -86t81 -56.5t105 -20.5z" />
    <glyph glyph-name="ccaron" unicode="&#x10d;" horiz-adv-x="560" 
d="M309 647l87 94h95l-138 -150h-88l-138 150h95zM314 73q93 0 140 75l73 -51q-32 -53 -87.5 -82t-126.5 -29q-58 0 -106.5 20t-83 55.5t-53.5 84.5t-19 107q0 59 19 108t53.5 84.5t83 55.5t106.5 20q71 0 126.5 -29t87.5 -83l-73 -50q-23 36 -59 55.5t-81 19.5
q-37 0 -67 -13t-52 -36.5t-34 -57t-12 -74.5q0 -82 45.5 -131t119.5 -49z" />
    <glyph glyph-name="Dcaron" unicode="&#x10e;" horiz-adv-x="774" 
d="M356 840l87 94h95l-138 -150h-88l-138 150h95zM368 700q76 0 139.5 -23.5t109 -68.5t71 -110t25.5 -148q0 -82 -25.5 -147t-71 -110t-109 -69t-139.5 -24h-268v700h268zM368 91q113 0 177.5 66.5t64.5 192.5t-64.5 192.5t-177.5 66.5h-170v-518h170z" />
    <glyph glyph-name="dcaron" unicode="&#x10f;" 
d="M474 0v90q-23 -48 -72 -76t-112 -28q-52 0 -95.5 19.5t-75.5 55t-50 84.5t-18 108q0 60 18 109t50 84.5t75.5 55t95.5 19.5q63 0 112 -28t72 -76v315h94v-732h-94zM644 732h96l-24 -199h-72v199zM314 73q37 0 67.5 13.5t52 37.5t33 57t11.5 72q0 40 -11.5 73t-33 57
t-52 37.5t-67.5 13.5t-67.5 -13.5t-52.5 -37.5t-33.5 -57t-11.5 -73q0 -39 11.5 -72t33.5 -57t52.5 -37.5t67.5 -13.5z" />
    <glyph glyph-name="Dcroat" unicode="&#x110;" horiz-adv-x="793" 
d="M388 700q76 0 139 -23.5t108.5 -68.5t71 -110t25.5 -148q0 -82 -25.5 -147t-71 -110t-108.5 -69t-139 -24h-269v310h-93v80h93v310h269zM388 91q113 0 177 66.5t64 192.5t-64 192.5t-177 66.5h-171v-219h191v-80h-191v-219h171z" />
    <glyph glyph-name="dcroat" unicode="&#x111;" horiz-adv-x="654" 
d="M474 0v90q-23 -48 -72 -76t-112 -28q-52 0 -95.5 19.5t-75.5 54t-50 82t-18 104.5t18 105t50 82.5t75.5 54t95.5 19.5q63 0 112 -28t72 -76v178h-173v71h173v80h94v-80h85v-71h-85v-581h-94zM314 73q37 0 67.5 13.5t52 36.5t33 54.5t11.5 68.5t-11.5 69t-33 55t-52 36.5
t-67.5 13.5t-67.5 -13.5t-52.5 -36.5t-33.5 -55t-11.5 -69t11.5 -68.5t33.5 -54.5t52.5 -36.5t67.5 -13.5z" />
    <glyph glyph-name="Emacron" unicode="&#x112;" horiz-adv-x="664" 
d="M490 880v-75h-308v75h308zM100 700h483v-90h-385v-212h364v-89h-364v-219h395v-90h-493v700z" />
    <glyph glyph-name="emacron" unicode="&#x113;" horiz-adv-x="598" 
d="M461 687v-75h-308v75h308zM548 270q0 -22 -3 -45h-398q8 -73 52.5 -113.5t116.5 -40.5q95 0 157 75l61 -54q-37 -51 -93 -78.5t-127 -27.5q-58 0 -106.5 19.5t-83.5 54.5t-54 84t-19 108t18.5 108t52.5 85t80.5 56t103.5 20q53 0 97.5 -18t76.5 -51t50 -79.5t18 -102.5z
M306 435q-66 0 -106 -37t-51 -101h304q-6 67 -45.5 102.5t-101.5 35.5z" />
    <glyph glyph-name="Ebreve" unicode="&#x114;" horiz-adv-x="664" 
d="M336 778q-72 0 -112.5 36.5t-40.5 97.5v6h81q0 -35 18.5 -55t53.5 -20t53.5 20t18.5 55h81v-6q0 -61 -40.5 -97.5t-112.5 -36.5zM100 700h483v-90h-385v-212h364v-89h-364v-219h395v-90h-493v700z" />
    <glyph glyph-name="ebreve" unicode="&#x115;" horiz-adv-x="598" 
d="M307 585q-72 0 -112.5 36.5t-40.5 97.5v6h81q0 -35 18.5 -55t53.5 -20t53.5 20t18.5 55h81v-6q0 -61 -40.5 -97.5t-112.5 -36.5zM548 270q0 -22 -3 -45h-398q8 -73 52.5 -113.5t116.5 -40.5q95 0 157 75l61 -54q-37 -51 -93 -78.5t-127 -27.5q-58 0 -106.5 19.5
t-83.5 54.5t-54 84t-19 108t18.5 108t52.5 85t80.5 56t103.5 20q53 0 97.5 -18t76.5 -51t50 -79.5t18 -102.5zM306 435q-66 0 -106 -37t-51 -101h304q-6 67 -45.5 102.5t-101.5 35.5z" />
    <glyph glyph-name="Edotaccent" unicode="&#x116;" horiz-adv-x="664" 
d="M336 800q-28 0 -45.5 18t-17.5 45t17.5 45t45.5 18t45.5 -18t17.5 -45t-17.5 -45t-45.5 -18zM100 700h483v-90h-385v-212h364v-89h-364v-219h395v-90h-493v700z" />
    <glyph glyph-name="edotaccent" unicode="&#x117;" horiz-adv-x="598" 
d="M307 607q-28 0 -45.5 18t-17.5 45t17.5 45t45.5 18t45.5 -18t17.5 -45t-17.5 -45t-45.5 -18zM548 270q0 -22 -3 -45h-398q8 -73 52.5 -113.5t116.5 -40.5q95 0 157 75l61 -54q-37 -51 -93 -78.5t-127 -27.5q-58 0 -106.5 19.5t-83.5 54.5t-54 84t-19 108t18.5 108
t52.5 85t80.5 56t103.5 20q53 0 97.5 -18t76.5 -51t50 -79.5t18 -102.5zM306 435q-66 0 -106 -37t-51 -101h304q-6 67 -45.5 102.5t-101.5 35.5z" />
    <glyph glyph-name="Eogonek" unicode="&#x118;" horiz-adv-x="664" 
d="M483 -103q0 -17 13 -27t45 -10h53v-74h-65q-67 0 -102 27t-35 69q0 33 23.5 63t74.5 55h-390v700h483v-90h-385v-212h364v-89h-364v-219h395v-89l1 -1q-34 -19 -55.5 -34t-34 -27.5t-17 -22.5t-4.5 -19z" />
    <glyph glyph-name="eogonek" unicode="&#x119;" horiz-adv-x="598" 
d="M548 270q0 -22 -3 -45h-398q8 -73 52.5 -113.5t116.5 -40.5q95 0 157 75l61 -54q-50 -67 -127 -92q-34 -19 -55.5 -34t-34 -27.5t-17 -22.5t-4.5 -19q0 -17 13 -27t45 -10h53v-74h-65q-67 0 -102 27t-35 69q0 29 18 56t57 50q-51 5 -93.5 26.5t-72.5 56t-46.5 80.5
t-16.5 101q0 59 18.5 108t52.5 85t80.5 56t103.5 20q53 0 97.5 -18t76.5 -51t50 -79.5t18 -102.5zM306 435q-66 0 -106 -37t-51 -101h304q-6 67 -45.5 102.5t-101.5 35.5z" />
    <glyph glyph-name="Ecaron" unicode="&#x11a;" horiz-adv-x="664" 
d="M336 840l87 94h95l-138 -150h-88l-138 150h95zM100 700h483v-90h-385v-212h364v-89h-364v-219h395v-90h-493v700z" />
    <glyph glyph-name="ecaron" unicode="&#x11b;" horiz-adv-x="598" 
d="M307 647l87 94h95l-138 -150h-88l-138 150h95zM548 270q0 -22 -3 -45h-398q8 -73 52.5 -113.5t116.5 -40.5q95 0 157 75l61 -54q-37 -51 -93 -78.5t-127 -27.5q-58 0 -106.5 19.5t-83.5 54.5t-54 84t-19 108t18.5 108t52.5 85t80.5 56t103.5 20q53 0 97.5 -18t76.5 -51
t50 -79.5t18 -102.5zM306 435q-66 0 -106 -37t-51 -101h304q-6 67 -45.5 102.5t-101.5 35.5z" />
    <glyph glyph-name="Gcircumflex" unicode="&#x11c;" horiz-adv-x="779" 
d="M455 934l138 -150h-95l-87 95l-87 -95h-95l138 150h88zM712 99q-41 -54 -114 -83.5t-165 -29.5q-86 0 -155 27t-117 75t-74 114.5t-26 145.5q0 81 26.5 148.5t74 115.5t113.5 75t145 27q93 0 164 -36t113 -101l-75 -54q-32 49 -83.5 74t-117.5 25q-58 0 -105.5 -19.5
t-81 -55.5t-52 -87t-18.5 -113q0 -63 19 -113.5t54 -85t85 -53t111 -18.5q62 0 110 16.5t75 42.5v154h-180v88h274v-279z" />
    <glyph glyph-name="gcircumflex" unicode="&#x11d;" horiz-adv-x="654" 
d="M372 741l138 -150h-95l-87 95l-87 -95h-95l138 150h88zM568 58q0 -133 -69 -202.5t-197 -69.5q-73 0 -133 22t-99 61l51 69q35 -31 81 -48.5t98 -17.5q84 0 129 46t45 140v44q-22 -47 -71 -74t-112 -27q-52 0 -96 19t-76 53.5t-50 82t-18 105.5q0 57 18 105t50 82.5
t76 53.5t96 19q63 0 112 -27.5t71 -75.5v89h94v-449zM314 87q37 0 67.5 13t52 36t33 55t11.5 70t-11.5 69.5t-33 54.5t-52 36t-67.5 13t-67.5 -13t-52.5 -36t-33.5 -54.5t-11.5 -69.5t11.5 -70t33.5 -55t52.5 -36t67.5 -13z" />
    <glyph glyph-name="Gbreve" unicode="&#x11e;" horiz-adv-x="779" 
d="M411 778q-72 0 -112.5 36.5t-40.5 97.5v6h81q0 -35 18.5 -55t53.5 -20t53.5 20t18.5 55h81v-6q0 -61 -40.5 -97.5t-112.5 -36.5zM712 99q-41 -54 -114 -83.5t-165 -29.5q-86 0 -155 27t-117 75t-74 114.5t-26 145.5q0 81 26.5 148.5t74 115.5t113.5 75t145 27
q93 0 164 -36t113 -101l-75 -54q-32 49 -83.5 74t-117.5 25q-58 0 -105.5 -19.5t-81 -55.5t-52 -87t-18.5 -113q0 -63 19 -113.5t54 -85t85 -53t111 -18.5q62 0 110 16.5t75 42.5v154h-180v88h274v-279z" />
    <glyph glyph-name="gbreve" unicode="&#x11f;" horiz-adv-x="654" 
d="M328 585q-72 0 -112.5 36.5t-40.5 97.5v6h81q0 -35 18.5 -55t53.5 -20t53.5 20t18.5 55h81v-6q0 -61 -40.5 -97.5t-112.5 -36.5zM568 58q0 -133 -69 -202.5t-197 -69.5q-73 0 -133 22t-99 61l51 69q35 -31 81 -48.5t98 -17.5q84 0 129 46t45 140v44q-22 -47 -71 -74
t-112 -27q-52 0 -96 19t-76 53.5t-50 82t-18 105.5q0 57 18 105t50 82.5t76 53.5t96 19q63 0 112 -27.5t71 -75.5v89h94v-449zM314 87q37 0 67.5 13t52 36t33 55t11.5 70t-11.5 69.5t-33 54.5t-52 36t-67.5 13t-67.5 -13t-52.5 -36t-33.5 -54.5t-11.5 -69.5t11.5 -70
t33.5 -55t52.5 -36t67.5 -13z" />
    <glyph glyph-name="Gdotaccent" unicode="&#x120;" horiz-adv-x="779" 
d="M411 800q-28 0 -45.5 18t-17.5 45t17.5 45t45.5 18t45.5 -18t17.5 -45t-17.5 -45t-45.5 -18zM712 99q-41 -54 -114 -83.5t-165 -29.5q-86 0 -155 27t-117 75t-74 114.5t-26 145.5q0 81 26.5 148.5t74 115.5t113.5 75t145 27q93 0 164 -36t113 -101l-75 -54
q-32 49 -83.5 74t-117.5 25q-58 0 -105.5 -19.5t-81 -55.5t-52 -87t-18.5 -113q0 -63 19 -113.5t54 -85t85 -53t111 -18.5q62 0 110 16.5t75 42.5v154h-180v88h274v-279z" />
    <glyph glyph-name="gdotaccent" unicode="&#x121;" horiz-adv-x="654" 
d="M328 607q-28 0 -45.5 18t-17.5 45t17.5 45t45.5 18t45.5 -18t17.5 -45t-17.5 -45t-45.5 -18zM568 58q0 -133 -69 -202.5t-197 -69.5q-73 0 -133 22t-99 61l51 69q35 -31 81 -48.5t98 -17.5q84 0 129 46t45 140v44q-22 -47 -71 -74t-112 -27q-52 0 -96 19t-76 53.5t-50 82
t-18 105.5q0 57 18 105t50 82.5t76 53.5t96 19q63 0 112 -27.5t71 -75.5v89h94v-449zM314 87q37 0 67.5 13t52 36t33 55t11.5 70t-11.5 69.5t-33 54.5t-52 36t-67.5 13t-67.5 -13t-52.5 -36t-33.5 -54.5t-11.5 -69.5t11.5 -70t33.5 -55t52.5 -36t67.5 -13z" />
    <glyph glyph-name="uni0122" unicode="&#x122;" horiz-adv-x="779" 
d="M712 99q-41 -54 -114 -83.5t-165 -29.5q-86 0 -155 27t-117 75t-74 114.5t-26 145.5q0 81 26.5 148.5t74 115.5t113.5 75t145 27q93 0 164 -36t113 -101l-75 -54q-32 49 -83.5 74t-117.5 25q-58 0 -105.5 -19.5t-81 -55.5t-52 -87t-18.5 -113q0 -63 19 -113.5t54 -85
t85 -53t111 -18.5q62 0 110 16.5t75 42.5v154h-180v88h274v-279zM376 -253v164h97l-24 -164h-73z" />
    <glyph glyph-name="uni0123" unicode="&#x123;" horiz-adv-x="654" 
d="M353 760l24 -164h-97v164h73zM568 58q0 -133 -69 -202.5t-197 -69.5q-73 0 -133 22t-99 61l51 69q35 -31 81 -48.5t98 -17.5q84 0 129 46t45 140v44q-22 -47 -71 -74t-112 -27q-52 0 -96 19t-76 53.5t-50 82t-18 105.5q0 57 18 105t50 82.5t76 53.5t96 19q63 0 112 -27.5
t71 -75.5v89h94v-449zM314 87q37 0 67.5 13t52 36t33 55t11.5 70t-11.5 69.5t-33 54.5t-52 36t-67.5 13t-67.5 -13t-52.5 -36t-33.5 -54.5t-11.5 -69.5t11.5 -70t33.5 -55t52.5 -36t67.5 -13z" />
    <glyph glyph-name="Hcircumflex" unicode="&#x124;" horiz-adv-x="780" 
d="M434 934l138 -150h-95l-87 95l-87 -95h-95l138 150h88zM582 313h-384v-313h-98v700h98v-295h384v295h99v-700h-99v313z" />
    <glyph glyph-name="hcircumflex" unicode="&#x125;" horiz-adv-x="615" 
d="M89 966h88l138 -150h-95l-87 95l-87 -95h-95zM353 521q85 0 132.5 -50.5t47.5 -144.5v-326h-94v303q0 69 -27 100t-84 31q-64 0 -106 -36t-42 -99v-299h-94v732h94v-308q22 47 67.5 72t105.5 25z" />
    <glyph glyph-name="Hbar" unicode="&#x126;" horiz-adv-x="799" 
d="M592 0v313h-385v-313h-98v514h-72v76h72v110h98v-110h385v110h98v-110h72v-76h-72v-514h-98zM592 405v109h-385v-109h385z" />
    <glyph glyph-name="hbar" unicode="&#x127;" horiz-adv-x="615" 
d="M353 507q85 0 132.5 -50.5t47.5 -144.5v-312h-94v289q0 69 -27 100t-84 31q-64 0 -106 -36t-42 -99v-285h-94v581h-85v71h85v80h94v-80h173v-71h-173v-171q22 47 67.5 72t105.5 25z" />
    <glyph glyph-name="Itilde" unicode="&#x128;" horiz-adv-x="302" 
d="M224 790q-20 0 -39.5 8t-49.5 33q-20 15 -29.5 20.5t-19.5 5.5q-14 0 -23.5 -15t-9.5 -46h-67q0 63 24.5 97t67.5 34q24 0 43 -9.5t46 -31.5q21 -17 30 -21.5t19 -4.5q14 0 23.5 14.5t9.5 46.5h67q0 -63 -24.5 -97t-67.5 -34zM102 0v700h98v-700h-98z" />
    <glyph glyph-name="itilde" unicode="&#x129;" horiz-adv-x="268" 
d="M205 597q-18 0 -36.5 8t-48.5 33q-20 15 -30 20.5t-19 5.5q-10 0 -17 -13t-7 -48h-64q0 68 21 99.5t59 31.5q22 0 40 -9.5t45 -31.5q21 -17 30.5 -21.5t18.5 -4.5q10 0 17 12.5t7 48.5h64q0 -68 -21 -99.5t-59 -31.5zM87 0v507h94v-507h-94z" />
    <glyph glyph-name="Imacron" unicode="&#x12a;" horiz-adv-x="302" 
d="M-3 805v75h308v-75h-308zM102 0v700h98v-700h-98z" />
    <glyph glyph-name="imacron" unicode="&#x12b;" horiz-adv-x="268" 
d="M3 612v75h262v-75h-262zM87 0v507h94v-507h-94z" />
    <glyph glyph-name="Ibreve" unicode="&#x12c;" horiz-adv-x="302" 
d="M151 778q-72 0 -112.5 36.5t-40.5 97.5v6h81q0 -35 18.5 -55t53.5 -20t53.5 20t18.5 55h81v-6q0 -61 -40.5 -97.5t-112.5 -36.5zM102 0v700h98v-700h-98z" />
    <glyph glyph-name="ibreve" unicode="&#x12d;" horiz-adv-x="268" 
d="M134 585q-68 0 -106.5 36.5t-38.5 97.5v6h76q0 -35 17 -55t52 -20t52 20t17 55h76v-6q0 -61 -38.5 -97.5t-106.5 -36.5zM87 0v507h94v-507h-94z" />
    <glyph glyph-name="Iogonek" unicode="&#x12e;" horiz-adv-x="302" 
d="M200 0q-34 -19 -55.5 -34t-34 -27.5t-17 -22.5t-4.5 -19q0 -17 13 -27t45 -10h53v-74h-65q-67 0 -102 27t-35 69q0 34 24.5 64.5t79.5 56.5v697h98v-700z" />
    <glyph glyph-name="iogonek" unicode="&#x12f;" horiz-adv-x="268" 
d="M134 607q-28 0 -45.5 18t-17.5 45t17.5 45t45.5 18t45.5 -18t17.5 -45t-17.5 -45t-45.5 -18zM182 0q-34 -19 -55.5 -34t-34 -27.5t-17 -22.5t-4.5 -19q0 -17 13 -27t45 -10h53v-74h-65q-67 0 -102 27t-35 69q0 35 25 65.5t82 56.5v503h94v-506z" />
    <glyph glyph-name="Idotaccent" unicode="&#x130;" horiz-adv-x="302" 
d="M151 800q-28 0 -45.5 18t-17.5 45t17.5 45t45.5 18t45.5 -18t17.5 -45t-17.5 -45t-45.5 -18zM102 0v700h98v-700h-98z" />
    <glyph glyph-name="dotlessi" unicode="&#x131;" horiz-adv-x="268" 
d="M87 0v507h94v-507h-94z" />
    <glyph glyph-name="Jcircumflex" unicode="&#x134;" horiz-adv-x="587" 
d="M360 784h-95l138 150h88l138 -150h-95l-87 95zM497 250q0 -61 -17.5 -110t-50 -83t-79 -52.5t-104.5 -18.5q-69 0 -126.5 25t-96.5 73l61 67q62 -73 158 -73q73 0 115 45t42 134v443h98v-450z" />
    <glyph glyph-name="jcircumflex" unicode="&#x135;" horiz-adv-x="268" 
d="M61 591h-91l120 150h88l120 -150h-91l-73 96zM181 -66q0 -71 -37.5 -110t-118.5 -39q-29 0 -60 6v84q25 -6 47 -6q42 0 58.5 20t16.5 58v560h94v-573z" />
    <glyph glyph-name="uni0136" unicode="&#x136;" horiz-adv-x="695" 
d="M198 306v-306h-98v700h98v-303h107l245 303h117l-286 -350l296 -350h-119l-257 306h-103zM312 -253v164h97l-24 -164h-73z" />
    <glyph glyph-name="uni0137" unicode="&#x137;" horiz-adv-x="557" 
d="M180 225v-225h-94v732h94v-424h80l169 199h110l-205 -241l209 -266h-110l-176 225h-77zM242 -253v164h97l-24 -164h-73z" />
    <glyph glyph-name="Lacute" unicode="&#x139;" horiz-adv-x="595" 
d="M302 934l-131 -150h-97l113 150h115zM100 700h98v-609h366v-91h-464v700z" />
    <glyph glyph-name="lacute" unicode="&#x13a;" horiz-adv-x="266" 
d="M58 816l113 150h115l-131 -150h-97zM86 0v732h94v-732h-94z" />
    <glyph glyph-name="uni013B" unicode="&#x13b;" horiz-adv-x="595" 
d="M100 700h98v-609h366v-91h-464v700zM273 -253v164h97l-24 -164h-73z" />
    <glyph glyph-name="uni013C" unicode="&#x13c;" horiz-adv-x="266" 
d="M86 0v732h94v-732h-94zM85 -253v164h97l-24 -164h-73z" />
    <glyph glyph-name="Lcaron" unicode="&#x13d;" horiz-adv-x="595" 
d="M431 714l-23 -199h-73v199h96zM100 700h98v-609h366v-91h-464v700z" />
    <glyph glyph-name="lcaron" unicode="&#x13e;" horiz-adv-x="332" 
d="M86 0v732h94v-732h-94zM256 533v199h96l-23 -199h-73z" />
    <glyph glyph-name="Ldot" unicode="&#x13f;" horiz-adv-x="601" 
d="M100 700h98v-609h366v-91h-464v700zM399 295q-31 0 -48.5 18.5t-17.5 48.5q0 29 17.5 46.5t48.5 17.5q30 0 47.5 -17.5t17.5 -46.5q0 -30 -17.5 -48.5t-47.5 -18.5z" />
    <glyph glyph-name="ldot" unicode="&#x140;" horiz-adv-x="401" 
d="M86 0v732h94v-732h-94zM324 296q-30 0 -47.5 18t-17.5 48q0 29 17.5 47t47.5 18q31 0 48.5 -18t17.5 -47q0 -30 -17.5 -48t-48.5 -18z" />
    <glyph glyph-name="Lslash" unicode="&#x141;" horiz-adv-x="609" 
d="M114 254l-104 -54v88l104 54v358h99v-307l233 121v-88l-233 -121v-214h365v-91h-464v254z" />
    <glyph glyph-name="lslash" unicode="&#x142;" horiz-adv-x="335" 
d="M120 0v323l-105 -57v84l105 57v325h94v-274l106 57v-83l-106 -58v-374h-94z" />
    <glyph glyph-name="Nacute" unicode="&#x143;" horiz-adv-x="792" 
d="M550 934l-131 -150h-97l113 150h115zM196 544v-544h-96v700h91l406 -544v544h96v-700h-92z" />
    <glyph glyph-name="nacute" unicode="&#x144;" horiz-adv-x="615" 
d="M463 741l-131 -150h-97l113 150h115zM353 521q85 0 132.5 -50.5t47.5 -144.5v-326h-94v303q0 69 -27 100t-84 31q-64 0 -106 -36t-42 -99v-299h-94v507h94v-83q22 47 67.5 72t105.5 25z" />
    <glyph glyph-name="uni0145" unicode="&#x145;" horiz-adv-x="792" 
d="M196 544v-544h-96v700h91l406 -544v544h96v-700h-92zM348 -253v164h97l-24 -164h-73z" />
    <glyph glyph-name="uni0146" unicode="&#x146;" horiz-adv-x="615" 
d="M353 521q85 0 132.5 -50.5t47.5 -144.5v-326h-94v303q0 69 -27 100t-84 31q-64 0 -106 -36t-42 -99v-299h-94v507h94v-83q22 47 67.5 72t105.5 25zM259 -253v164h97l-24 -164h-73z" />
    <glyph glyph-name="Ncaron" unicode="&#x147;" horiz-adv-x="792" 
d="M396 840l87 94h95l-138 -150h-88l-138 150h95zM196 544v-544h-96v700h91l406 -544v544h96v-700h-92z" />
    <glyph glyph-name="ncaron" unicode="&#x148;" horiz-adv-x="615" 
d="M309 647l87 94h95l-138 -150h-88l-138 150h95zM353 521q85 0 132.5 -50.5t47.5 -144.5v-326h-94v303q0 69 -27 100t-84 31q-64 0 -106 -36t-42 -99v-299h-94v507h94v-83q22 47 67.5 72t105.5 25z" />
    <glyph glyph-name="Eng" unicode="&#x14a;" horiz-adv-x="792" 
d="M693 -41q0 -64 -36 -99.5t-111 -35.5h-69v85h56q35 0 50.5 15t15.5 47v32l-403 541v-544h-96v700h91l406 -544v544h96v-741z" />
    <glyph glyph-name="eng" unicode="&#x14b;" horiz-adv-x="615" 
d="M353 521q85 0 132.5 -50.5t47.5 -144.5v-354q0 -71 -37.5 -110.5t-118.5 -39.5q-16 0 -30 1.5t-30 4.5v84q12 -3 23.5 -4t23.5 -1q41 0 58 19t17 56v321q0 69 -27 100t-84 31q-64 0 -106 -36t-42 -99v-299h-94v507h94v-83q22 47 67.5 72t105.5 25z" />
    <glyph glyph-name="Omacron" unicode="&#x14c;" horiz-adv-x="841" 
d="M266 805v75h308v-75h-308zM420 -14q-79 0 -145.5 28.5t-113.5 77.5t-73.5 115.5t-26.5 142.5t26.5 142.5t73.5 115.5t113.5 77.5t145.5 28.5q80 0 146 -28.5t113.5 -77.5t74 -115.5t26.5 -142.5t-26.5 -142.5t-74 -115.5t-113.5 -77.5t-146 -28.5zM420 78
q57 0 104.5 20.5t81.5 56.5t52.5 86t18.5 109t-18.5 109t-52.5 86t-81.5 56.5t-104.5 20.5t-104 -20.5t-81 -56.5t-52.5 -86t-18.5 -109t18.5 -109t52.5 -86t81 -56.5t104 -20.5z" />
    <glyph glyph-name="omacron" unicode="&#x14d;" horiz-adv-x="627" 
d="M160 612v75h308v-75h-308zM314 -14q-60 0 -108.5 21.5t-83 58t-53 85t-18.5 102.5t18.5 103t53 85.5t83 58t108.5 21.5t108 -21.5t82.5 -58t53 -85.5t18.5 -103t-18.5 -102.5t-53 -85t-82.5 -58t-108 -21.5zM314 73q37 0 67.5 13.5t52 37.5t33 57t11.5 72q0 40 -11.5 73
t-33 57t-52 37.5t-67.5 13.5t-67.5 -13.5t-52.5 -37.5t-33.5 -57t-11.5 -73q0 -39 11.5 -72t33.5 -57t52.5 -37.5t67.5 -13.5z" />
    <glyph glyph-name="Obreve" unicode="&#x14e;" horiz-adv-x="841" 
d="M420 778q-72 0 -112.5 36.5t-40.5 97.5v6h81q0 -35 18.5 -55t53.5 -20t53.5 20t18.5 55h81v-6q0 -61 -40.5 -97.5t-112.5 -36.5zM420 -14q-79 0 -145.5 28.5t-113.5 77.5t-73.5 115.5t-26.5 142.5t26.5 142.5t73.5 115.5t113.5 77.5t145.5 28.5q80 0 146 -28.5
t113.5 -77.5t74 -115.5t26.5 -142.5t-26.5 -142.5t-74 -115.5t-113.5 -77.5t-146 -28.5zM420 78q57 0 104.5 20.5t81.5 56.5t52.5 86t18.5 109t-18.5 109t-52.5 86t-81.5 56.5t-104.5 20.5t-104 -20.5t-81 -56.5t-52.5 -86t-18.5 -109t18.5 -109t52.5 -86t81 -56.5
t104 -20.5z" />
    <glyph glyph-name="obreve" unicode="&#x14f;" horiz-adv-x="627" 
d="M314 585q-72 0 -112.5 36.5t-40.5 97.5v6h81q0 -35 18.5 -55t53.5 -20t53.5 20t18.5 55h81v-6q0 -61 -40.5 -97.5t-112.5 -36.5zM314 -14q-60 0 -108.5 21.5t-83 58t-53 85t-18.5 102.5t18.5 103t53 85.5t83 58t108.5 21.5t108 -21.5t82.5 -58t53 -85.5t18.5 -103
t-18.5 -102.5t-53 -85t-82.5 -58t-108 -21.5zM314 73q37 0 67.5 13.5t52 37.5t33 57t11.5 72q0 40 -11.5 73t-33 57t-52 37.5t-67.5 13.5t-67.5 -13.5t-52.5 -37.5t-33.5 -57t-11.5 -73q0 -39 11.5 -72t33.5 -57t52.5 -37.5t67.5 -13.5z" />
    <glyph glyph-name="Ohungarumlaut" unicode="&#x150;" horiz-adv-x="841" 
d="M253 784l114 150h99l-120 -150h-93zM438 784l114 150h99l-119 -150h-94zM420 -14q-79 0 -145.5 28.5t-113.5 77.5t-73.5 115.5t-26.5 142.5t26.5 142.5t73.5 115.5t113.5 77.5t145.5 28.5q80 0 146 -28.5t113.5 -77.5t74 -115.5t26.5 -142.5t-26.5 -142.5t-74 -115.5
t-113.5 -77.5t-146 -28.5zM420 78q57 0 104.5 20.5t81.5 56.5t52.5 86t18.5 109t-18.5 109t-52.5 86t-81.5 56.5t-104.5 20.5t-104 -20.5t-81 -56.5t-52.5 -86t-18.5 -109t18.5 -109t52.5 -86t81 -56.5t104 -20.5z" />
    <glyph glyph-name="ohungarumlaut" unicode="&#x151;" horiz-adv-x="627" 
d="M147 591l114 150h99l-120 -150h-93zM332 591l114 150h99l-119 -150h-94zM314 -14q-60 0 -108.5 21.5t-83 58t-53 85t-18.5 102.5t18.5 103t53 85.5t83 58t108.5 21.5t108 -21.5t82.5 -58t53 -85.5t18.5 -103t-18.5 -102.5t-53 -85t-82.5 -58t-108 -21.5zM314 73
q37 0 67.5 13.5t52 37.5t33 57t11.5 72q0 40 -11.5 73t-33 57t-52 37.5t-67.5 13.5t-67.5 -13.5t-52.5 -37.5t-33.5 -57t-11.5 -73q0 -39 11.5 -72t33.5 -57t52.5 -37.5t67.5 -13.5z" />
    <glyph glyph-name="OE" unicode="&#x152;" horiz-adv-x="1112" 
d="M433 0q-87 0 -156 26.5t-117 73.5t-73.5 111t-25.5 139t25.5 139t73.5 111t117 73.5t156 26.5h599v-90h-386v-212h365v-89h-365v-219h396v-90h-609zM436 609q-66 0 -117 -19t-85.5 -53t-52 -81.5t-17.5 -105.5t17.5 -105.5t52 -81.5t85.5 -53t117 -19h112v518h-112z" />
    <glyph glyph-name="oe" unicode="&#x153;" horiz-adv-x="1024" 
d="M974 270q0 -22 -3 -45h-398q8 -73 52.5 -113.5t116.5 -40.5q96 0 156 75l61 -54q-35 -50 -91 -78t-128 -28q-75 0 -130 31.5t-86 86.5q-30 -54 -82.5 -86t-127.5 -32q-60 0 -108.5 21.5t-83 58t-53 85t-18.5 102.5t18.5 103t53 85.5t83 58t108.5 21.5q75 0 127.5 -32.5
t82.5 -86.5q29 55 82 87t126 32q53 0 97.5 -18t76.5 -50.5t50 -79t18 -103.5zM732 435q-66 0 -106.5 -37t-51.5 -101h305q-6 67 -45.5 102.5t-101.5 35.5zM314 73q37 0 67.5 13.5t52 37.5t33 57t11.5 72q0 40 -11.5 73t-33 57t-52 37.5t-67.5 13.5t-67.5 -13.5t-52.5 -37.5
t-33.5 -57t-11.5 -73q0 -39 11.5 -72t33.5 -57t52.5 -37.5t67.5 -13.5z" />
    <glyph glyph-name="Racute" unicode="&#x154;" horiz-adv-x="695" 
d="M493 934l-131 -150h-97l113 150h115zM100 0v700h292q113 0 175.5 -57.5t62.5 -158.5q0 -94 -55.5 -148.5t-156.5 -61.5l228 -274h-118l-224 273h-106v-273h-98zM384 361q77 0 110 30t33 93q0 64 -33 95t-110 31h-186v-249h186z" />
    <glyph glyph-name="racute" unicode="&#x155;" horiz-adv-x="407" 
d="M371 741l-131 -150h-97l113 150h115zM333 515q25 0 45 -7v-85q-12 2 -24 3t-23 1q-71 0 -111 -40.5t-40 -129.5v-257h-94v507h94v-91q18 47 58 73t95 26z" />
    <glyph glyph-name="uni0156" unicode="&#x156;" horiz-adv-x="695" 
d="M198 273v-273h-98v700h292q113 0 175.5 -57.5t62.5 -158.5q0 -94 -55.5 -148.5t-156.5 -61.5l228 -274h-118l-224 273h-106zM384 361q77 0 110 30t33 93q0 64 -33 95t-110 31h-186v-249h186zM302 -253v164h97l-24 -164h-73z" />
    <glyph glyph-name="uni0157" unicode="&#x157;" horiz-adv-x="407" 
d="M333 515q25 0 45 -7v-85q-12 2 -24 3t-23 1q-71 0 -111 -40.5t-40 -129.5v-257h-94v507h94v-91q18 47 58 73t95 26zM85 -253v164h97l-24 -164h-73z" />
    <glyph glyph-name="Rcaron" unicode="&#x158;" horiz-adv-x="695" 
d="M340 840l87 94h95l-138 -150h-88l-138 150h95zM100 0v700h292q113 0 175.5 -57.5t62.5 -158.5q0 -94 -55.5 -148.5t-156.5 -61.5l228 -274h-118l-224 273h-106v-273h-98zM384 361q77 0 110 30t33 93q0 64 -33 95t-110 31h-186v-249h186z" />
    <glyph glyph-name="rcaron" unicode="&#x159;" horiz-adv-x="407" 
d="M218 647l87 94h95l-138 -150h-88l-138 150h95zM180 416q18 47 58 73t95 26q25 0 45 -7v-85q-12 2 -24 3t-23 1q-71 0 -111 -40.5t-40 -129.5v-257h-94v507h94v-91z" />
    <glyph glyph-name="Sacute" unicode="&#x15a;" horiz-adv-x="638" 
d="M245 784l113 150h115l-131 -150h-97zM329 -14q-108 0 -181 43.5t-105 118.5l77 47q29 -59 83.5 -89.5t127.5 -30.5q76 0 118.5 31.5t42.5 84.5q0 40 -28 66t-92 42l-113 27q-195 47 -195 189q0 44 17.5 80.5t50.5 62.5t80 41t106 15q97 0 164 -35.5t94 -92.5l-75 -49
q-26 43 -73.5 65.5t-110.5 22.5q-73 0 -113 -29t-40 -80q0 -38 26.5 -62.5t95.5 -40.5l113 -28q103 -24 148.5 -71t45.5 -119q0 -46 -17.5 -84.5t-51.5 -66.5t-83 -43t-112 -15z" />
    <glyph glyph-name="sacute" unicode="&#x15b;" horiz-adv-x="514" 
d="M184 591l113 150h115l-131 -150h-97zM267 -14q-78 0 -137.5 29t-89.5 78l62 53q29 -38 71.5 -57.5t93.5 -19.5q52 0 80.5 19.5t28.5 51.5q0 25 -18.5 41t-65.5 27l-81 18q-79 19 -116 53.5t-37 88.5q0 67 53 110t148 43q68 0 119.5 -22.5t83.5 -62.5l-60 -57
q-55 58 -147 58q-52 0 -77.5 -18t-25.5 -48q0 -23 17.5 -38t67.5 -26l89 -20q78 -17 111 -52.5t33 -87.5q0 -73 -53 -117t-150 -44z" />
    <glyph glyph-name="Scircumflex" unicode="&#x15c;" horiz-adv-x="638" 
d="M364 934l138 -150h-95l-87 95l-87 -95h-95l138 150h88zM399 385q103 -24 148.5 -71t45.5 -119q0 -46 -17.5 -84.5t-51.5 -66.5t-83 -43t-112 -15q-108 0 -181 43.5t-105 118.5l77 47q29 -59 83.5 -89.5t127.5 -30.5q76 0 118.5 31.5t42.5 84.5q0 40 -28 66t-92 42
l-113 27q-195 47 -195 189q0 44 17.5 80.5t50.5 62.5t80 41t106 15q97 0 164 -35.5t94 -92.5l-75 -49q-26 43 -73.5 65.5t-110.5 22.5q-73 0 -113 -29t-40 -80q0 -38 26.5 -62.5t95.5 -40.5z" />
    <glyph glyph-name="scircumflex" unicode="&#x15d;" horiz-adv-x="514" 
d="M302 741l138 -150h-95l-87 95l-87 -95h-95l138 150h88zM326 287q78 -17 111 -52.5t33 -87.5q0 -73 -53 -117t-150 -44q-78 0 -137.5 29t-89.5 78l62 53q29 -38 71.5 -57.5t93.5 -19.5q52 0 80.5 19.5t28.5 51.5q0 25 -18.5 41t-65.5 27l-81 18q-79 19 -116 53.5t-37 88.5
q0 67 53 110t148 43q68 0 119.5 -22.5t83.5 -62.5l-60 -57q-55 58 -147 58q-52 0 -77.5 -18t-25.5 -48q0 -23 17.5 -38t67.5 -26z" />
    <glyph glyph-name="Scedilla" unicode="&#x15e;" horiz-adv-x="638" 
d="M593 195q0 -86 -58 -142t-166 -65l-52 -180h-99l67 180q-91 9 -152 51t-90 109l77 47q29 -59 83.5 -89.5t127.5 -30.5q76 0 118.5 31.5t42.5 84.5q0 40 -28 66t-92 42l-113 27q-195 47 -195 189q0 44 17.5 80.5t50.5 62.5t80 41t106 15q97 0 164 -35.5t94 -92.5l-75 -49
q-26 43 -73.5 65.5t-110.5 22.5q-73 0 -113 -29t-40 -80q0 -38 26.5 -62.5t95.5 -40.5l113 -28q103 -24 148.5 -71t45.5 -119z" />
    <glyph glyph-name="scedilla" unicode="&#x15f;" horiz-adv-x="514" 
d="M470 147q0 -66 -43.5 -108.5t-124.5 -50.5l-52 -180h-99l68 181q-62 8 -107.5 35t-71.5 69l62 53q29 -38 71.5 -57.5t93.5 -19.5q52 0 80.5 19.5t28.5 51.5q0 25 -18.5 41t-65.5 27l-81 18q-79 19 -116 53.5t-37 88.5q0 67 53 110t148 43q68 0 119.5 -22.5t83.5 -62.5
l-60 -57q-55 58 -147 58q-52 0 -77.5 -18t-25.5 -48q0 -23 17.5 -38t67.5 -26l89 -20q78 -17 111 -52.5t33 -87.5z" />
    <glyph glyph-name="Scaron" unicode="&#x160;" horiz-adv-x="638" 
d="M320 840l87 94h95l-138 -150h-88l-138 150h95zM399 385q103 -24 148.5 -71t45.5 -119q0 -46 -17.5 -84.5t-51.5 -66.5t-83 -43t-112 -15q-108 0 -181 43.5t-105 118.5l77 47q29 -59 83.5 -89.5t127.5 -30.5q76 0 118.5 31.5t42.5 84.5q0 40 -28 66t-92 42l-113 27
q-195 47 -195 189q0 44 17.5 80.5t50.5 62.5t80 41t106 15q97 0 164 -35.5t94 -92.5l-75 -49q-26 43 -73.5 65.5t-110.5 22.5q-73 0 -113 -29t-40 -80q0 -38 26.5 -62.5t95.5 -40.5z" />
    <glyph glyph-name="scaron" unicode="&#x161;" horiz-adv-x="514" 
d="M258 647l87 94h95l-138 -150h-88l-138 150h95zM326 287q78 -17 111 -52.5t33 -87.5q0 -73 -53 -117t-150 -44q-78 0 -137.5 29t-89.5 78l62 53q29 -38 71.5 -57.5t93.5 -19.5q52 0 80.5 19.5t28.5 51.5q0 25 -18.5 41t-65.5 27l-81 18q-79 19 -116 53.5t-37 88.5
q0 67 53 110t148 43q68 0 119.5 -22.5t83.5 -62.5l-60 -57q-55 58 -147 58q-52 0 -77.5 -18t-25.5 -48q0 -23 17.5 -38t67.5 -26z" />
    <glyph glyph-name="uni0162" unicode="&#x162;" horiz-adv-x="608" 
d="M353 0h-6l-55 -192h-99l72 192h-10v609h-230v91h558v-91h-230v-609z" />
    <glyph glyph-name="uni0163" unicode="&#x163;" horiz-adv-x="413" 
d="M298 75q35 0 78 9v-79q-25 -8 -49 -10.5t-44 -2.5h-3l-53 -184h-99l74 197q-77 30 -77 130v291h-100v81h100v150h94v-150h155v-81h-155v-282q0 -38 18.5 -53.5t60.5 -15.5z" />
    <glyph glyph-name="Tcaron" unicode="&#x164;" horiz-adv-x="608" 
d="M304 840l87 94h95l-138 -150h-88l-138 150h95zM353 0h-98v609h-230v91h558v-91h-230v-609z" />
    <glyph glyph-name="tcaron" unicode="&#x165;" horiz-adv-x="413" 
d="M294 578v199h96l-23 -199h-73zM283 -8q-158 0 -158 143v291h-100v81h100v150h94v-150h155v-81h-155v-282q0 -38 18.5 -53.5t60.5 -15.5q35 0 78 9v-79q-25 -8 -49 -10.5t-44 -2.5z" />
    <glyph glyph-name="Tbar" unicode="&#x166;" horiz-adv-x="608" 
d="M495 318h-142v-318h-98v318h-142v80h142v211h-230v91h558v-91h-230v-211h142v-80z" />
    <glyph glyph-name="tbar" unicode="&#x167;" horiz-adv-x="413" 
d="M298 75q35 0 78 9v-79q-25 -8 -49 -10.5t-44 -2.5q-158 0 -158 143v97h-90v70h90v124h-100v81h100v150h94v-150h155v-81h-155v-124h133v-70h-133v-88q0 -38 18.5 -53.5t60.5 -15.5z" />
    <glyph glyph-name="Utilde" unicode="&#x168;" horiz-adv-x="754" 
d="M450 790q-20 0 -39.5 8t-49.5 33q-20 15 -29.5 20.5t-19.5 5.5q-14 0 -23.5 -15t-9.5 -46h-67q0 63 24.5 97t67.5 34q24 0 43 -9.5t46 -31.5q21 -17 30 -21.5t19 -4.5q14 0 23.5 14.5t9.5 46.5h67q0 -63 -24.5 -97t-67.5 -34zM377 -14q-66 0 -119.5 18t-90.5 52t-57 83.5
t-20 112.5v448h98v-439q0 -183 189 -183t189 183v439h98v-448q0 -63 -20 -112.5t-57 -83.5t-90.5 -52t-119.5 -18z" />
    <glyph glyph-name="utilde" unicode="&#x169;" horiz-adv-x="595" 
d="M370 597q-20 0 -39.5 8t-49.5 33q-20 15 -29.5 20.5t-19.5 5.5q-14 0 -23.5 -15t-9.5 -46h-67q0 63 24.5 97t67.5 34q24 0 43 -9.5t46 -31.5q21 -17 30 -21.5t19 -4.5q14 0 23.5 14.5t9.5 46.5h67q0 -63 -24.5 -97t-67.5 -34zM297 -14q-50 0 -91 14.5t-70 41.5
t-44.5 64.5t-15.5 83.5v317h94v-310q0 -62 33.5 -93t93.5 -31q61 0 94 31t33 93v310h94v-317q0 -46 -15.5 -83.5t-44.5 -64.5t-69.5 -41.5t-91.5 -14.5z" />
    <glyph glyph-name="Umacron" unicode="&#x16a;" horiz-adv-x="754" 
d="M223 805v75h308v-75h-308zM377 -14q-66 0 -119.5 18t-90.5 52t-57 83.5t-20 112.5v448h98v-439q0 -183 189 -183t189 183v439h98v-448q0 -63 -20 -112.5t-57 -83.5t-90.5 -52t-119.5 -18z" />
    <glyph glyph-name="umacron" unicode="&#x16b;" horiz-adv-x="595" 
d="M143 612v75h308v-75h-308zM297 -14q-50 0 -91 14.5t-70 41.5t-44.5 64.5t-15.5 83.5v317h94v-310q0 -62 33.5 -93t93.5 -31q61 0 94 31t33 93v310h94v-317q0 -46 -15.5 -83.5t-44.5 -64.5t-69.5 -41.5t-91.5 -14.5z" />
    <glyph glyph-name="Ubreve" unicode="&#x16c;" horiz-adv-x="754" 
d="M377 778q-72 0 -112.5 36.5t-40.5 97.5v6h81q0 -35 18.5 -55t53.5 -20t53.5 20t18.5 55h81v-6q0 -61 -40.5 -97.5t-112.5 -36.5zM377 -14q-66 0 -119.5 18t-90.5 52t-57 83.5t-20 112.5v448h98v-439q0 -183 189 -183t189 183v439h98v-448q0 -63 -20 -112.5t-57 -83.5
t-90.5 -52t-119.5 -18z" />
    <glyph glyph-name="ubreve" unicode="&#x16d;" horiz-adv-x="595" 
d="M297 585q-72 0 -112.5 36.5t-40.5 97.5v6h81q0 -35 18.5 -55t53.5 -20t53.5 20t18.5 55h81v-6q0 -61 -40.5 -97.5t-112.5 -36.5zM297 -14q-50 0 -91 14.5t-70 41.5t-44.5 64.5t-15.5 83.5v317h94v-310q0 -62 33.5 -93t93.5 -31q61 0 94 31t33 93v310h94v-317
q0 -46 -15.5 -83.5t-44.5 -64.5t-69.5 -41.5t-91.5 -14.5z" />
    <glyph glyph-name="Uring" unicode="&#x16e;" horiz-adv-x="754" 
d="M377 771q-27 0 -50 9.5t-40 25.5t-26.5 37.5t-9.5 46.5t9.5 47t26.5 38t40 25.5t50 9.5t50 -9.5t40 -25.5t26.5 -38t9.5 -47t-9.5 -46.5t-26.5 -37.5t-40 -25.5t-50 -9.5zM377 833q27 0 42.5 16t15.5 41q0 26 -15.5 42t-42.5 16t-42.5 -16t-15.5 -42q0 -25 15.5 -41
t42.5 -16zM377 -14q-66 0 -119.5 18t-90.5 52t-57 83.5t-20 112.5v448h98v-439q0 -183 189 -183t189 183v439h98v-448q0 -63 -20 -112.5t-57 -83.5t-90.5 -52t-119.5 -18z" />
    <glyph glyph-name="uring" unicode="&#x16f;" horiz-adv-x="595" 
d="M297 578q-27 0 -50 9.5t-40 25.5t-26.5 37.5t-9.5 46.5t9.5 47t26.5 38t40 25.5t50 9.5t50 -9.5t40 -25.5t26.5 -38t9.5 -47t-9.5 -46.5t-26.5 -37.5t-40 -25.5t-50 -9.5zM297 640q27 0 42.5 16t15.5 41q0 26 -15.5 42t-42.5 16t-42.5 -16t-15.5 -42q0 -25 15.5 -41
t42.5 -16zM297 -14q-50 0 -91 14.5t-70 41.5t-44.5 64.5t-15.5 83.5v317h94v-310q0 -62 33.5 -93t93.5 -31q61 0 94 31t33 93v310h94v-317q0 -46 -15.5 -83.5t-44.5 -64.5t-69.5 -41.5t-91.5 -14.5z" />
    <glyph glyph-name="Uhungarumlaut" unicode="&#x170;" horiz-adv-x="754" 
d="M210 784l114 150h99l-120 -150h-93zM395 784l114 150h99l-119 -150h-94zM377 -14q-66 0 -119.5 18t-90.5 52t-57 83.5t-20 112.5v448h98v-439q0 -183 189 -183t189 183v439h98v-448q0 -63 -20 -112.5t-57 -83.5t-90.5 -52t-119.5 -18z" />
    <glyph glyph-name="uhungarumlaut" unicode="&#x171;" horiz-adv-x="595" 
d="M130 591l114 150h99l-120 -150h-93zM315 591l114 150h99l-119 -150h-94zM297 -14q-50 0 -91 14.5t-70 41.5t-44.5 64.5t-15.5 83.5v317h94v-310q0 -62 33.5 -93t93.5 -31q61 0 94 31t33 93v310h94v-317q0 -46 -15.5 -83.5t-44.5 -64.5t-69.5 -41.5t-91.5 -14.5z" />
    <glyph glyph-name="Uogonek" unicode="&#x172;" horiz-adv-x="754" 
d="M664 252q0 -109 -57 -176t-159 -84q-58 -35 -77.5 -56.5t-19.5 -38.5t13 -27t45 -10h53v-74h-65q-67 0 -102 27t-35 69q0 29 18 56t58 50q-115 11 -180.5 79t-65.5 185v448h98v-439q0 -183 189 -183t189 183v439h98v-448z" />
    <glyph glyph-name="uogonek" unicode="&#x173;" horiz-adv-x="595" 
d="M518 190q0 -71 -35 -120.5t-98 -70.5q-33 -19 -54.5 -34t-34 -27t-17 -22t-4.5 -19q0 -17 13 -27t45 -10h53v-74h-65q-67 0 -102 27t-35 69q0 29 18 56t58 50q-85 11 -134.5 64.5t-49.5 137.5v317h94v-310q0 -62 33.5 -93t93.5 -31q61 0 94 31t33 93v310h94v-317z" />
    <glyph glyph-name="Wcircumflex" unicode="&#x174;" horiz-adv-x="1049" 
d="M568 934l138 -150h-95l-87 95l-87 -95h-95l138 150h88zM525 568l-180 -568h-102l-215 700h99l171 -564l178 564h97l178 -566l171 566h99l-216 -700h-101z" />
    <glyph glyph-name="wcircumflex" unicode="&#x175;" horiz-adv-x="837" 
d="M462 741l138 -150h-95l-87 95l-87 -95h-95l138 150h88zM418 397l-130 -397h-103l-164 507h95l123 -395l130 395h99l129 -394l124 394h95l-164 -507h-104z" />
    <glyph glyph-name="Ycircumflex" unicode="&#x176;" horiz-adv-x="647" 
d="M367 934l138 -150h-95l-87 95l-87 -95h-95l138 150h88zM274 0v288l-268 412h111l207 -325l206 325h111l-268 -412v-288h-99z" />
    <glyph glyph-name="ycircumflex" unicode="&#x177;" horiz-adv-x="607" 
d="M341 741l138 -150h-95l-87 95l-87 -95h-95l138 150h88zM521 50q0 -130 -66 -197t-185 -67q-65 0 -120.5 19.5t-91.5 55.5l51 67q32 -28 73 -42t84 -14q77 0 119 43.5t42 134.5v48q-22 -47 -68.5 -72t-106.5 -25q-83 0 -130.5 49.5t-47.5 145.5v311h94v-288
q0 -70 27.5 -100.5t82.5 -30.5q66 0 107.5 36.5t41.5 98.5v284h94v-457z" />
    <glyph glyph-name="Ydieresis" unicode="&#x178;" horiz-adv-x="647" 
d="M214 800q-28 0 -45.5 18t-17.5 45t17.5 45t45.5 18t45.5 -18t17.5 -45t-17.5 -45t-45.5 -18zM432 800q-28 0 -45.5 18t-17.5 45t17.5 45t45.5 18t45.5 -18t17.5 -45t-17.5 -45t-45.5 -18zM274 0v288l-268 412h111l207 -325l206 325h111l-268 -412v-288h-99z" />
    <glyph glyph-name="Zacute" unicode="&#x179;" horiz-adv-x="608" 
d="M458 934l-131 -150h-97l113 150h115zM45 75l390 536h-377v89h499v-75l-390 -536h396v-89h-518v75z" />
    <glyph glyph-name="zacute" unicode="&#x17a;" horiz-adv-x="504" 
d="M406 741l-131 -150h-97l113 150h115zM48 69l287 356h-279v82h396v-70l-287 -355h291v-82h-408v69z" />
    <glyph glyph-name="Zdotaccent" unicode="&#x17b;" horiz-adv-x="608" 
d="M305 800q-28 0 -45.5 18t-17.5 45t17.5 45t45.5 18t45.5 -18t17.5 -45t-17.5 -45t-45.5 -18zM45 75l390 536h-377v89h499v-75l-390 -536h396v-89h-518v75z" />
    <glyph glyph-name="zdotaccent" unicode="&#x17c;" horiz-adv-x="504" 
d="M253 607q-28 0 -45.5 18t-17.5 45t17.5 45t45.5 18t45.5 -18t17.5 -45t-17.5 -45t-45.5 -18zM48 69l287 356h-279v82h396v-70l-287 -355h291v-82h-408v69z" />
    <glyph glyph-name="Zcaron" unicode="&#x17d;" horiz-adv-x="608" 
d="M305 840l87 94h95l-138 -150h-88l-138 150h95zM45 75l390 536h-377v89h499v-75l-390 -536h396v-89h-518v75z" />
    <glyph glyph-name="zcaron" unicode="&#x17e;" horiz-adv-x="504" 
d="M253 647l87 94h95l-138 -150h-88l-138 150h95zM48 69l287 356h-279v82h396v-70l-287 -355h291v-82h-408v69z" />
    <glyph glyph-name="florin" unicode="&#x192;" horiz-adv-x="490" 
d="M417 613q-43 0 -62 -17t-28 -63l-20 -105h128v-73h-142l-69 -366q-14 -69 -53.5 -99t-118.5 -30h-40v87h34q43 0 62.5 17.5t27.5 63.5l63 327h-121v73h134l28 144q13 68 52.5 98t118.5 30h41v-87h-35z" />
    <glyph glyph-name="uni01CD" unicode="&#x1cd;" horiz-adv-x="716" 
d="M358 840l87 94h95l-138 -150h-88l-138 150h95zM20 0l283 700h110l282 -700h-102l-72 184h-327l-72 -184h-102zM487 271l-129 333l-130 -333h259z" />
    <glyph glyph-name="uni01CE" unicode="&#x1ce;" horiz-adv-x="654" 
d="M337 647l87 94h95l-138 -150h-88l-138 150h95zM474 90q-22 -48 -71 -76t-112 -28q-52 0 -96 19.5t-76 55t-50 84.5t-18 108q0 60 18 109t50 84.5t76 55t96 19.5q63 0 112 -28t71 -76v90h94v-507h-94v90zM314 73q37 0 67.5 13.5t52 37.5t33 57t11.5 72q0 40 -11.5 73
t-33 57t-52 37.5t-67.5 13.5t-67.5 -13.5t-52.5 -37.5t-33.5 -57t-11.5 -73q0 -39 11.5 -72t33.5 -57t52.5 -37.5t67.5 -13.5z" />
    <glyph glyph-name="uni01E2" unicode="&#x1e2;" horiz-adv-x="1101" 
d="M882 880v-75h-308v75h308zM537 172h-293l-117 -172h-113l480 700h527v-90h-386v-211h367v-91h-367v-218h396v-90h-494v172zM537 260v342l-233 -342h233z" />
    <glyph glyph-name="uni01E3" unicode="&#x1e3;" horiz-adv-x="947" 
d="M635 687v-75h-308v75h308zM898 270q0 -23 -3 -44h-395q8 -74 53 -114.5t115 -40.5q45 0 84 18.5t70 56.5l61 -54q-36 -51 -92 -78.5t-126 -27.5q-75 0 -129 31t-84 88q-23 -54 -78 -86.5t-133 -32.5q-88 0 -139 42t-51 115q0 72 53 112.5t160 40.5h141v34
q0 51 -30.5 78.5t-85.5 27.5q-93 0 -149 -70l-59 58q35 45 90 71t125 26q129 0 174 -94q31 45 78.5 69.5t109.5 24.5q53 0 97 -18.5t76 -51.5t49.5 -79t17.5 -102zM658 435q-66 0 -105.5 -37.5t-50.5 -101.5h302q-6 68 -44.5 103.5t-101.5 35.5zM249 62q35 0 63.5 11
t49.5 30t32.5 45t11.5 56v22h-138q-63 0 -92 -20t-29 -60q0 -39 26.5 -61.5t75.5 -22.5z" />
    <glyph glyph-name="Gcaron" unicode="&#x1e6;" horiz-adv-x="779" 
d="M411 840l87 94h95l-138 -150h-88l-138 150h95zM712 99q-41 -54 -114 -83.5t-165 -29.5q-86 0 -155 27t-117 75t-74 114.5t-26 145.5q0 81 26.5 148.5t74 115.5t113.5 75t145 27q93 0 164 -36t113 -101l-75 -54q-32 49 -83.5 74t-117.5 25q-58 0 -105.5 -19.5t-81 -55.5
t-52 -87t-18.5 -113q0 -63 19 -113.5t54 -85t85 -53t111 -18.5q62 0 110 16.5t75 42.5v154h-180v88h274v-279z" />
    <glyph glyph-name="gcaron" unicode="&#x1e7;" horiz-adv-x="654" 
d="M328 647l87 94h95l-138 -150h-88l-138 150h95zM568 58q0 -133 -69 -202.5t-197 -69.5q-73 0 -133 22t-99 61l51 69q35 -31 81 -48.5t98 -17.5q84 0 129 46t45 140v44q-22 -47 -71 -74t-112 -27q-52 0 -96 19t-76 53.5t-50 82t-18 105.5q0 57 18 105t50 82.5t76 53.5
t96 19q63 0 112 -27.5t71 -75.5v89h94v-449zM314 87q37 0 67.5 13t52 36t33 55t11.5 70t-11.5 69.5t-33 54.5t-52 36t-67.5 13t-67.5 -13t-52.5 -36t-33.5 -54.5t-11.5 -69.5t11.5 -70t33.5 -55t52.5 -36t67.5 -13z" />
    <glyph glyph-name="uni01E8" unicode="&#x1e8;" horiz-adv-x="695" 
d="M357 840l87 94h95l-138 -150h-88l-138 150h95zM100 0v700h98v-303h107l245 303h117l-286 -350l296 -350h-119l-257 306h-103v-306h-98z" />
    <glyph glyph-name="uni01E9" unicode="&#x1e9;" horiz-adv-x="557" 
d="M133 872l87 94h95l-138 -150h-88l-138 150h95zM86 0v732h94v-424h80l169 199h110l-205 -241l209 -266h-110l-176 225h-77v-225h-94z" />
    <glyph glyph-name="AEacute" unicode="&#x1fc;" horiz-adv-x="1101" 
d="M881 934l-131 -150h-97l113 150h115zM537 172h-293l-117 -172h-113l480 700h527v-90h-386v-211h367v-91h-367v-218h396v-90h-494v172zM537 260v342l-233 -342h233z" />
    <glyph glyph-name="aeacute" unicode="&#x1fd;" horiz-adv-x="947" 
d="M634 741l-131 -150h-97l113 150h115zM898 270q0 -23 -3 -44h-395q8 -74 53 -114.5t115 -40.5q45 0 84 18.5t70 56.5l61 -54q-36 -51 -92 -78.5t-126 -27.5q-75 0 -129 31t-84 88q-23 -54 -78 -86.5t-133 -32.5q-88 0 -139 42t-51 115q0 72 53 112.5t160 40.5h141v34
q0 51 -30.5 78.5t-85.5 27.5q-93 0 -149 -70l-59 58q35 45 90 71t125 26q129 0 174 -94q31 45 78.5 69.5t109.5 24.5q53 0 97 -18.5t76 -51.5t49.5 -79t17.5 -102zM658 435q-66 0 -105.5 -37.5t-50.5 -101.5h302q-6 68 -44.5 103.5t-101.5 35.5zM249 62q35 0 63.5 11
t49.5 30t32.5 45t11.5 56v22h-138q-63 0 -92 -20t-29 -60q0 -39 26.5 -61.5t75.5 -22.5z" />
    <glyph glyph-name="Oslashacute" unicode="&#x1fe;" horiz-adv-x="841" 
d="M570 934l-131 -150h-97l113 150h115zM705 579q36 -47 55.5 -105t19.5 -124q0 -76 -26.5 -142.5t-74 -115.5t-113.5 -77.5t-146 -28.5q-68 0 -126 20.5t-103 57.5l-71 -71l-56 56l72 72q-36 47 -55.5 105t-19.5 124q0 76 26.5 142.5t73.5 115.5t113.5 77.5t145.5 28.5
q69 0 127 -20.5t103 -58.5l72 72l55 -56zM420 622q-57 0 -104 -20.5t-81 -56.5t-52.5 -86t-18.5 -109q0 -46 11.5 -86t32.5 -73l375 376q-32 26 -73.5 40.5t-89.5 14.5zM420 78q57 0 104.5 20.5t81.5 56.5t52.5 86t18.5 109q0 91 -43 159l-376 -376q32 -26 73 -40.5
t89 -14.5z" />
    <glyph glyph-name="oslashacute" unicode="&#x1ff;" horiz-adv-x="631" 
d="M465 741l-131 -150h-97l113 150h115zM528 415q24 -34 37 -75.5t13 -86.5q0 -54 -18.5 -102.5t-53 -85t-82.5 -58t-108 -21.5q-49 0 -90.5 14t-73.5 40l-63 -63l-50 50l64 64q-24 34 -37 75.5t-13 86.5q0 54 18.5 103t53 85.5t83 58t108.5 21.5q49 0 90 -14t73 -40l63 63
l50 -50zM316 434q-37 0 -67.5 -13.5t-52.5 -37.5t-33.5 -57t-11.5 -73q0 -56 23 -97l244 244q-42 34 -102 34zM316 73q37 0 67.5 13.5t52 37.5t33 57t11.5 72q0 55 -22 97l-244 -244q42 -33 102 -33z" />
    <glyph glyph-name="uni0218" unicode="&#x218;" horiz-adv-x="638" 
d="M329 -14q-108 0 -181 43.5t-105 118.5l77 47q29 -59 83.5 -89.5t127.5 -30.5q76 0 118.5 31.5t42.5 84.5q0 40 -28 66t-92 42l-113 27q-195 47 -195 189q0 44 17.5 80.5t50.5 62.5t80 41t106 15q97 0 164 -35.5t94 -92.5l-75 -49q-26 43 -73.5 65.5t-110.5 22.5
q-73 0 -113 -29t-40 -80q0 -38 26.5 -62.5t95.5 -40.5l113 -28q103 -24 148.5 -71t45.5 -119q0 -46 -17.5 -84.5t-51.5 -66.5t-83 -43t-112 -15zM281 -253v164h97l-24 -164h-73z" />
    <glyph glyph-name="uni0219" unicode="&#x219;" horiz-adv-x="514" 
d="M267 -14q-78 0 -137.5 29t-89.5 78l62 53q29 -38 71.5 -57.5t93.5 -19.5q52 0 80.5 19.5t28.5 51.5q0 25 -18.5 41t-65.5 27l-81 18q-79 19 -116 53.5t-37 88.5q0 67 53 110t148 43q68 0 119.5 -22.5t83.5 -62.5l-60 -57q-55 58 -147 58q-52 0 -77.5 -18t-25.5 -48
q0 -23 17.5 -38t67.5 -26l89 -20q78 -17 111 -52.5t33 -87.5q0 -73 -53 -117t-150 -44zM214 -253v164h97l-24 -164h-73z" />
    <glyph glyph-name="uni021A" unicode="&#x21a;" horiz-adv-x="608" 
d="M583 700v-91h-230v-609h-98v609h-230v91h558zM256 -253v164h97l-24 -164h-73z" />
    <glyph glyph-name="uni021B" unicode="&#x21b;" horiz-adv-x="413" 
d="M283 -8q-158 0 -158 143v291h-100v81h100v150h94v-150h155v-81h-155v-282q0 -38 18.5 -53.5t60.5 -15.5q35 0 78 9v-79q-25 -8 -49 -10.5t-44 -2.5zM190 -253v164h97l-24 -164h-73z" />
    <glyph glyph-name="uni0237" unicode="&#x237;" horiz-adv-x="268" 
d="M-35 -125q25 -6 47 -6q42 0 58.5 20t16.5 58v560h94v-573q0 -71 -37.5 -110t-118.5 -39q-29 0 -60 6v84z" />
    <glyph glyph-name="circumflex" unicode="&#x2c6;" horiz-adv-x="620" 
d="M128 591l138 150h88l138 -150h-95l-87 95l-87 -95h-95z" />
    <glyph glyph-name="caron" unicode="&#x2c7;" horiz-adv-x="620" 
d="M128 741h95l87 -94l87 94h95l-138 -150h-88z" />
    <glyph glyph-name="breve" unicode="&#x2d8;" horiz-adv-x="620" 
d="M310 585q-72 0 -112.5 36.5t-40.5 97.5v6h81q0 -35 18.5 -55t53.5 -20t53.5 20t18.5 55h81v-6q0 -61 -40.5 -97.5t-112.5 -36.5z" />
    <glyph glyph-name="dotaccent" unicode="&#x2d9;" horiz-adv-x="620" 
d="M310 607q-28 0 -45.5 18t-17.5 45t17.5 45t45.5 18t45.5 -18t17.5 -45t-17.5 -45t-45.5 -18z" />
    <glyph glyph-name="ring" unicode="&#x2da;" horiz-adv-x="620" 
d="M310 578q-27 0 -50 9.5t-40 25.5t-26.5 37.5t-9.5 46.5t9.5 47t26.5 38t40 25.5t50 9.5t50 -9.5t40 -25.5t26.5 -38t9.5 -47t-9.5 -46.5t-26.5 -37.5t-40 -25.5t-50 -9.5zM310 640q27 0 42.5 16t15.5 41q0 26 -15.5 42t-42.5 16t-42.5 -16t-15.5 -42q0 -25 15.5 -41
t42.5 -16z" />
    <glyph glyph-name="ogonek" unicode="&#x2db;" horiz-adv-x="620" 
d="M295 -214q-67 0 -102 27t-35 69t36.5 78t120.5 63l45 -23q-34 -19 -55.5 -34t-34 -27.5t-17 -22.5t-4.5 -19q0 -17 13 -27t45 -10h53v-74h-65z" />
    <glyph glyph-name="tilde" unicode="&#x2dc;" horiz-adv-x="620" 
d="M383 597q-20 0 -39.5 8t-49.5 33q-20 15 -29.5 20.5t-19.5 5.5q-14 0 -23.5 -15t-9.5 -46h-67q0 63 24.5 97t67.5 34q24 0 43 -9.5t46 -31.5q21 -17 30 -21.5t19 -4.5q14 0 23.5 14.5t9.5 46.5h67q0 -63 -24.5 -97t-67.5 -34z" />
    <glyph glyph-name="hungarumlaut" unicode="&#x2dd;" horiz-adv-x="620" 
d="M169 591l114 150h99l-120 -150h-93zM354 591l114 150h99l-119 -150h-94z" />
    <glyph glyph-name="gravecomb" unicode="&#x300;" horiz-adv-x="0" 
d="M-263 591h-97l-131 150h115z" />
    <glyph glyph-name="acutecomb" unicode="&#x301;" horiz-adv-x="0" 
d="M-353 591l113 150h115l-131 -150h-97z" />
    <glyph glyph-name="uni0302" unicode="&#x302;" horiz-adv-x="0" 
d="M-492 591l138 150h88l138 -150h-95l-87 95l-87 -95h-95z" />
    <glyph glyph-name="tildecomb" unicode="&#x303;" horiz-adv-x="0" 
d="M-237 597q-20 0 -39.5 8t-49.5 33q-20 15 -29.5 20.5t-19.5 5.5q-14 0 -23.5 -15t-9.5 -46h-67q0 63 24.5 97t67.5 34q24 0 43 -9.5t46 -31.5q21 -17 30 -21.5t19 -4.5q14 0 23.5 14.5t9.5 46.5h67q0 -63 -24.5 -97t-67.5 -34z" />
    <glyph glyph-name="uni0304" unicode="&#x304;" horiz-adv-x="0" 
d="M-464 612v75h308v-75h-308z" />
    <glyph glyph-name="uni0306" unicode="&#x306;" horiz-adv-x="0" 
d="M-310 585q-72 0 -112.5 36.5t-40.5 97.5v6h81q0 -35 18.5 -55t53.5 -20t53.5 20t18.5 55h81v-6q0 -61 -40.5 -97.5t-112.5 -36.5z" />
    <glyph glyph-name="uni0307" unicode="&#x307;" horiz-adv-x="0" 
d="M-310 607q-28 0 -45.5 18t-17.5 45t17.5 45t45.5 18t45.5 -18t17.5 -45t-17.5 -45t-45.5 -18z" />
    <glyph glyph-name="uni0308" unicode="&#x308;" horiz-adv-x="0" 
d="M-419 607q-28 0 -45.5 18t-17.5 45t17.5 45t45.5 18t45.5 -18t17.5 -45t-17.5 -45t-45.5 -18zM-201 607q-28 0 -45.5 18t-17.5 45t17.5 45t45.5 18t45.5 -18t17.5 -45t-17.5 -45t-45.5 -18z" />
    <glyph glyph-name="uni030A" unicode="&#x30a;" horiz-adv-x="0" 
d="M-310 578q-27 0 -50 9.5t-40 25.5t-26.5 37.5t-9.5 46.5t9.5 47t26.5 38t40 25.5t50 9.5t50 -9.5t40 -25.5t26.5 -38t9.5 -47t-9.5 -46.5t-26.5 -37.5t-40 -25.5t-50 -9.5zM-310 640q27 0 42.5 16t15.5 41q0 26 -15.5 42t-42.5 16t-42.5 -16t-15.5 -42q0 -25 15.5 -41
t42.5 -16z" />
    <glyph glyph-name="uni030B" unicode="&#x30b;" horiz-adv-x="0" 
d="M-451 591l114 150h99l-120 -150h-93zM-266 591l114 150h99l-119 -150h-94z" />
    <glyph glyph-name="uni030C" unicode="&#x30c;" horiz-adv-x="0" 
d="M-492 741h95l87 -94l87 94h95l-138 -150h-88z" />
    <glyph glyph-name="uni0315" unicode="&#x315;" horiz-adv-x="0" 
d="M-359 557v199h97l-24 -199h-73z" />
    <glyph glyph-name="uni0326" unicode="&#x326;" horiz-adv-x="0" 
d="M-358 -253v164h97l-24 -164h-73z" />
    <glyph glyph-name="uni0327" unicode="&#x327;" horiz-adv-x="0" 
d="M-422 -192l79 212h81l-61 -212h-99z" />
    <glyph glyph-name="uni0328" unicode="&#x328;" horiz-adv-x="0" 
d="M-325 -214q-67 0 -102 27t-35 69t36.5 78t120.5 63l45 -23q-34 -19 -55.5 -34t-34 -27.5t-17 -22.5t-4.5 -19q0 -17 13 -27t45 -10h53v-74h-65z" />
    <glyph glyph-name="uni03BC" unicode="&#x3bc;" horiz-adv-x="619" 
d="M441 83q-20 -46 -62 -71.5t-93 -25.5q-32 0 -59 11.5t-47 37.5v-255h-94v727h94v-303q0 -69 27.5 -100t84.5 -31q63 0 105 38.5t42 116.5v279h94v-507h-92v83z" />
    <glyph glyph-name="pi" unicode="&#x3c0;" horiz-adv-x="599" 
d="M527 0q-132 0 -132 134v286h-215v-420h-94v507h403v-360q0 -32 13.5 -46t41.5 -14h25v-87h-42z" />
    <glyph glyph-name="uni1E20" unicode="&#x1e20;" horiz-adv-x="779" 
d="M565 880v-75h-308v75h308zM712 99q-41 -54 -114 -83.5t-165 -29.5q-86 0 -155 27t-117 75t-74 114.5t-26 145.5q0 81 26.5 148.5t74 115.5t113.5 75t145 27q93 0 164 -36t113 -101l-75 -54q-32 49 -83.5 74t-117.5 25q-58 0 -105.5 -19.5t-81 -55.5t-52 -87t-18.5 -113
q0 -63 19 -113.5t54 -85t85 -53t111 -18.5q62 0 110 16.5t75 42.5v154h-180v88h274v-279z" />
    <glyph glyph-name="uni1E21" unicode="&#x1e21;" horiz-adv-x="654" 
d="M482 687v-75h-308v75h308zM568 58q0 -133 -69 -202.5t-197 -69.5q-73 0 -133 22t-99 61l51 69q35 -31 81 -48.5t98 -17.5q84 0 129 46t45 140v44q-22 -47 -71 -74t-112 -27q-52 0 -96 19t-76 53.5t-50 82t-18 105.5q0 57 18 105t50 82.5t76 53.5t96 19q63 0 112 -27.5
t71 -75.5v89h94v-449zM314 87q37 0 67.5 13t52 36t33 55t11.5 70t-11.5 69.5t-33 54.5t-52 36t-67.5 13t-67.5 -13t-52.5 -36t-33.5 -54.5t-11.5 -69.5t11.5 -70t33.5 -55t52.5 -36t67.5 -13z" />
    <glyph glyph-name="uni1E30" unicode="&#x1e30;" horiz-adv-x="695" 
d="M511 934l-131 -150h-97l113 150h115zM100 0v700h98v-303h107l245 303h117l-286 -350l296 -350h-119l-257 306h-103v-306h-98z" />
    <glyph glyph-name="uni1E31" unicode="&#x1e31;" horiz-adv-x="557" 
d="M286 966l-131 -150h-97l113 150h115zM86 0v732h94v-424h80l169 199h110l-205 -241l209 -266h-110l-176 225h-77v-225h-94z" />
    <glyph glyph-name="uni1E3E" unicode="&#x1e3e;" horiz-adv-x="937" 
d="M622 934l-131 -150h-97l113 150h115zM741 551l-233 -371h-80l-233 371v-551h-95v700h107l262 -417l261 417h107v-700h-96v551z" />
    <glyph glyph-name="uni1E3F" unicode="&#x1e3f;" horiz-adv-x="934" 
d="M630 741l-131 -150h-97l113 150h115zM679 521q84 0 128 -50t44 -144v-327h-94v305q0 67 -24 98t-78 31q-61 0 -100 -36t-39 -99v-299h-94v305q0 67 -24.5 98t-78.5 31q-61 0 -100 -36t-39 -99v-299h-94v507h94v-83q21 46 64.5 71.5t100.5 25.5q58 0 98 -26.5t58 -77.5
q20 48 67 76t111 28z" />
    <glyph glyph-name="uni1E40" unicode="&#x1e40;" horiz-adv-x="937" 
d="M469 800q-28 0 -45.5 18t-17.5 45t17.5 45t45.5 18t45.5 -18t17.5 -45t-17.5 -45t-45.5 -18zM741 551l-233 -371h-80l-233 371v-551h-95v700h107l262 -417l261 417h107v-700h-96v551z" />
    <glyph glyph-name="uni1E41" unicode="&#x1e41;" horiz-adv-x="934" 
d="M477 607q-28 0 -45.5 18t-17.5 45t17.5 45t45.5 18t45.5 -18t17.5 -45t-17.5 -45t-45.5 -18zM679 521q84 0 128 -50t44 -144v-327h-94v305q0 67 -24 98t-78 31q-61 0 -100 -36t-39 -99v-299h-94v305q0 67 -24.5 98t-78.5 31q-61 0 -100 -36t-39 -99v-299h-94v507h94v-83
q21 46 64.5 71.5t100.5 25.5q58 0 98 -26.5t58 -77.5q20 48 67 76t111 28z" />
    <glyph glyph-name="uni1E44" unicode="&#x1e44;" horiz-adv-x="792" 
d="M396 800q-28 0 -45.5 18t-17.5 45t17.5 45t45.5 18t45.5 -18t17.5 -45t-17.5 -45t-45.5 -18zM196 544v-544h-96v700h91l406 -544v544h96v-700h-92z" />
    <glyph glyph-name="uni1E45" unicode="&#x1e45;" horiz-adv-x="615" 
d="M309 607q-28 0 -45.5 18t-17.5 45t17.5 45t45.5 18t45.5 -18t17.5 -45t-17.5 -45t-45.5 -18zM353 521q85 0 132.5 -50.5t47.5 -144.5v-326h-94v303q0 69 -27 100t-84 31q-64 0 -106 -36t-42 -99v-299h-94v507h94v-83q22 47 67.5 72t105.5 25z" />
    <glyph glyph-name="Wgrave" unicode="&#x1e80;" horiz-adv-x="1049" 
d="M602 784h-97l-131 150h115zM525 568l-180 -568h-102l-215 700h99l171 -564l178 564h97l178 -566l171 566h99l-216 -700h-101z" />
    <glyph glyph-name="wgrave" unicode="&#x1e81;" horiz-adv-x="837" 
d="M496 591h-97l-131 150h115zM418 397l-130 -397h-103l-164 507h95l123 -395l130 395h99l129 -394l124 394h95l-164 -507h-104z" />
    <glyph glyph-name="Wacute" unicode="&#x1e82;" horiz-adv-x="1049" 
d="M678 934l-131 -150h-97l113 150h115zM525 568l-180 -568h-102l-215 700h99l171 -564l178 564h97l178 -566l171 566h99l-216 -700h-101z" />
    <glyph glyph-name="wacute" unicode="&#x1e83;" horiz-adv-x="837" 
d="M572 741l-131 -150h-97l113 150h115zM418 397l-130 -397h-103l-164 507h95l123 -395l130 395h99l129 -394l124 394h95l-164 -507h-104z" />
    <glyph glyph-name="Wdieresis" unicode="&#x1e84;" horiz-adv-x="1049" 
d="M415 800q-28 0 -45.5 18t-17.5 45t17.5 45t45.5 18t45.5 -18t17.5 -45t-17.5 -45t-45.5 -18zM633 800q-28 0 -45.5 18t-17.5 45t17.5 45t45.5 18t45.5 -18t17.5 -45t-17.5 -45t-45.5 -18zM525 568l-180 -568h-102l-215 700h99l171 -564l178 564h97l178 -566l171 566h99
l-216 -700h-101z" />
    <glyph glyph-name="wdieresis" unicode="&#x1e85;" horiz-adv-x="837" 
d="M309 607q-28 0 -45.5 18t-17.5 45t17.5 45t45.5 18t45.5 -18t17.5 -45t-17.5 -45t-45.5 -18zM527 607q-28 0 -45.5 18t-17.5 45t17.5 45t45.5 18t45.5 -18t17.5 -45t-17.5 -45t-45.5 -18zM418 397l-130 -397h-103l-164 507h95l123 -395l130 395h99l129 -394l124 394h95
l-164 -507h-104z" />
    <glyph glyph-name="uni1E90" unicode="&#x1e90;" horiz-adv-x="608" 
d="M349 934l138 -150h-95l-87 95l-87 -95h-95l138 150h88zM45 75l390 536h-377v89h499v-75l-390 -536h396v-89h-518v75z" />
    <glyph glyph-name="uni1E91" unicode="&#x1e91;" horiz-adv-x="504" 
d="M297 741l138 -150h-95l-87 95l-87 -95h-95l138 150h88zM48 69l287 356h-279v82h396v-70l-287 -355h291v-82h-408v69z" />
    <glyph glyph-name="uni1E9E" unicode="&#x1e9e;" horiz-adv-x="735" 
d="M480 382q106 -9 158.5 -56t52.5 -130q0 -94 -62.5 -145t-177.5 -51h-113v88h100q151 0 151 109q0 54 -36 81t-114 27h-71v79l164 199q-54 42 -149 42q-100 0 -147.5 -43.5t-47.5 -140.5v-441h-98v443q0 137 72.5 204t213.5 67q98 0 166 -32t110 -92z" />
    <glyph glyph-name="Ygrave" unicode="&#x1ef2;" horiz-adv-x="647" 
d="M401 784h-97l-131 150h115zM274 0v288l-268 412h111l207 -325l206 325h111l-268 -412v-288h-99z" />
    <glyph glyph-name="ygrave" unicode="&#x1ef3;" horiz-adv-x="607" 
d="M375 591h-97l-131 150h115zM521 50q0 -130 -66 -197t-185 -67q-65 0 -120.5 19.5t-91.5 55.5l51 67q32 -28 73 -42t84 -14q77 0 119 43.5t42 134.5v48q-22 -47 -68.5 -72t-106.5 -25q-83 0 -130.5 49.5t-47.5 145.5v311h94v-288q0 -70 27.5 -100.5t82.5 -30.5
q66 0 107.5 36.5t41.5 98.5v284h94v-457z" />
    <glyph glyph-name="uni2000" unicode="&#x2000;" horiz-adv-x="500" 
 />
    <glyph glyph-name="uni2001" unicode="&#x2001;" horiz-adv-x="1000" 
 />
    <glyph glyph-name="uni2002" unicode="&#x2002;" horiz-adv-x="500" 
 />
    <glyph glyph-name="uni2003" unicode="&#x2003;" horiz-adv-x="1000" 
 />
    <glyph glyph-name="uni2009" unicode="&#x2009;" horiz-adv-x="209" 
 />
    <glyph glyph-name="uni200A" unicode="&#x200a;" horiz-adv-x="60" 
 />
    <glyph glyph-name="uni200B" unicode="&#x200b;" horiz-adv-x="0" 
 />
    <glyph glyph-name="endash" unicode="&#x2013;" horiz-adv-x="604" 
d="M52 248v80h500v-80h-500z" />
    <glyph glyph-name="emdash" unicode="&#x2014;" horiz-adv-x="1104" 
d="M52 248v80h1000v-80h-1000z" />
    <glyph glyph-name="quoteleft" unicode="&#x2018;" horiz-adv-x="239" 
d="M46 462l72 252h75l-51 -252h-96z" />
    <glyph glyph-name="quoteright" unicode="&#x2019;" horiz-adv-x="239" 
d="M193 714l-71 -252h-76l51 252h96z" />
    <glyph glyph-name="quotesinglbase" unicode="&#x201a;" horiz-adv-x="234" 
d="M183 111l-71 -251h-76l51 251h96z" />
    <glyph glyph-name="quotedblleft" unicode="&#x201c;" horiz-adv-x="418" 
d="M46 462l72 252h75l-51 -252h-96zM225 462l71 252h75l-50 -252h-96z" />
    <glyph glyph-name="quotedblright" unicode="&#x201d;" horiz-adv-x="418" 
d="M193 714l-71 -252h-76l51 252h96zM371 714l-71 -252h-75l50 252h96z" />
    <glyph glyph-name="quotedblbase" unicode="&#x201e;" horiz-adv-x="413" 
d="M183 111l-71 -251h-76l51 251h96zM361 111l-71 -251h-75l50 251h96z" />
    <glyph glyph-name="dagger" unicode="&#x2020;" horiz-adv-x="518" 
d="M212 -130v552h-168v86h168v232h94v-232h168v-86h-168v-552h-94z" />
    <glyph glyph-name="daggerdbl" unicode="&#x2021;" horiz-adv-x="538" 
d="M464 119h-148v-249h-94v249h-148v87h148v216h-168v86h168v232h94v-232h168v-86h-168v-216h148v-87z" />
    <glyph glyph-name="bullet" unicode="&#x2022;" horiz-adv-x="517" 
d="M259 207q-33 0 -61 12t-48.5 32.5t-32 48.5t-11.5 60t11.5 59.5t32 48t48.5 32.5t61 12q32 0 60 -12t48.5 -32.5t32 -48t11.5 -59.5t-11.5 -60t-32 -48.5t-48.5 -32.5t-60 -12z" />
    <glyph glyph-name="ellipsis" unicode="&#x2026;" horiz-adv-x="745" 
d="M128 -9q-31 0 -48.5 18.5t-17.5 48.5q0 29 17.5 46.5t48.5 17.5q30 0 47.5 -17.5t17.5 -46.5q0 -30 -17.5 -48.5t-47.5 -18.5zM373 -9q-31 0 -48.5 18.5t-17.5 48.5q0 29 17.5 46.5t48.5 17.5q30 0 47.5 -17.5t17.5 -46.5q0 -30 -17.5 -48.5t-47.5 -18.5zM617 -9
q-30 0 -47.5 18.5t-17.5 48.5q0 29 17.5 46.5t47.5 17.5q31 0 48.5 -17.5t17.5 -46.5q0 -30 -17.5 -48.5t-48.5 -18.5z" />
    <glyph glyph-name="perthousand" unicode="&#x2030;" horiz-adv-x="1269" 
d="M212 356q-38 0 -70.5 13.5t-56.5 37.5t-38 57t-14 71t14 71t38 57t56.5 37.5t70.5 13.5t70.5 -13.5t56.5 -37.5t38 -57t14 -71t-14 -71t-38 -57t-56.5 -37.5t-70.5 -13.5zM129 0l507 700h92l-507 -700h-92zM212 427q46 0 73.5 29.5t27.5 78.5t-27.5 78.5t-73.5 29.5
t-73.5 -29.5t-27.5 -78.5t27.5 -78.5t73.5 -29.5zM645 -14q-38 0 -70.5 13.5t-56.5 37.5t-38 57t-14 71t14 71t38 57t56.5 37.5t70.5 13.5t70.5 -13.5t56.5 -37.5t38 -57t14 -71t-14 -71t-38 -57t-56.5 -37.5t-70.5 -13.5zM1057 -14q-38 0 -70.5 13.5t-56.5 37.5t-38 57
t-14 71t14 71t38 57t56.5 37.5t70.5 13.5t70.5 -13.5t56.5 -37.5t38 -57t14 -71t-14 -71t-38 -57t-56.5 -37.5t-70.5 -13.5zM645 57q46 0 73.5 29.5t27.5 78.5t-27.5 78.5t-73.5 29.5t-73.5 -29.5t-27.5 -78.5t27.5 -78.5t73.5 -29.5zM1057 57q46 0 73.5 29.5t27.5 78.5
t-27.5 78.5t-73.5 29.5t-73.5 -29.5t-27.5 -78.5t27.5 -78.5t73.5 -29.5z" />
    <glyph glyph-name="guilsinglleft" unicode="&#x2039;" horiz-adv-x="334" 
d="M37 254l151 215h104l-150 -215l150 -215h-104z" />
    <glyph glyph-name="guilsinglright" unicode="&#x203a;" horiz-adv-x="334" 
d="M192 254l-150 215h104l151 -215l-151 -215h-104z" />
    <glyph glyph-name="fraction" unicode="&#x2044;" horiz-adv-x="181" 
d="M-200 0l490 700h91l-490 -700h-91z" />
    <glyph glyph-name="uni2070" unicode="&#x2070;" horiz-adv-x="382" 
d="M191 348q-72 0 -114.5 50t-42.5 146t42.5 146t114.5 50t114.5 -50t42.5 -146t-42.5 -146t-114.5 -50zM191 419q38 0 57.5 28.5t19.5 96.5t-19.5 96t-57.5 28t-57.5 -28t-19.5 -96t19.5 -96.5t57.5 -28.5z" />
    <glyph glyph-name="uni2074" unicode="&#x2074;" horiz-adv-x="347" 
d="M214 355v75h-192v65l176 238h89v-238h46v-65h-46v-75h-73zM214 495v155l-115 -155h115z" />
    <glyph glyph-name="uni2075" unicode="&#x2075;" horiz-adv-x="334" 
d="M185 596q57 0 91.5 -31.5t34.5 -88.5q0 -60 -38.5 -94t-108.5 -34q-83 0 -141 56l44 54q40 -40 94 -40q34 0 53 15.5t19 42.5q0 26 -18 41t-47 15q-35 0 -64 -22l-56 28v195h239v-70h-166v-82q14 8 30 11.5t34 3.5z" />
    <glyph glyph-name="uni2076" unicode="&#x2076;" horiz-adv-x="341" 
d="M185 611q29 0 53.5 -9t42.5 -25.5t28.5 -40.5t10.5 -53q0 -60 -40.5 -97.5t-106.5 -37.5q-65 0 -106.5 37.5t-41.5 100.5q0 69 56 143l79 104h92l-98 -125q14 3 31 3zM173 417q32 0 50.5 17.5t18.5 48.5t-18.5 48t-50.5 17t-51 -17t-19 -48t19 -48.5t51 -17.5z" />
    <glyph glyph-name="uni2077" unicode="&#x2077;" horiz-adv-x="301" 
d="M47 355l151 305h-182v73h269v-65l-151 -313h-87z" />
    <glyph glyph-name="uni2078" unicode="&#x2078;" horiz-adv-x="351" 
d="M253 549q71 -25 71 -92q0 -48 -38 -78.5t-110 -30.5t-110.5 30.5t-38.5 78.5q0 67 72 92q-61 24 -61 85q0 45 35 75.5t103 30.5t102.5 -30.5t34.5 -75.5q0 -61 -60 -85zM176 677q-31 0 -46.5 -13.5t-15.5 -36.5q0 -49 62 -49t62 49q0 23 -15 36.5t-47 13.5zM176 414
q35 0 52 14t17 37t-17 37.5t-52 14.5t-52 -14.5t-17 -37.5t17 -37t52 -14z" />
    <glyph glyph-name="uni2079" unicode="&#x2079;" horiz-adv-x="340" 
d="M169 740q65 0 106 -37.5t41 -101.5q0 -68 -56 -143l-79 -103h-91l99 125q-13 -4 -32 -4q-28 0 -53 9t-43 26t-28.5 41t-10.5 53q0 60 40.5 97.5t106.5 37.5zM169 539q32 0 50.5 17.5t18.5 48.5q0 30 -18.5 48t-50.5 18t-51 -18t-19 -48q0 -31 19 -48.5t51 -17.5z" />
    <glyph glyph-name="uni20A6" unicode="&#x20a6;" horiz-adv-x="803" 
d="M765 325v-60h-67v-265h-92l-197 265h-208v-265h-96v265h-67v60h67v50h-67v60h67v265h91l198 -265h208v265h96v-265h67v-60h-67v-50h67zM201 544v-109h81zM201 375v-50h163l-37 50h-126zM476 325h126v50h-163zM602 156v109h-81z" />
    <glyph glyph-name="Euro" unicode="&#x20ac;" horiz-adv-x="637" 
d="M385 72q48 0 84 30.5t55 84.5l80 -36q-30 -81 -89.5 -123t-131.5 -42q-48 0 -90 18t-76 51t-58 80.5t-36 106.5h-85v66h76q-1 11 -1 21v21v21t1 21h-76v66h85q12 59 36 106.5t58 80.5t76 51t90 18q72 0 131.5 -42t89.5 -123l-80 -36q-19 54 -55 84.5t-84 30.5
q-57 0 -100.5 -44t-62.5 -126h230v-66h-239q-1 -10 -1.5 -20.5t-0.5 -21.5t0.5 -21.5t1.5 -20.5h239v-66h-230q19 -82 62.5 -126t100.5 -44z" />
    <glyph glyph-name="uni2116" unicode="&#x2116;" horiz-adv-x="1305" 
d="M1024 285q-49 0 -88 17t-67 46.5t-43 68.5t-15 83t15 83t43 68t67 46t88 17t88.5 -17t67.5 -46t43 -68t15 -83t-15 -83t-43 -68.5t-67.5 -46.5t-88.5 -17zM601 0l-405 544v-544h-96v700h91l406 -544v544h96v-700h-92zM1024 632q-57 0 -89 -36.5t-32 -95.5q0 -60 32 -96.5
t89 -36.5q56 0 88.5 36.5t32.5 96.5q0 59 -32.5 95.5t-88.5 36.5zM822 115v84h404v-84h-404z" />
    <glyph glyph-name="trademark" unicode="&#x2122;" horiz-adv-x="926" 
d="M235 628v-336h-78v336h-114v72h306v-72h-114zM781 580l-116 -175h-52l-116 175v-288h-77v408h81l138 -208l138 208h81v-408h-77v288z" />
    <glyph glyph-name="uni2126" unicode="&#x2126;" horiz-adv-x="811" 
d="M741 365q0 -91 -38 -162t-107 -115h145v-88h-281v91q86 38 135 104.5t49 166.5q0 58 -17.5 106.5t-49 83t-75 53.5t-96.5 19t-97 -19t-75.5 -53.5t-49 -83t-17.5 -106.5q0 -100 49.5 -166.5t134.5 -104.5v-91h-280v88h144q-69 44 -106.5 115t-37.5 162q0 77 26.5 141
t72 110t106.5 72t130 26t130 -26t106.5 -72t72 -110t26.5 -141z" />
    <glyph glyph-name="arrowleft" unicode="&#x2190;" horiz-adv-x="700" 
d="M298 68l-276 282l276 282l59 -60l-184 -178h486v-88h-486l184 -178z" />
    <glyph glyph-name="arrowup" unicode="&#x2191;" horiz-adv-x="700" 
d="M306 39v486l-178 -183l-60 58l282 277l282 -277l-60 -58l-178 183v-486h-88z" />
    <glyph glyph-name="arrowright" unicode="&#x2192;" horiz-adv-x="700" 
d="M527 306h-486v88h486l-184 178l59 60l276 -282l-276 -282l-59 60z" />
    <glyph glyph-name="arrowdown" unicode="&#x2193;" horiz-adv-x="700" 
d="M128 363l178 -184v486h88v-486l178 184l60 -59l-282 -276l-282 276z" />
    <glyph glyph-name="uni2196" unicode="&#x2196;" horiz-adv-x="700" 
d="M117 183l4 395l395 4l-1 -83l-256 3l344 -344l-62 -62l-344 344l4 -256z" />
    <glyph glyph-name="uni2197" unicode="&#x2197;" horiz-adv-x="700" 
d="M97 159l343 343l-255 -3l-1 83l395 -4l4 -395l-84 1l4 256l-344 -344z" />
    <glyph glyph-name="uni2198" unicode="&#x2198;" horiz-adv-x="700" 
d="M185 201l256 -3l-344 344l62 62l344 -344l-4 256l84 1l-4 -395l-395 -4z" />
    <glyph glyph-name="uni2199" unicode="&#x2199;" horiz-adv-x="700" 
d="M117 517l84 -1l-4 -256l344 344l62 -63l-343 -343l255 3l1 -83l-395 4z" />
    <glyph glyph-name="partialdiff" unicode="&#x2202;" horiz-adv-x="637" 
d="M292 715q148 0 220.5 -98.5t72.5 -284.5q0 -192 -84 -275q-36 -35 -83.5 -53.5t-104.5 -18.5q-59 0 -107 18t-82.5 50.5t-53.5 77.5t-19 98q0 52 18.5 95.5t51 75.5t77.5 50t98 18q60 0 109.5 -23.5t79.5 -70.5h3q-7 138 -56.5 196t-144.5 58q-35 0 -69.5 -8t-74.5 -29
l-25 81q35 19 78 31t96 12zM313 72q73 0 118 42.5t45 114.5q0 71 -45 112t-118 41q-74 0 -118.5 -41t-44.5 -112q0 -72 44.5 -114.5t118.5 -42.5z" />
    <glyph glyph-name="uni2206" unicode="&#x2206;" horiz-adv-x="685" 
d="M24 53l290 647h57l290 -647l-32 -53h-573zM342 546l-204 -459h409z" />
    <glyph glyph-name="product" unicode="&#x220f;" horiz-adv-x="691" 
d="M198 649v-779h-98v870h492v-870h-99v779h-295z" />
    <glyph glyph-name="summation" unicode="&#x2211;" horiz-adv-x="539" 
d="M163 -40h348v-90h-458v90l247 345l-247 345v90h458v-90h-348l247 -345z" />
    <glyph glyph-name="minus" unicode="&#x2212;" 
d="M134 275v84h442v-84h-442z" />
    <glyph glyph-name="radical" unicode="&#x221a;" horiz-adv-x="614" 
d="M120 238h-106v90h175l111 -318l208 730h98l-250 -870h-103z" />
    <glyph glyph-name="infinity" unicode="&#x221e;" horiz-adv-x="745" 
d="M535 521q39 0 71.5 -13.5t56 -38t36 -58t12.5 -74.5q0 -40 -12.5 -74t-36 -58.5t-56 -38t-71.5 -13.5q-61 0 -98.5 30t-63.5 70q-13 -20 -28.5 -38.5t-35 -32t-44 -21.5t-55.5 -8q-39 0 -71.5 13.5t-56 38t-36 58.5t-12.5 74q0 41 12.5 74.5t36 58t56 38t71.5 13.5
q31 0 55.5 -8t44 -21.5t35 -32t28.5 -38.5q26 41 63.5 70.5t98.5 29.5zM208 233q21 0 38 8.5t31 22.5t26 33t23 40q-11 21 -23 40t-26 33t-31 22.5t-38 8.5q-39 0 -63.5 -28t-24.5 -76t24.5 -76t63.5 -28zM537 233q39 0 63.5 28t24.5 76t-24.5 76t-63.5 28q-21 0 -38 -8.5
t-31 -22.5t-26 -33t-23 -40q11 -21 23 -40t26 -33t31 -22.5t38 -8.5z" />
    <glyph glyph-name="integral" unicode="&#x222b;" horiz-adv-x="388" 
d="M87 -43q29 0 43.5 13t14.5 44v596q0 69 32.5 99.5t104.5 30.5h86v-87h-67q-29 0 -43.5 -13t-14.5 -44v-596q0 -69 -33 -99.5t-105 -30.5h-85v87h67z" />
    <glyph glyph-name="approxequal" unicode="&#x2248;" 
d="M134 357v83q29 21 59 30.5t59 9.5q26 0 52.5 -6.5t52.5 -15t51.5 -15t50.5 -6.5q32 0 63.5 12t53.5 30v-83q-29 -20 -56.5 -30.5t-59.5 -10.5q-27 0 -53 6.5t-52 15t-52 15t-53 6.5q-29 0 -56 -9t-60 -32zM134 155v83q29 21 59 31t59 10q26 0 52.5 -6.5t52.5 -15
t51.5 -15t50.5 -6.5q32 0 63.5 11.5t53.5 29.5v-83q-29 -20 -56.5 -30t-59.5 -10q-27 0 -53 6.5t-52 15t-52 15t-53 6.5q-29 0 -56 -9.5t-60 -32.5z" />
    <glyph glyph-name="notequal" unicode="&#x2260;" 
d="M576 174h-252l-60 -127h-74l60 127h-116v83h156l56 120h-212v83h252l60 127h74l-60 -127h116v-83h-156l-56 -120h212v-83z" />
    <glyph glyph-name="lessequal" unicode="&#x2264;" 
d="M576 135l-442 170v88l442 170v-89l-341 -125l341 -125v-89zM134 0v83h442v-83h-442z" />
    <glyph glyph-name="greaterequal" unicode="&#x2265;" 
d="M134 224l341 125l-341 125v89l442 -170v-88l-442 -170v89zM134 0v83h442v-83h-442z" />
    <glyph glyph-name="filledbox" unicode="&#x25a0;" horiz-adv-x="900" 
d="M100 700h700v-700h-700v700z" />
    <glyph glyph-name="triagup" unicode="&#x25b2;" horiz-adv-x="900" 
d="M800 0h-700l350 700z" />
    <glyph glyph-name="triagdn" unicode="&#x25bc;" horiz-adv-x="900" 
d="M100 700h700l-350 -700z" />
    <glyph glyph-name="uni25C6" unicode="&#x25c6;" horiz-adv-x="900" 
d="M800 349l-351 -349l-349 349l349 351z" />
    <glyph glyph-name="lozenge" unicode="&#x25ca;" horiz-adv-x="631" 
d="M26 350l251 350h77l251 -350l-251 -350h-77zM316 96l181 254l-181 254l-182 -254z" />
    <glyph glyph-name="uni25CF" unicode="&#x25cf;" horiz-adv-x="900" 
d="M450 0q-72 0 -136 27.5t-111.5 75t-75 111.5t-27.5 136t27.5 136t75 111.5t111.5 75t136 27.5t136 -27.5t111.5 -75t75 -111.5t27.5 -136t-27.5 -136t-75 -111.5t-111.5 -75t-136 -27.5z" />
    <glyph glyph-name="uni2610" unicode="&#x2610;" horiz-adv-x="900" 
d="M100 700h700v-700h-700v700zM176 629v-558h548v558h-548z" />
    <glyph glyph-name="uni2611" unicode="&#x2611;" horiz-adv-x="900" 
d="M100 700h700v-700h-700v700zM724 71v558h-548v-558h548zM392 254l178 308l72 -42l-221 -383l-162 94l43 76z" />
    <glyph glyph-name="uni2612" unicode="&#x2612;" horiz-adv-x="900" 
d="M100 700h700v-700h-700v700zM724 71v558h-548v-558h548zM300 556l150 -150l150 150l56 -56l-150 -150l150 -150l-56 -56l-150 150l-150 -150l-56 56l150 150l-150 150z" />
    <glyph glyph-name="heart" unicode="&#x2665;" horiz-adv-x="900" 
d="M451 470q3 34 16 59.5t33.5 42.5t46 25.5t52.5 8.5q32 0 63.5 -12t57 -37t41 -61.5t15.5 -86.5q0 -70 -31 -116t-78.5 -82.5t-105 -73t-111.5 -89.5q-54 53 -111.5 89.5t-105 73t-78.5 82.5t-31 116q0 50 15.5 86.5t41 61.5t57 37t63.5 12q27 0 53 -8.5t46 -25.5
t33 -42.5t16 -59.5h2z" />
    <glyph glyph-name="uni2B51" unicode="&#x2b51;" horiz-adv-x="900" 
d="M822 434l-231 -167l88 -270l-230 168l-231 -168l89 272l-229 166h284l87 270l87 -271h286z" />
    <glyph glyph-name="Euro.tf" horiz-adv-x="700" 
d="M418 72q48 0 84 30.5t55 84.5l80 -36q-30 -81 -89.5 -123t-131.5 -42q-48 0 -90 18t-76 51t-57.5 80.5t-35.5 106.5h-86v66h77q-1 11 -1 21v21v21t1 21h-77v66h86q12 59 35.5 106.5t57.5 80.5t76 51t90 18q72 0 131.5 -42t89.5 -123l-80 -36q-19 54 -55 84.5t-84 30.5
q-57 0 -100.5 -44t-61.5 -126h230v-66h-239q-1 -10 -1.5 -20.5t-0.5 -21.5t0.5 -21.5t1.5 -20.5h239v-66h-230q18 -82 61.5 -126t100.5 -44z" />
    <glyph glyph-name="approxequal.tf" 
d="M134 391v83q29 21 59 30.5t59 9.5q26 0 52.5 -6.5t52.5 -15t51.5 -15t50.5 -6.5q32 0 63.5 12t53.5 30v-83q-29 -20 -56.5 -30.5t-59.5 -10.5q-27 0 -53 6.5t-52 15t-52 15t-53 6.5q-29 0 -56 -9t-60 -32zM134 189v83q29 21 59 31t59 10q26 0 52.5 -6.5t52.5 -15
t51.5 -15t50.5 -6.5q32 0 63.5 11.5t53.5 29.5v-83q-29 -20 -56.5 -30t-59.5 -10q-27 0 -53 6.5t-52 15t-52 15t-53 6.5q-29 0 -56 -9.5t-60 -32.5z" />
    <glyph glyph-name="asciitilde.tf" 
d="M134 290v83q29 21 59 31t59 10q26 0 52.5 -6.5t52.5 -15t51.5 -15t50.5 -6.5q32 0 63.5 11.5t53.5 29.5v-83q-29 -20 -56.5 -30t-59.5 -10q-27 0 -53 6.5t-52 15t-52 15t-53 6.5q-29 0 -56 -9.5t-60 -32.5z" />
    <glyph glyph-name="at.case" horiz-adv-x="840" 
d="M581 306q0 -33 12.5 -50t35.5 -17q32 0 54 35.5t22 99.5q0 63 -20.5 112t-56.5 83t-85.5 52t-108.5 18q-63 0 -116 -21.5t-92 -60t-60.5 -92t-21.5 -117.5q0 -65 21.5 -118t60.5 -91t93 -58.5t120 -20.5q46 0 88 10t72 27l34 -64q-38 -23 -87.5 -35.5t-107.5 -12.5
q-81 0 -149.5 26.5t-118.5 74.5t-78.5 114.5t-28.5 146.5q0 81 29 148.5t79 116.5t117.5 76t143.5 27q72 0 136 -24t112 -67.5t76 -104.5t28 -135q0 -47 -12 -86t-33 -66.5t-49.5 -43t-61.5 -15.5q-38 0 -68 20.5t-41 58.5q-14 -39 -44.5 -59t-70.5 -20q-33 0 -60.5 12.5
t-47.5 35.5t-31.5 55t-11.5 71t11.5 71t31.5 55t47.5 35.5t60.5 12.5q35 0 62 -15.5t41 -47.5v52h74v-204zM422 246q37 0 61 26.5t24 74.5t-24 74.5t-61 26.5t-61.5 -26t-24.5 -75q0 -48 24 -74.5t62 -26.5z" />
    <glyph glyph-name="braceleft.case" horiz-adv-x="364" 
d="M205 458q0 -85 -75 -108q75 -22 75 -108v-184q0 -30 14.5 -43.5t43.5 -13.5h67v-79h-79q-72 0 -104.5 30.5t-32.5 99.5v200q0 58 -64 58h-12v80h12q64 0 64 58v200q0 69 32.5 99.5t104.5 30.5h79v-79h-67q-29 0 -43.5 -13.5t-14.5 -43.5v-184z" />
    <glyph glyph-name="braceright.case" horiz-adv-x="364" 
d="M315 310q-64 0 -64 -58v-200q0 -69 -33 -99.5t-105 -30.5h-79v79h67q29 0 43.5 13.5t14.5 43.5v184q0 86 75 108q-75 23 -75 108v184q0 30 -14.5 43.5t-43.5 13.5h-67v79h79q72 0 105 -30.5t33 -99.5v-200q0 -58 64 -58h11v-80h-11z" />
    <glyph glyph-name="bracketleft.case" horiz-adv-x="372" 
d="M337 -78h-237v856h237v-79h-146v-698h146v-79z" />
    <glyph glyph-name="bracketright.case" horiz-adv-x="372" 
d="M35 1h146v698h-146v79h237v-856h-237v79z" />
    <glyph glyph-name="bullet.case" horiz-adv-x="517" 
d="M259 207q-33 0 -61 12t-48.5 32.5t-32 48.5t-11.5 60t11.5 59.5t32 48t48.5 32.5t61 12q32 0 60 -12t48.5 -32.5t32 -48t11.5 -59.5t-11.5 -60t-32 -48.5t-48.5 -32.5t-60 -12z" />
    <glyph glyph-name="cent.tf" horiz-adv-x="700" 
d="M406 170q75 9 118 76l72 -52q-29 -49 -78.5 -77t-111.5 -33v-134h-61v135q-51 6 -92.5 28t-71 56.5t-45.5 80.5t-16 100t16 100t45.5 80.5t71 56.5t92.5 28v135h61v-134q62 -5 111.5 -33t78.5 -77l-72 -52q-43 67 -118 76v-360zM216 350q0 -72 34.5 -118.5t94.5 -58.5
v354q-60 -12 -94.5 -58.5t-34.5 -118.5z" />
    <glyph glyph-name="colon.case" horiz-adv-x="260" 
d="M133 463q-31 0 -48.5 18.5t-17.5 48.5q0 28 17.5 46t48.5 18q30 0 47.5 -18t17.5 -46q0 -30 -17.5 -48.5t-47.5 -18.5zM133 94q-31 0 -48.5 18.5t-17.5 47.5t17.5 47t48.5 18q30 0 47.5 -18t17.5 -47t-17.5 -47.5t-47.5 -18.5z" />
    <glyph glyph-name="currency.tf" horiz-adv-x="700" 
d="M612 350q0 -44 -12 -84t-35 -73l76 -77l-57 -57l-75 75q-32 -24 -71.5 -37.5t-87.5 -13.5t-87.5 13.5t-71.5 37.5l-75 -75l-57 57l76 77q-23 33 -35 73t-12 84t12 84t35 73l-76 77l57 57l75 -75q32 24 71.5 37.5t87.5 13.5t87.5 -13.5t71.5 -37.5l75 75l57 -57l-76 -77
q23 -33 35 -73t12 -84zM177 350q0 -40 12.5 -73.5t35 -57.5t54.5 -37t71 -13t71 13t54.5 37t35 57.5t12.5 73.5t-12.5 73.5t-35 57.5t-54.5 37t-71 13t-71 -13t-54.5 -37t-35 -57.5t-12.5 -73.5z" />
    <glyph glyph-name="currency_acutecomb" horiz-adv-x="587" 
d="M373 784l113 150h115l-131 -150h-97zM246 -14q-69 0 -126.5 25t-96.5 73l61 67q62 -73 158 -73q73 0 115 45t42 134v443h98v-450q0 -61 -17.5 -110t-50 -83t-79 -52.5t-104.5 -18.5z" />
    <glyph glyph-name="divide.tf" 
d="M355 467q-28 0 -45.5 17.5t-17.5 43.5q0 27 17.5 44.5t45.5 17.5t45.5 -17.5t17.5 -44.5q0 -26 -17.5 -43.5t-45.5 -17.5zM134 308v84h442v-84h-442zM355 110q-28 0 -45.5 17.5t-17.5 44.5q0 26 17.5 43.5t45.5 17.5t45.5 -17.5t17.5 -43.5q0 -27 -17.5 -44.5
t-45.5 -17.5z" />
    <glyph glyph-name="dollar.tf" horiz-adv-x="700" 
d="M604 206q0 -80 -56 -132t-162 -58v-66h-60v66q-85 7 -144 45.5t-86 101.5l72 46q23 -46 63.5 -73t94.5 -35v219l-30 7q-181 42 -181 174q0 76 55.5 126.5t155.5 56.5v66h60v-66q75 -7 127 -38.5t75 -78.5l-69 -48q-21 34 -55 54t-78 26v-207l42 -10q93 -22 134.5 -66
t41.5 -110zM326 600q-57 -5 -86.5 -30t-29.5 -67q0 -36 25 -58.5t88 -37.5l3 -1v194zM386 100q58 5 89.5 32.5t31.5 72.5q0 37 -24.5 60.5t-84.5 37.5l-12 3v-206z" />
    <glyph glyph-name="eight.dnom" horiz-adv-x="351" 
d="M253 187q71 -25 71 -92q0 -48 -38 -78.5t-110 -30.5t-110.5 30.5t-38.5 78.5q0 67 72 92q-61 24 -61 85q0 45 35 75.5t103 30.5t102.5 -30.5t34.5 -75.5q0 -61 -60 -85zM176 315q-31 0 -46.5 -13.5t-15.5 -36.5q0 -49 62 -49t62 49q0 23 -15 36.5t-47 13.5zM176 52
q35 0 52 14t17 37t-17 37.5t-52 14.5t-52 -14.5t-17 -37.5t17 -37t52 -14z" />
    <glyph glyph-name="eight.lf" horiz-adv-x="629" 
d="M441 359q66 -22 99.5 -66.5t33.5 -104.5q0 -42 -17 -79t-50 -64.5t-81.5 -43t-111.5 -15.5t-111 15.5t-81 43t-50 64.5t-17 79q0 60 33.5 104.5t99.5 66.5q-55 23 -84 64t-29 97q0 41 16 76.5t46.5 61.5t75 41t101.5 15t102 -15t75.5 -41t46.5 -61.5t16 -76.5
q0 -56 -29 -97t-84 -64zM314 629q-72 0 -107.5 -31.5t-35.5 -83.5t35.5 -83.5t107.5 -31.5t108 31.5t36 83.5t-36 83.5t-108 31.5zM314 73q81 0 121 34t40 87t-40 87.5t-121 34.5t-120.5 -34.5t-39.5 -87.5t39.5 -87t120.5 -34z" />
    <glyph glyph-name="eight.numr" horiz-adv-x="351" 
d="M253 523q71 -25 71 -92q0 -48 -38 -78.5t-110 -30.5t-110.5 30.5t-38.5 78.5q0 67 72 92q-61 24 -61 85q0 45 35 75.5t103 30.5t102.5 -30.5t34.5 -75.5q0 -61 -60 -85zM176 651q-31 0 -46.5 -13.5t-15.5 -36.5q0 -49 62 -49t62 49q0 23 -15 36.5t-47 13.5zM176 388
q35 0 52 14t17 37t-17 37.5t-52 14.5t-52 -14.5t-17 -37.5t17 -37t52 -14z" />
    <glyph glyph-name="eight.subs" horiz-adv-x="351" 
d="M253 127q71 -25 71 -92q0 -48 -38 -78.5t-110 -30.5t-110.5 30.5t-38.5 78.5q0 67 72 92q-61 24 -61 85q0 45 35 75.5t103 30.5t102.5 -30.5t34.5 -75.5q0 -61 -60 -85zM176 255q-31 0 -46.5 -13.5t-15.5 -36.5q0 -49 62 -49t62 49q0 23 -15 36.5t-47 13.5zM176 -8
q35 0 52 14t17 37t-17 37.5t-52 14.5t-52 -14.5t-17 -37.5t17 -37t52 -14z" />
    <glyph glyph-name="eight.sups" horiz-adv-x="351" 
d="M253 549q71 -25 71 -92q0 -48 -38 -78.5t-110 -30.5t-110.5 30.5t-38.5 78.5q0 67 72 92q-61 24 -61 85q0 45 35 75.5t103 30.5t102.5 -30.5t34.5 -75.5q0 -61 -60 -85zM176 677q-31 0 -46.5 -13.5t-15.5 -36.5q0 -49 62 -49t62 49q0 23 -15 36.5t-47 13.5zM176 414
q35 0 52 14t17 37t-17 37.5t-52 14.5t-52 -14.5t-17 -37.5t17 -37t52 -14z" />
    <glyph glyph-name="eight.tf" horiz-adv-x="700" 
d="M480 359q66 -22 99.5 -66.5t33.5 -104.5q0 -42 -17 -79t-50 -64.5t-81 -43t-111 -15.5t-111.5 15.5t-81.5 43t-50 64.5t-17 79q0 60 33.5 104.5t99.5 66.5q-55 23 -84 64t-29 97q0 41 16 76.5t46.5 61.5t75.5 41t102 15t101.5 -15t75 -41t46.5 -61.5t16 -76.5
q0 -56 -29 -97t-84 -64zM354 629q-72 0 -108 -31.5t-36 -83.5t36 -83.5t108 -31.5t107.5 31.5t35.5 83.5t-35.5 83.5t-107.5 31.5zM354 73q81 0 120.5 34t39.5 87t-39.5 87.5t-120.5 34.5t-121 -34.5t-40 -87.5t40 -87t121 -34z" />
    <glyph glyph-name="emdash.case" horiz-adv-x="1104" 
d="M52 318v80h1000v-80h-1000z" />
    <glyph glyph-name="endash.case" horiz-adv-x="604" 
d="M52 318v80h500v-80h-500z" />
    <glyph glyph-name="equal.tf" 
d="M134 410v83h442v-83h-442zM134 207v83h442v-83h-442z" />
    <glyph glyph-name="exclamdown.case" horiz-adv-x="294" 
d="M147 709q30 0 48 -18.5t18 -48.5q0 -29 -18 -46.5t-48 -17.5t-48 17.5t-18 46.5q0 30 18 48.5t48 18.5zM108 480h78l12 -480h-102z" />
    <glyph glyph-name="five.dnom" horiz-adv-x="334" 
d="M185 234q57 0 91.5 -31.5t34.5 -88.5q0 -60 -38.5 -94t-108.5 -34q-83 0 -141 56l44 54q21 -21 44.5 -30.5t49.5 -9.5q34 0 53 15.5t19 42.5q0 26 -18 41t-47 15q-35 0 -64 -22l-56 28v195h239v-70h-166v-82q14 8 30 11.5t34 3.5z" />
    <glyph glyph-name="five.lf" horiz-adv-x="587" 
d="M310 436q51 0 94 -15t73.5 -43t48 -68.5t17.5 -91.5q0 -52 -18.5 -95t-52 -73.5t-81.5 -47t-108 -16.5q-144 0 -239 102l58 62q42 -41 86 -58.5t93 -17.5q79 0 122 38.5t43 104.5q0 63 -38.5 98.5t-107.5 35.5q-41 0 -76.5 -12.5t-65.5 -34.5l-77 44v352h422v-88h-330
v-213q59 37 137 37z" />
    <glyph glyph-name="five.numr" horiz-adv-x="334" 
d="M185 570q57 0 91.5 -31.5t34.5 -88.5q0 -60 -38.5 -94t-108.5 -34q-83 0 -141 56l44 54q40 -40 94 -40q34 0 53 15.5t19 42.5q0 26 -18 41t-47 15q-35 0 -64 -22l-56 28v195h239v-70h-166v-82q14 8 30 11.5t34 3.5z" />
    <glyph glyph-name="five.subs" horiz-adv-x="334" 
d="M185 174q57 0 91.5 -31.5t34.5 -88.5q0 -60 -38.5 -94t-108.5 -34q-83 0 -141 56l44 54q21 -21 44.5 -30.5t49.5 -9.5q34 0 53 15.5t19 42.5q0 26 -18 41t-47 15q-35 0 -64 -22l-56 28v195h239v-70h-166v-82q14 8 30 11.5t34 3.5z" />
    <glyph glyph-name="five.sups" horiz-adv-x="334" 
d="M185 596q57 0 91.5 -31.5t34.5 -88.5q0 -60 -38.5 -94t-108.5 -34q-83 0 -141 56l44 54q40 -40 94 -40q34 0 53 15.5t19 42.5q0 26 -18 41t-47 15q-35 0 -64 -22l-56 28v195h239v-70h-166v-82q14 8 30 11.5t34 3.5z" />
    <glyph glyph-name="five.tf" horiz-adv-x="700" 
d="M372 436q51 0 94 -15t73.5 -43t48 -68.5t17.5 -91.5q0 -52 -18 -95t-52 -73.5t-82 -47t-107 -16.5q-145 0 -240 102l58 62q42 -41 86 -58.5t93 -17.5q79 0 122 38.5t43 104.5q0 63 -38.5 98.5t-107.5 35.5q-41 0 -76.5 -12.5t-65.5 -34.5l-77 44v352h422v-88h-330v-213
q59 37 137 37z" />
    <glyph glyph-name="florin.tf" horiz-adv-x="700" 
d="M522 613q-43 0 -62.5 -17t-27.5 -63l-20 -105h128v-73h-142l-70 -366q-13 -69 -52.5 -99t-118.5 -30h-40v87h34q43 0 62.5 17.5t27.5 63.5l63 327h-122v73h135l28 144q13 68 52.5 98t118.5 30h40v-87h-34z" />
    <glyph glyph-name="four.dnom" horiz-adv-x="347" 
d="M214 -7v75h-192v65l176 238h89v-238h46v-65h-46v-75h-73zM214 133v155l-115 -155h115z" />
    <glyph glyph-name="four.lf" horiz-adv-x="621" 
d="M409 0v152h-371v80l341 468h121v-466h102v-82h-102v-152h-91zM409 234v367l-268 -367h268z" />
    <glyph glyph-name="four.numr" horiz-adv-x="347" 
d="M214 329v75h-192v65l176 238h89v-238h46v-65h-46v-75h-73zM214 469v155l-115 -155h115z" />
    <glyph glyph-name="four.subs" horiz-adv-x="347" 
d="M214 -67v75h-192v65l176 238h89v-238h46v-65h-46v-75h-73zM214 73v155l-115 -155h115z" />
    <glyph glyph-name="four.sups" horiz-adv-x="347" 
d="M214 355v75h-192v65l176 238h89v-238h46v-65h-46v-75h-73zM214 495v155l-115 -155h115z" />
    <glyph glyph-name="four.tf" horiz-adv-x="700" 
d="M453 0v152h-370v80l340 468h121v-466h103v-82h-103v-152h-91zM453 234v367l-268 -367h268z" />
    <glyph glyph-name="greater.tf" 
d="M134 223l332 127l-332 127v91l442 -174v-88l-442 -174v91z" />
    <glyph glyph-name="greaterequal.tf" 
d="M134 293l341 125l-341 125v89l442 -170v-88l-442 -170v89zM134 69v83h442v-83h-442z" />
    <glyph glyph-name="guillemotleft.case" horiz-adv-x="556" 
d="M37 358l151 215h104l-150 -215l150 -215h-104zM259 358l151 215h104l-150 -215l150 -215h-104z" />
    <glyph glyph-name="guillemotright.case" horiz-adv-x="556" 
d="M192 358l-150 215h104l151 -215l-151 -215h-104zM414 358l-150 215h104l151 -215l-151 -215h-104z" />
    <glyph glyph-name="guilsinglleft.case" horiz-adv-x="334" 
d="M37 358l151 215h104l-150 -215l150 -215h-104z" />
    <glyph glyph-name="guilsinglright.case" horiz-adv-x="334" 
d="M192 358l-150 215h104l151 -215l-151 -215h-104z" />
    <glyph glyph-name="hyphen.case" horiz-adv-x="395" 
d="M52 315v86h291v-86h-291z" />
    <glyph glyph-name="i.loclTRK" horiz-adv-x="268" 
d="M134 607q-28 0 -45.5 18t-17.5 45t17.5 45t45.5 18t45.5 -18t17.5 -45t-17.5 -45t-45.5 -18zM87 0v507h94v-507h-94z" />
    <glyph glyph-name="j_acutecomb" horiz-adv-x="268" 
d="M60 591l90 150h113l-109 -150h-94zM-35 -125q25 -6 47 -6q42 0 58.5 20t16.5 58v560h94v-573q0 -71 -37.5 -110t-118.5 -39q-29 0 -60 6v84z" />
    <glyph glyph-name="less.tf" 
d="M576 132l-442 174v88l442 174v-91l-332 -127l332 -127v-91z" />
    <glyph glyph-name="lessequal.tf" 
d="M576 203l-442 170v88l442 170v-89l-341 -125l341 -125v-89zM134 68v83h442v-83h-442z" />
    <glyph glyph-name="logicalnot.tf" 
d="M489 361h-355v83h442v-187h-87v104z" />
    <glyph glyph-name="minus.tf" 
d="M134 308v84h442v-84h-442z" />
    <glyph glyph-name="multiply.tf" 
d="M355 294l-150 -150l-56 56l150 150l-150 150l56 56l150 -150l150 150l56 -56l-150 -150l150 -150l-56 -56z" />
    <glyph glyph-name="nine.dnom" horiz-adv-x="340" 
d="M169 378q65 0 106 -37.5t41 -101.5q0 -68 -56 -143l-79 -103h-91l99 125q-13 -4 -32 -4q-28 0 -53 9t-43 26t-28.5 41t-10.5 53q0 60 40.5 97.5t106.5 37.5zM169 177q32 0 50.5 17.5t18.5 48.5q0 30 -18.5 48t-50.5 18t-51 -18t-19 -48q0 -31 19 -48.5t51 -17.5z" />
    <glyph glyph-name="nine.lf" horiz-adv-x="609" 
d="M300 714q56 0 103 -17.5t81.5 -49.5t54 -78.5t19.5 -104.5q0 -64 -25 -131t-79 -137l-148 -196h-116l206 261q-52 -34 -118 -34q-49 0 -92.5 17.5t-76.5 49t-52 76.5t-19 99q0 55 19.5 100t54.5 77.5t83 50t105 17.5zM298 311q76 0 119.5 42t43.5 116t-43.5 116
t-119.5 42t-119.5 -42t-43.5 -116t43.5 -116t119.5 -42z" />
    <glyph glyph-name="nine.numr" horiz-adv-x="340" 
d="M169 714q65 0 106 -37.5t41 -101.5q0 -68 -56 -143l-79 -103h-91l99 125q-13 -4 -32 -4q-28 0 -53 9t-43 26t-28.5 41t-10.5 53q0 60 40.5 97.5t106.5 37.5zM169 513q32 0 50.5 17.5t18.5 48.5q0 30 -18.5 48t-50.5 18t-51 -18t-19 -48q0 -31 19 -48.5t51 -17.5z" />
    <glyph glyph-name="nine.subs" horiz-adv-x="340" 
d="M169 318q65 0 106 -37.5t41 -101.5q0 -68 -56 -143l-79 -103h-91l99 125q-13 -4 -32 -4q-28 0 -53 9t-43 26t-28.5 41t-10.5 53q0 60 40.5 97.5t106.5 37.5zM169 117q32 0 50.5 17.5t18.5 48.5q0 30 -18.5 48t-50.5 18t-51 -18t-19 -48q0 -31 19 -48.5t51 -17.5z" />
    <glyph glyph-name="nine.sups" horiz-adv-x="340" 
d="M169 740q65 0 106 -37.5t41 -101.5q0 -68 -56 -143l-79 -103h-91l99 125q-13 -4 -32 -4q-28 0 -53 9t-43 26t-28.5 41t-10.5 53q0 60 40.5 97.5t106.5 37.5zM169 539q32 0 50.5 17.5t18.5 48.5q0 30 -18.5 48t-50.5 18t-51 -18t-19 -48q0 -31 19 -48.5t51 -17.5z" />
    <glyph glyph-name="nine.tf" horiz-adv-x="700" 
d="M348 714q56 0 103 -17.5t81.5 -49.5t54 -78.5t19.5 -104.5q0 -64 -25 -131t-79 -137l-149 -196h-116l207 261q-52 -34 -119 -34q-49 0 -92.5 17.5t-76.5 49t-52 76.5t-19 99q0 55 19.5 100t54.5 77.5t83.5 50t105.5 17.5zM346 311q75 0 118.5 42t43.5 116t-43.5 116
t-118.5 42q-76 0 -119.5 -42t-43.5 -116t43.5 -116t119.5 -42z" />
    <glyph glyph-name="notequal.tf" 
d="M576 207h-252l-60 -127h-74l60 127h-116v83h156l56 120h-212v83h252l60 127h74l-60 -127h116v-83h-156l-56 -120h212v-83z" />
    <glyph glyph-name="one.dnom" horiz-adv-x="243" 
d="M116 289l-90 -45v75l101 52h66v-378h-77v296z" />
    <glyph glyph-name="one.lf" horiz-adv-x="431" 
d="M230 597l-182 -93v94l198 102h80v-700h-96v597z" />
    <glyph glyph-name="one.numr" horiz-adv-x="243" 
d="M116 625l-90 -45v75l101 52h66v-378h-77v296z" />
    <glyph glyph-name="one.subs" horiz-adv-x="243" 
d="M116 229l-90 -45v75l101 52h66v-378h-77v296z" />
    <glyph glyph-name="one.sups" horiz-adv-x="243" 
d="M116 651l-90 -45v75l101 52h66v-378h-77v296z" />
    <glyph glyph-name="one.tf" horiz-adv-x="700" 
d="M140 88h195v509l-182 -93v94l199 102h79v-612h176v-88h-467v88z" />
    <glyph glyph-name="parenleft.case" horiz-adv-x="327" 
d="M68 350q0 120 40.5 234.5t116.5 204.5l73 -51q-28 -34 -52 -78.5t-42 -95t-28 -105.5t-10 -109t10 -109t28 -105.5t42 -95t52 -78.5l-73 -51q-76 90 -116.5 204.5t-40.5 234.5z" />
    <glyph glyph-name="parenright.case" horiz-adv-x="327" 
d="M259 350q0 -120 -41 -234.5t-116 -204.5l-73 51q28 34 52 78.5t42 95t28 105.5t10 109t-10 109t-28 105.5t-42 95t-52 78.5l73 51q75 -90 116 -204.5t41 -234.5z" />
    <glyph glyph-name="periodcentered.case" horiz-adv-x="255" 
d="M128 295q-31 0 -48.5 18.5t-17.5 48.5q0 29 17.5 46.5t48.5 17.5q30 0 47.5 -17.5t17.5 -46.5q0 -30 -17.5 -48.5t-47.5 -18.5z" />
    <glyph glyph-name="plus.tf" 
d="M311 120v188h-177v84h177v188h88v-188h177v-84h-177v-188h-88z" />
    <glyph glyph-name="plusminus.tf" 
d="M399 213h-88v176h-177v83h177v177h88v-177h177v-83h-177v-176zM134 52v83h442v-83h-442z" />
    <glyph glyph-name="questiondown.case" horiz-adv-x="471" 
d="M258 709q31 0 48.5 -18.5t17.5 -48.5q0 -29 -17.5 -46.5t-48.5 -17.5q-30 0 -47.5 17.5t-17.5 46.5q0 30 17.5 48.5t47.5 18.5zM305 433q0 -25 -3.5 -44t-12 -35.5t-23.5 -32.5t-38 -36l-48 -40q-30 -25 -40.5 -45.5t-10.5 -40.5q0 -40 27 -62t73 -22t85.5 24t65.5 70
l73 -49q-29 -60 -88 -97t-136 -37q-44 0 -80.5 12.5t-62 35t-39.5 53.5t-14 68q0 39 19 75t70 79l48 40q13 11 21.5 20t13 18.5t6 20.5t1.5 26v46h93v-47z" />
    <glyph glyph-name="semicolon.case" horiz-adv-x="254" 
d="M131 458q-30 0 -47.5 18.5t-17.5 47.5t17.5 47t47.5 18q31 0 48.5 -18t17.5 -47t-17.5 -47.5t-48.5 -18.5zM42 -53l49 275h97l-72 -275h-74z" />
    <glyph glyph-name="seven.dnom" horiz-adv-x="301" 
d="M47 -7l151 305h-182v73h269v-65l-151 -313h-87z" />
    <glyph glyph-name="seven.lf" horiz-adv-x="525" 
d="M100 0l298 612h-373v88h476v-83l-297 -617h-104z" />
    <glyph glyph-name="seven.numr" horiz-adv-x="301" 
d="M47 329l151 305h-182v73h269v-65l-151 -313h-87z" />
    <glyph glyph-name="seven.subs" horiz-adv-x="301" 
d="M47 -67l151 305h-182v73h269v-65l-151 -313h-87z" />
    <glyph glyph-name="seven.sups" horiz-adv-x="301" 
d="M47 355l151 305h-182v73h269v-65l-151 -313h-87z" />
    <glyph glyph-name="seven.tf" horiz-adv-x="700" 
d="M204 0l298 612h-388v88h491v-83l-297 -617h-104z" />
    <glyph glyph-name="six.dnom" horiz-adv-x="341" 
d="M185 249q29 0 53.5 -9t42.5 -25.5t28.5 -40.5t10.5 -53q0 -60 -40.5 -97.5t-106.5 -37.5q-65 0 -106.5 37.5t-41.5 100.5q0 69 56 143l79 104h92l-98 -125q14 3 31 3zM173 55q32 0 50.5 17.5t18.5 48.5t-18.5 48t-50.5 17t-51 -17t-19 -48t19 -48.5t51 -17.5z" />
    <glyph glyph-name="six.lf" horiz-adv-x="609" 
d="M332 473q49 0 92.5 -17.5t76.5 -49t52 -76.5t19 -99q0 -55 -19.5 -100t-54.5 -77t-83.5 -50t-105.5 -18q-55 0 -102.5 17.5t-82 49.5t-54 78.5t-19.5 104.5q0 64 25 131t79 137l149 196h116l-207 -261q52 34 119 34zM311 73q76 0 119.5 42t43.5 116t-43.5 116t-119.5 42
q-75 0 -118.5 -42t-43.5 -116t43.5 -116t118.5 -42z" />
    <glyph glyph-name="six.numr" horiz-adv-x="341" 
d="M185 585q29 0 53.5 -9t42.5 -25.5t28.5 -40.5t10.5 -53q0 -60 -40.5 -97.5t-106.5 -37.5q-65 0 -106.5 37.5t-41.5 100.5q0 69 56 143l79 104h92l-98 -125q14 3 31 3zM173 391q32 0 50.5 17.5t18.5 48.5t-18.5 48t-50.5 17t-51 -17t-19 -48t19 -48.5t51 -17.5z" />
    <glyph glyph-name="six.subs" horiz-adv-x="341" 
d="M185 189q29 0 53.5 -9t42.5 -25.5t28.5 -40.5t10.5 -53q0 -60 -40.5 -97.5t-106.5 -37.5q-65 0 -106.5 37.5t-41.5 100.5q0 69 56 143l79 104h92l-98 -125q14 3 31 3zM173 -5q32 0 50.5 17.5t18.5 48.5t-18.5 48t-50.5 17t-51 -17t-19 -48t19 -48.5t51 -17.5z" />
    <glyph glyph-name="six.sups" horiz-adv-x="341" 
d="M185 611q29 0 53.5 -9t42.5 -25.5t28.5 -40.5t10.5 -53q0 -60 -40.5 -97.5t-106.5 -37.5q-65 0 -106.5 37.5t-41.5 100.5q0 69 56 143l79 104h92l-98 -125q14 3 31 3zM173 417q32 0 50.5 17.5t18.5 48.5t-18.5 48t-50.5 17t-51 -17t-19 -48t19 -48.5t51 -17.5z" />
    <glyph glyph-name="six.tf" horiz-adv-x="700" 
d="M378 473q49 0 92.5 -17.5t76.5 -49t52 -76.5t19 -99q0 -55 -19.5 -100t-54.5 -77t-83 -50t-105 -18q-55 0 -102.5 17.5t-82 49.5t-54 78.5t-19.5 104.5q0 64 25 131t79 137l148 196h117l-207 -261q52 34 118 34zM358 73q76 0 119.5 42t43.5 116t-43.5 116t-119.5 42
t-119.5 -42t-43.5 -116t43.5 -116t119.5 -42z" />
    <glyph glyph-name="sterling.tf" horiz-adv-x="700" 
d="M113 0v88h73v219h-77v76h77v122q0 97 52.5 153t152.5 56q69 0 122 -29t87 -88l-75 -49q-23 40 -56.5 58.5t-75.5 18.5q-57 0 -84 -32t-27 -93v-117h239v-76h-239v-219h317v-88h-486z" />
    <glyph glyph-name="three.dnom" horiz-adv-x="328" 
d="M193 211q54 -6 82 -32.5t28 -72.5q0 -54 -38 -87t-106 -33q-90 0 -142 57l44 53q21 -21 45 -30.5t49 -9.5q34 0 51.5 14.5t17.5 38.5q0 25 -20.5 38t-71.5 13h-25v50l86 91h-154v70h247v-63z" />
    <glyph glyph-name="three.lf" horiz-adv-x="577" 
d="M295 402q109 -5 170.5 -55.5t61.5 -144.5q0 -49 -17.5 -88.5t-50.5 -68t-80.5 -44t-106.5 -15.5q-76 0 -139 26t-111 78l58 64q41 -42 89 -61t102 -19q77 0 117.5 35.5t40.5 95.5q0 62 -48 93.5t-161 31.5h-39v66l205 217h-327v87h442v-80z" />
    <glyph glyph-name="three.numr" horiz-adv-x="328" 
d="M193 547q54 -6 82 -32.5t28 -72.5q0 -54 -38 -87t-106 -33q-90 0 -142 57l44 53q21 -21 45 -30.5t49 -9.5q34 0 51.5 14.5t17.5 38.5q0 25 -20.5 38t-71.5 13h-25v50l86 91h-154v70h247v-63z" />
    <glyph glyph-name="three.subs" horiz-adv-x="328" 
d="M193 151q54 -6 82 -32.5t28 -72.5q0 -54 -38 -87t-106 -33q-90 0 -142 57l44 53q21 -21 45 -30.5t49 -9.5q34 0 51.5 14.5t17.5 38.5q0 25 -20.5 38t-71.5 13h-25v50l86 91h-154v70h247v-63z" />
    <glyph glyph-name="three.sups" horiz-adv-x="328" 
d="M193 573q54 -6 82 -32.5t28 -72.5q0 -54 -38 -87t-106 -33q-90 0 -142 57l44 53q21 -21 45 -30.5t49 -9.5q34 0 51.5 14.5t17.5 38.5q0 25 -20.5 38t-71.5 13h-25v50l86 91h-154v70h247v-63z" />
    <glyph glyph-name="three.tf" horiz-adv-x="700" 
d="M362 402q109 -5 171 -55.5t62 -144.5q0 -49 -17.5 -88.5t-50.5 -68t-80.5 -44t-106.5 -15.5q-76 0 -139 26t-111 78l58 64q41 -42 88.5 -61t102.5 -19q77 0 117.5 35.5t40.5 95.5q0 62 -48 93.5t-161 31.5h-40v66l206 217h-327v87h442v-80z" />
    <glyph glyph-name="two.dnom" horiz-adv-x="330" 
d="M29 51l136 128q32 30 44.5 48.5t12.5 35.5q0 20 -14 31.5t-37 11.5q-25 0 -46.5 -15.5t-37.5 -47.5l-62 37q18 45 56.5 71.5t89.5 26.5q58 0 94 -32t36 -80q0 -56 -63 -113l-94 -88h161v-72h-276v58z" />
    <glyph glyph-name="two.lf" horiz-adv-x="584" 
d="M43 80l255 238q37 34 61 61t38.5 49.5t20 42.5t5.5 41q0 54 -32.5 84t-90.5 30q-56 0 -103.5 -30t-82.5 -96l-74 50q42 81 107.5 122.5t150.5 41.5q51 0 92.5 -14.5t71 -41t45 -63.5t15.5 -81q0 -54 -28.5 -108t-102.5 -122l-209 -195h353v-89h-492v80z" />
    <glyph glyph-name="two.numr" horiz-adv-x="330" 
d="M29 387l136 128q32 30 44.5 48.5t12.5 35.5q0 20 -14 31.5t-37 11.5q-25 0 -46.5 -15.5t-37.5 -47.5l-62 37q18 45 56.5 71.5t89.5 26.5q58 0 94 -32t36 -80q0 -56 -63 -113l-94 -88h161v-72h-276v58z" />
    <glyph glyph-name="two.subs" horiz-adv-x="330" 
d="M29 -9l136 128q32 30 44.5 48.5t12.5 35.5q0 20 -14 31.5t-37 11.5q-25 0 -46.5 -15.5t-37.5 -47.5l-62 37q18 45 56.5 71.5t89.5 26.5q58 0 94 -32t36 -80q0 -56 -63 -113l-94 -88h161v-72h-276v58z" />
    <glyph glyph-name="two.sups" horiz-adv-x="330" 
d="M29 413l136 128q32 30 44.5 48.5t12.5 35.5q0 20 -14 31.5t-37 11.5q-25 0 -46.5 -15.5t-37.5 -47.5l-62 37q18 45 56.5 71.5t89.5 26.5q58 0 94 -32t36 -80q0 -56 -63 -113l-94 -88h161v-72h-276v58z" />
    <glyph glyph-name="two.tf" horiz-adv-x="700" 
d="M103 80l255 238q37 34 61 61t38.5 49.5t20 42.5t5.5 41q0 54 -32.5 84t-90.5 30q-56 0 -103.5 -30t-82.5 -96l-75 50q42 81 108 122.5t151 41.5q51 0 92.5 -14.5t71 -41t45 -63.5t15.5 -81q0 -54 -28.5 -108t-102.5 -122l-209 -195h352v-89h-491v80z" />
    <glyph glyph-name="yen.tf" horiz-adv-x="700" 
d="M398 283v-85h179v-67h-179v-131h-96v131h-178v67h178v85h-178v66h146l-205 351h105l180 -319l180 319h105l-205 -351h147v-66h-179z" />
    <glyph glyph-name="zero.dnom" horiz-adv-x="382" 
d="M191 -14q-72 0 -114.5 50t-42.5 146t42.5 146t114.5 50t114.5 -50t42.5 -146t-42.5 -146t-114.5 -50zM191 57q38 0 57.5 28.5t19.5 96.5t-19.5 96t-57.5 28t-57.5 -28t-19.5 -96t19.5 -96.5t57.5 -28.5z" />
    <glyph glyph-name="zero.lf" horiz-adv-x="702" 
d="M351 -14q-65 0 -117.5 24.5t-89 71t-56.5 114t-20 154.5t20 154.5t56.5 114t89 71t117.5 24.5t117.5 -24.5t89 -71t56.5 -114t20 -154.5t-20 -154.5t-56.5 -114t-89 -71t-117.5 -24.5zM351 75q88 0 135 67t47 208t-47 208t-135 67t-135.5 -67t-47.5 -208t47.5 -208
t135.5 -67z" />
    <glyph glyph-name="zero.numr" horiz-adv-x="382" 
d="M191 322q-72 0 -114.5 50t-42.5 146t42.5 146t114.5 50t114.5 -50t42.5 -146t-42.5 -146t-114.5 -50zM191 393q38 0 57.5 28.5t19.5 96.5t-19.5 96t-57.5 28t-57.5 -28t-19.5 -96t19.5 -96.5t57.5 -28.5z" />
    <glyph glyph-name="zero.subs" horiz-adv-x="382" 
d="M191 -74q-72 0 -114.5 50t-42.5 146t42.5 146t114.5 50t114.5 -50t42.5 -146t-42.5 -146t-114.5 -50zM191 -3q38 0 57.5 28.5t19.5 96.5t-19.5 96t-57.5 28t-57.5 -28t-19.5 -96t19.5 -96.5t57.5 -28.5z" />
    <glyph glyph-name="zero.sups" horiz-adv-x="382" 
d="M191 348q-72 0 -114.5 50t-42.5 146t42.5 146t114.5 50t114.5 -50t42.5 -146t-42.5 -146t-114.5 -50zM191 419q38 0 57.5 28.5t19.5 96.5t-19.5 96t-57.5 28t-57.5 -28t-19.5 -96t19.5 -96.5t57.5 -28.5z" />
    <glyph glyph-name="zero.tf" horiz-adv-x="700" 
d="M350 -14q-129 0 -198 95t-69 269t69 269t198 95t198 -95t69 -269t-69 -269t-198 -95zM350 75q87 0 127.5 67t40.5 208t-40.5 208t-127.5 67t-127.5 -67t-40.5 -208t40.5 -208t127.5 -67z" />
    <glyph glyph-name="zero.tf.zero" horiz-adv-x="700" 
d="M350 714q129 0 198 -95t69 -269t-69 -269t-198 -95t-198 95t-69 269t69 269t198 95zM350 625q-87 0 -127.5 -67t-40.5 -208q0 -134 37 -201l208 458q-33 18 -77 18zM350 75q87 0 127.5 67t40.5 208q0 133 -37 200l-207 -458q32 -17 76 -17z" />
    <glyph glyph-name="zero.zero" horiz-adv-x="702" 
d="M351 714q65 0 117.5 -24.5t89 -71t56.5 -114t20 -154.5t-20 -154.5t-56.5 -114t-89 -71t-117.5 -24.5t-117.5 24.5t-89 71t-56.5 114t-20 154.5t20 154.5t56.5 114t89 71t117.5 24.5zM351 625q-88 0 -135.5 -67t-47.5 -208q0 -140 49 -209l212 467q-36 17 -78 17zM351 75
q88 0 135 67t47 208q0 139 -47 207l-212 -466q33 -16 77 -16z" />
    </font>
</defs>
</svg>
